<?xml version="1.0" encoding="utf-8"?>
<!-- Generator: Adobe Illustrator 21.0.0, SVG Export Plug-In . SVG Version: 6.00 Build 0)  -->
<svg version="1.1" id="Capa_1" xmlns="http://www.w3.org/2000/svg" xmlns:xlink="http://www.w3.org/1999/xlink" x="0px" y="0px"
	 viewBox="0 0 300 100" style="enable-background:new 0 0 300 100;" xml:space="preserve">
<style type="text/css">
	.st0{fill:#211915;}
	.st1{fill:#FFFFFF;}
</style>
<title>Hotel_Patito</title>
<g>
	<path class="st0" d="M172.9,32.7c-0.1,1.4-0.6,2.8-1.4,4c-0.8,1.1-1.9,2-3.2,2.6c-2.7,1.3-5.6,1.9-8.5,1.9c-0.5,0-1.1,0-1.6-0.1
		c-1.9,4.8-2.9,8-2.9,9.7c0,0.3,0,0.5,0.1,0.8H151c1.1-4,2.4-7.8,4.1-11.5c2.7-6.5,4.5-10.3,5.3-11.2c-2,0.1-4,0.5-5.9,1.2
		c-2,0.7-3.2,1.6-3.5,2.7c0,0.1-0.1,0.1-0.1,0.1c-0.2,0-0.3-0.1-0.3-0.4c0-0.1,0-0.2,0.1-0.3c0.3-1.1,1-2.1,1.9-2.9
		c0.7-0.6,1.5-1.1,2.4-1.3c1-0.2,2-0.3,2.9-0.2h8.7c1.7-0.1,3.4,0.4,4.7,1.3c1,0.8,1.6,2.1,1.6,3.4L172.9,32.7z M163.7,39.7
		c1.6-0.5,3-1.4,4.1-2.6c1.1-1.2,1.6-2.7,1.6-4.2c0-2.6-1.6-4-4.7-4.2c-1.5,1.9-3.3,5.3-5.5,10.2l-0.7,1.7h0.4
		C160.5,40.5,162.1,40.2,163.7,39.7L163.7,39.7z"/>
	<path class="st0" d="M181.9,37.8h1.7h0.3c-0.8,0.6-1.7,2.2-2.8,4.7c-0.9,1.7-1.4,3.6-1.7,5.5c0,0.6,0.2,0.9,0.6,0.9
		c1.4,0,3.1-2,5.1-5.9c0.1-0.2,0.2-0.2,0.2-0.2c0.1,0,0.2,0.2,0.2,0.6c0,0.4-0.1,0.9-0.3,1.2c-2.8,4.8-5.2,7.1-7.1,7.1
		c-1.2,0-1.9-1-1.9-2.9c0-1.4,0.2-2.8,0.7-4.2c-2.6,4.6-5,6.9-7.3,6.9c-1.5,0-2.3-1.1-2.3-3.2c0-1.7,0.4-3.3,1-4.9
		c0.7-1.6,1.7-3.1,3-4.2c1.2-1.1,2.7-1.7,4.3-1.7c0.7,0,1.4,0.2,2,0.5c0.6,0.3,1.1,0.9,1.3,1.6c0.3-0.5,0.7-1,1.2-1.4
		C180.8,38,181.3,37.8,181.9,37.8z M179,40.1c-0.2-0.7-0.9-1.2-1.6-1.1c-1.5,0-3,1-4.4,3.1c-1.3,1.6-2,3.6-2.2,5.6
		c0,0.7,0.3,1,0.8,1c0.8-0.1,1.6-0.5,2.1-1.1c0.8-0.8,1.6-1.7,2.2-2.6C177.4,42.8,178.4,41.2,179,40.1z"/>
	<path class="st0" d="M194.7,31.9c-1.1,0.8-2.4,2.8-3.8,6h3.5l0,0c0,0.1-0.1,0.3-0.4,0.6c-0.3,0.3-0.5,0.4-0.7,0.4h-3
		c-1.8,4.5-2.7,7.4-2.7,8.7c0,0.9,0.3,1.3,0.8,1.3c0.8,0,1.7-0.7,2.8-2c0.4-0.5,0.7-1,1-1.5c0.5-0.9,1.1-1.7,1.7-2.5
		c0.1,0,0.2,0.2,0.2,0.6c0,0.9-0.9,2.6-2.8,5.1c-0.6,0.8-1.4,1.6-2.2,2.3c-0.7,0.6-1.5,1-2.4,1c-1.3,0-2-0.9-2-2.7
		c0.1-1.8,0.4-3.6,1.1-5.3l0,0c-0.3,0.6-0.7,1.2-1.1,1.8c-0.3,0.4-0.5,0.6-0.5,0.6s-0.1-0.1-0.1-0.4c0.1-0.5,0.2-1,0.5-1.4
		c0.3-0.6,0.7-1.5,1.3-2.5c0.5-1,0.9-2,1.2-2.8h-2.3c-0.1,0-0.1-0.1-0.1-0.2c0-0.2,0.1-0.4,0.3-0.5c0.2-0.3,0.3-0.4,0.4-0.4h2.6
		c1.6-4,3.3-5.9,5-5.9C194,31.9,194.6,31.9,194.7,31.9z"/>
	<path class="st0" d="M197.8,37.8h1.7h0.3c-0.6,0.7-1.1,1.4-1.5,2.3c-0.6,1.2-1.1,2.1-1.4,2.7s-0.6,1.4-1,2.5
		c-0.3,0.8-0.5,1.7-0.6,2.6c0,0.7,0.2,1,0.7,1c0.5-0.1,0.9-0.3,1.3-0.6c0.5-0.4,0.9-0.8,1.3-1.3c0.3-0.4,0.7-1,1.2-1.7l1.1-1.8
		c0.1-0.3,0.3-0.5,0.5-0.8c0.1,0,0.2,0.2,0.2,0.6c0,0.4-0.1,0.9-0.3,1.2c-0.9,1.4-1.6,2.6-2.3,3.6c-0.7,0.9-1.5,1.8-2.4,2.5
		c-0.7,0.6-1.5,1-2.4,1c-1.3,0-1.9-0.9-1.9-2.6c0.2-3.3,1.1-6.4,2.9-9.2C195.9,38.5,196.8,37.8,197.8,37.8z M202.4,33.3h-0.1
		c-0.5,0-1,0.2-1.3,0.6c-0.4,0.3-0.7,0.7-0.9,1.2c-0.5-0.2-0.9-0.7-0.9-1.2c0-0.7,0.3-1.3,0.8-1.8c0.4-0.5,0.9-0.8,1.6-0.9
		c0.4,0,0.8,0.1,1.1,0.3c0.2,0.2,0.4,0.5,0.4,0.9C203.1,32.7,202.8,33.1,202.4,33.3z"/>
	<path class="st0" d="M210.7,31.9c-1.1,0.8-2.4,2.8-3.8,6h3.5l0,0c0,0.1-0.1,0.3-0.4,0.6c-0.3,0.3-0.5,0.4-0.7,0.4h-3
		c-1.8,4.5-2.7,7.4-2.7,8.7c0,0.9,0.3,1.3,0.8,1.3c0.8,0,1.7-0.7,2.8-2c0.4-0.5,0.7-1,1-1.5c0.5-0.9,1.1-1.7,1.7-2.5
		c0.1,0,0.2,0.2,0.2,0.6c0,0.9-0.9,2.6-2.8,5.1c-0.6,0.9-1.4,1.6-2.2,2.3c-0.7,0.6-1.5,1-2.4,1c-1.3,0-2-0.9-2-2.7
		c0.1-1.8,0.4-3.6,1.1-5.3l0,0c-0.3,0.6-0.7,1.2-1.1,1.8c-0.3,0.4-0.5,0.6-0.5,0.6s-0.1-0.1-0.1-0.4c0.1-0.5,0.2-1,0.5-1.4
		c0.3-0.6,0.7-1.5,1.3-2.5c0.5-1,1-2,1.3-2.8h-2.3c-0.1,0-0.1-0.1-0.1-0.2c0-0.2,0.1-0.4,0.3-0.5c0.2-0.3,0.3-0.4,0.4-0.4h2.6
		c1.6-4,3.3-5.9,5-5.9C210.1,31.9,210.6,31.9,210.7,31.9z"/>
	<path class="st0" d="M225.2,43.1c0.1-0.1,0.1-0.2,0.2-0.2c0.1,0,0.2,0.2,0.2,0.5c0,1.1-0.5,2.1-1.3,2.7c-0.7,0.6-1.5,1-2.5,1.1
		c-0.7,0-1.4-0.2-2-0.7c-0.7,1.5-1.7,2.8-2.9,3.8c-1.2,1-2.8,1.5-4.4,1.4c-1,0.1-2-0.3-2.8-1c-0.8-0.9-1.2-2-1.1-3.2
		c0-1.5,0.4-3,1-4.4c0.7-1.5,1.7-2.9,3-3.9c1.2-1.1,2.8-1.7,4.4-1.7c2.7,0,4.1,1.4,4.1,4.3c0,1.2-0.3,2.4-0.7,3.5
		c0.3,0.5,0.9,0.7,1.5,0.7C223,46.1,224.1,45.1,225.2,43.1z M219.4,41c-0.1-1.2-0.6-1.8-1.7-1.8c-1.6,0-3.1,1.5-4.6,4.6
		c-0.8,1.4-1.2,3-1.2,4.6c0,1.4,0.6,2.1,1.8,2.2c1.1-0.1,2.1-0.6,2.7-1.6c0.8-1.1,1.6-2.2,2.1-3.5c-0.7-0.6-1.2-1.5-1.2-2.5
		c0-0.5,0.2-1.1,0.5-1.5c0.3-0.4,0.8-0.6,1.4-0.6L219.4,41z"/>
	<rect x="104.8" y="55.4" class="st0" width="166" height="2.9"/>
	<path class="st0" d="M135.8,73.9v-8.8h1.2v3.6h4.6v-3.6h1.2v8.8h-1.2v-4.1H137v4.1H135.8z"/>
	<path class="st0" d="M144.3,69.7c-0.1-1.2,0.3-2.5,1.2-3.4c0.8-0.8,1.9-1.3,3.1-1.2c0.8,0,1.5,0.2,2.2,0.6c0.6,0.4,1.2,0.9,1.5,1.6
		c0.4,0.7,0.5,1.5,0.5,2.4c0,0.8-0.2,1.6-0.5,2.4c-0.3,0.7-0.9,1.2-1.5,1.6c-0.7,0.4-1.4,0.5-2.1,0.5c-0.8,0-1.5-0.2-2.2-0.6
		c-0.6-0.4-1.2-1-1.5-1.6C144.5,71.2,144.3,70.4,144.3,69.7z M145.5,69.7c-0.1,0.9,0.3,1.8,0.8,2.5c1.1,1.2,3,1.2,4.2,0.1
		c0,0,0.1-0.1,0.1-0.1c0.6-0.7,0.9-1.7,0.8-2.6c0-0.6-0.1-1.3-0.4-1.9c-0.2-0.5-0.6-0.9-1-1.2c-0.5-0.3-1-0.4-1.6-0.4
		c-0.8,0-1.6,0.3-2.1,0.8C145.7,67.6,145.4,68.7,145.5,69.7L145.5,69.7z"/>
	<path class="st0" d="M156.4,73.9v-7.7h-2.9v-1h6.9v1h-2.9v7.7L156.4,73.9z"/>
	<path class="st0" d="M161.6,73.9v-8.8h6.3v1h-5.2v2.7h4.8v1h-4.8v3h5.4v1L161.6,73.9z"/>
	<path class="st0" d="M169.8,73.9v-8.8h1.2v7.7h4.3v1L169.8,73.9z"/>
	<path class="st0" d="M184.4,72.9c-0.3,0.4-0.7,0.7-1.2,0.9c-0.4,0.2-0.9,0.3-1.4,0.3c-0.8,0-1.6-0.3-2.1-0.9
		c-0.4-0.5-0.6-1-0.6-1.7c0-0.5,0.2-1.1,0.5-1.5c0.4-0.5,1-0.9,1.6-1.2c-0.3-0.3-0.6-0.7-0.8-1.1c-0.1-0.3-0.2-0.5-0.2-0.8
		c0-0.5,0.2-1,0.6-1.4c0.4-0.4,1-0.6,1.6-0.6c0.5,0,1.1,0.2,1.5,0.6c0.4,0.3,0.6,0.8,0.6,1.3c0,0.8-0.6,1.5-1.7,2.1l1.6,2
		c0.2-0.4,0.3-0.8,0.4-1.2l1.1,0.2c-0.2,0.7-0.4,1.3-0.8,1.9c0.4,0.5,0.8,1,1.4,1.3l-0.7,0.9C185.3,73.8,184.8,73.4,184.4,72.9z
		 M183.8,72.1l-2-2.4c-0.5,0.2-0.9,0.6-1.2,1c-0.2,0.3-0.3,0.6-0.3,0.9c0,0.4,0.2,0.8,0.4,1.1c0.3,0.4,0.7,0.6,1.2,0.6
		c0.4,0,0.7-0.1,1-0.3C183.3,72.6,183.6,72.4,183.8,72.1z M182.3,68.3c0.3-0.2,0.7-0.4,0.9-0.7c0.1-0.2,0.2-0.4,0.2-0.7
		c0-0.3-0.1-0.5-0.3-0.7c-0.2-0.2-0.4-0.3-0.7-0.3c-0.3,0-0.5,0.1-0.7,0.3c-0.2,0.2-0.3,0.4-0.3,0.7c0,0.1,0,0.3,0.1,0.4
		c0.1,0.2,0.2,0.3,0.3,0.5L182.3,68.3z"/>
	<path class="st0" d="M191.2,73.9v-8.8h3.9c0.6,0,1.2,0.1,1.8,0.2c0.4,0.2,0.8,0.4,1,0.8c0.2,0.4,0.4,0.9,0.4,1.3
		c0,0.6-0.2,1.1-0.6,1.6c-0.5,0.5-1.2,0.8-1.9,0.8c0.3,0.1,0.5,0.3,0.7,0.4c0.3,0.4,0.6,0.8,0.9,1.2l1.5,2.4h-1.5l-1.2-1.8
		c-0.3-0.5-0.6-0.9-0.8-1.2c-0.2-0.2-0.4-0.4-0.6-0.6c-0.2-0.1-0.3-0.2-0.5-0.2c-0.2,0-0.4,0-0.6,0h-1.3V74L191.2,73.9z M192.3,69
		h2.5c0.4,0,0.8,0,1.2-0.2c0.3-0.1,0.5-0.3,0.7-0.5c0.2-0.2,0.2-0.5,0.2-0.8c0-0.4-0.2-0.8-0.4-1c-0.4-0.3-0.9-0.4-1.4-0.4h-2.8V69z
		"/>
	<path class="st0" d="M200,73.9v-8.8h6.3v1h-5.2v2.7h4.8v1h-4.8v3h5.4v1L200,73.9z"/>
	<path class="st0" d="M207.8,71.1l1.1-0.1c0,0.4,0.2,0.8,0.4,1.1c0.2,0.3,0.5,0.5,0.9,0.7c0.4,0.2,0.9,0.3,1.3,0.3
		c0.4,0,0.8-0.1,1.2-0.2c0.3-0.1,0.6-0.3,0.8-0.5c0.2-0.2,0.3-0.5,0.3-0.7c0-0.3-0.1-0.5-0.2-0.7c-0.2-0.2-0.5-0.4-0.8-0.5
		c-0.5-0.2-1-0.3-1.6-0.4c-0.6-0.1-1.2-0.3-1.7-0.6c-0.4-0.2-0.7-0.5-0.9-0.8c-0.2-0.3-0.3-0.7-0.3-1.1c0-0.4,0.1-0.9,0.4-1.2
		c0.3-0.4,0.7-0.7,1.1-0.9c0.5-0.2,1.1-0.3,1.6-0.3c0.6,0,1.2,0.1,1.7,0.3c0.5,0.2,0.9,0.5,1.1,0.9c0.3,0.4,0.4,0.9,0.4,1.4
		l-1.1,0.1c0-0.5-0.3-0.9-0.7-1.3c-0.4-0.3-1-0.5-1.5-0.4c-0.5,0-1.1,0.1-1.5,0.4c-0.3,0.2-0.5,0.6-0.5,0.9c0,0.3,0.1,0.6,0.3,0.8
		c0.5,0.3,1.1,0.5,1.7,0.6c0.7,0.1,1.3,0.3,1.9,0.6c0.5,0.2,0.8,0.5,1.1,0.9c0.2,0.4,0.4,0.8,0.4,1.2c0,0.5-0.1,0.9-0.4,1.3
		c-0.3,0.4-0.7,0.8-1.2,1c-0.5,0.2-1.1,0.4-1.7,0.3c-0.7,0-1.4-0.1-2-0.3c-0.5-0.2-1-0.6-1.3-1C207.9,72.2,207.7,71.7,207.8,71.1z"
		/>
	<path class="st0" d="M216,69.7c-0.1-1.2,0.3-2.5,1.2-3.4c0.8-0.8,1.9-1.3,3.1-1.2c0.8,0,1.5,0.2,2.2,0.6c0.6,0.4,1.2,0.9,1.5,1.6
		c0.4,0.7,0.5,1.5,0.5,2.4c0,0.8-0.2,1.6-0.5,2.4c-0.3,0.7-0.9,1.2-1.5,1.6c-0.7,0.4-1.4,0.5-2.1,0.5c-0.8,0-1.5-0.2-2.2-0.6
		c-0.6-0.4-1.2-1-1.5-1.6C216.1,71.2,216,70.4,216,69.7z M217.2,69.7c-0.1,0.9,0.3,1.8,0.8,2.5c1.1,1.2,3,1.2,4.2,0.1
		c0,0,0.1-0.1,0.1-0.1c0.6-0.7,0.9-1.7,0.9-2.6c0-0.6-0.1-1.3-0.4-1.9c-0.2-0.5-0.6-0.9-1-1.2c-0.5-0.3-1-0.4-1.6-0.4
		c-0.8,0-1.6,0.3-2.1,0.8C217.4,67.6,217.1,68.6,217.2,69.7L217.2,69.7z"/>
	<path class="st0" d="M225.9,73.9v-8.8h3.9c0.6,0,1.2,0.1,1.8,0.2c0.4,0.2,0.8,0.4,1,0.8c0.2,0.4,0.4,0.9,0.4,1.3
		c0,0.6-0.2,1.1-0.6,1.6c-0.5,0.5-1.2,0.8-1.9,0.8c0.3,0.1,0.5,0.3,0.7,0.4c0.3,0.4,0.6,0.8,0.8,1.2l1.5,2.4h-1.5l-1.1-1.8
		c-0.3-0.5-0.6-0.9-0.8-1.2c-0.2-0.2-0.4-0.4-0.6-0.6c-0.2-0.1-0.3-0.2-0.5-0.2c-0.2,0-0.4,0-0.6,0h-1.3V74L225.9,73.9z M227.1,69
		h2.5c0.4,0,0.8,0,1.2-0.2c0.3-0.1,0.5-0.3,0.7-0.5c0.2-0.2,0.2-0.5,0.2-0.8c0-0.4-0.2-0.8-0.4-1c-0.4-0.3-0.9-0.4-1.4-0.4h-2.8V69z
		"/>
	<path class="st0" d="M236.7,73.9v-7.7h-2.9v-1h6.9v1h-2.9v7.7L236.7,73.9z"/>
	<path d="M69.9,76.4c-2.4-0.7-4.6-1.8-6.6-3.3c-2.2-1.6-4-3.8-5.3-6.3c-1.4-2.6-2.2-5.5-2.4-8.5c-0.5-6.3,2.1-12.4,6.9-16.5
		c1.9-1.6,4.1-2.9,6.4-3.7c2-0.7,4-1,6.1-1.1c1.9,0,3.9,0.2,5.7,0.7c3.6,1.1,6.9,3,9.5,5.7c0.9,1,1.8,2.2,2.5,3.4
		c0.7,1.1,1.3,2.2,1.7,3.4c0.6,1.8,0.9,3.7,1,5.6c0.2,2.2,0,4.4-0.7,6.5c-0.5,1.3-1,2.5-1.7,3.7c-0.5,1.2-1.1,2.3-1.9,3.3
		c-0.7,0.9-1.5,1.7-2.3,2.6c-1.2,1.4-2.7,2.4-4.4,3.1c-2.9,1.2-6.1,1.9-9.3,2C73.4,77,71.6,76.8,69.9,76.4z M76.4,40.8
		c0-0.4-0.3-0.8-0.8-0.9c-0.6-0.1-1.1-0.3-1.5-0.7c-0.5-0.4-1.1-0.6-1.7-0.6c-1.6-0.2-3.1,0.1-4.6,0.8c-0.8,0.4-1.7,0.7-2.5,1.2
		c-0.7,0.4-1.3,0.9-1.9,1.4c-1.8,1.6-3.3,3.5-4.6,5.5c-0.8,1.2-1.4,2.5-1.9,3.8c-0.2,0.7-0.3,1.4-0.4,2c-0.2,0.7-0.3,1.4-0.4,2.1
		c0,0.8,0,1.5,0.1,2.3c0.1,1.4,0.4,2.8,0.8,4.1c0.6,1.9,1.4,3.8,2.4,5.6c0.7,1.4,1.8,2.6,3,3.6c0.4,0.3,1,0.4,1.5,0.3
		c0.6,0,1.3-0.3,1.9,0.1c0.2,0.2,0.4,0.4,0.5,0.6c0.2,0.3,0.4,0.6,0.6,0.9c0.2,0.2,0.5,0.2,0.7,0c0.1-0.1,0.1-0.2,0.1-0.3
		c0.1-0.2,0.2-0.4,0.3-0.4c0.3-0.1,0.6,0.1,0.7,0.4c0.3,0.6,0.3,0.6,0.7,0.2c0.4-0.4,1.1-0.3,1.7-0.2c0.6,0.1,1.2,0.1,1.8,0.2
		c0.4,0,0.7-0.3,0.8-0.6c0.1-0.2,0.1-0.4,0.1-0.7c0.1-0.6,0.6-1.1,1.2-1c0.3-0.1,0.6-0.4,0.5-0.7c0-0.1,0-0.1-0.1-0.2
		c0-0.1-0.1-0.2-0.1-0.3c-0.2-0.5,0.1-0.8,0.3-1.1c0.3-0.4,0.7-0.6,1.1-0.6c0.3-0.1,0.6,0,0.7,0.2c0.2,0.2,0.3,0.4,0.5,0.5
		c0.4,0.4,0.9,0.3,1.1-0.3c0-0.1,0.1-0.3,0.1-0.4c0.3-0.5,0.8-0.7,1.3-0.6l0,0c0.4,0.5,1.1,0.7,1.7,0.5c0.6-0.1,1-0.6,1.1-1.2
		c0.2-0.6-0.1-1.3-0.7-1.7l-0.2-0.1c0.2-0.3,0.5-0.5,0.7-0.7c0.6-0.4,0.7-1.3,0.3-1.8c-0.1-0.1-0.1-0.1-0.2-0.2
		c-0.3-0.4-0.5-1-0.5-1.5c0-0.7,0.3-1.4,0.7-2c0.4-0.7,0.4-1.6,0.1-2.3c-0.2-0.3-0.4-0.6-0.6-0.9c-0.2-0.3-0.3-0.5-0.5-0.8
		c-0.2-0.4-0.2-0.8-0.1-1.2c0.3-0.8,0.7-1.6,1.1-2.4c0.2-0.3,0.1-0.8-0.2-1c-0.1-0.1-0.2-0.1-0.4-0.1c-0.1,0-0.2,0-0.2,0.1l-1.1,0.7
		c-0.1,0.1-0.2,0.2-0.3,0.2c-0.2,0.1-0.4,0.1-0.7,0.2c-0.3,0-0.3-0.3-0.4-0.5c-0.1-0.2-0.2-0.4-0.3-0.7c-0.1-0.3,0-0.6,0.2-0.7
		c0.3-0.3,0.5-0.6,0.7-0.9c0.2-0.3,0.2-0.7-0.1-0.9c-0.1-0.1-0.2-0.1-0.3-0.1h-0.3c-0.9,0.1-1.6-0.6-1.7-1.4c0,0,0,0,0,0
		c-0.1-0.3-0.1-0.7-0.1-1h-0.2c-0.8,0.2-1.6-0.4-1.8-1.2c-0.1-0.6,0.1-1.2,0.6-1.5l0.1-0.1c0.5-0.2,1-0.2,1.5,0c0.7,0.4,1,1.3,0.7,2
		c-0.1,0.2-0.2,0.4-0.4,0.5l-0.3,0.2c0.5-0.1,1-0.4,1.2-0.9c0.2-0.6,0.1-1.2-0.3-1.7c-0.5-0.7-1.5-0.8-2.2-0.3
		c-0.1,0.1-0.1,0.1-0.2,0.2C76.8,41.6,76.4,41.2,76.4,40.8z M85.6,72.7c3.8-2.4,6.4-6.3,7.2-10.7c-0.3,0.6-0.6,1.2-0.8,1.7
		c-0.2,0.3-0.4,0.7-0.5,1C91.4,64.9,91.2,65,91,65c0,0,0,0,0,0c-0.1,0-0.2,0-0.3,0v0.1l0.5,0.1c-1.7,2.8-4,5.2-6.8,7
		c-2.8,1.7-5.9,2.8-9.2,3.1C78.8,75.7,82.5,74.8,85.6,72.7L85.6,72.7z M75.9,38.9c3.2,0.3,6.3,1.2,9.1,2.6
		C82.7,39.1,79.2,38.1,75.9,38.9z M86.4,57c0-0.7-0.5-1.2-1.1-1.3c0,0-0.1,0-0.1,0c0.5,0.2,0.8,0.7,0.8,1.2c0,0.5-0.2,1-0.7,1.3
		C86,58.3,86.5,57.7,86.4,57C86.5,57.1,86.5,57,86.4,57L86.4,57z M88.8,62.5c0.2-0.6-0.1-1.2-0.7-1.4c0,0-0.1,0-0.1,0
		c0.4,0.3,0.5,0.9,0.4,1.4c-0.1,0.5-0.5,0.9-1.1,1C88,63.6,88.6,63.2,88.8,62.5L88.8,62.5z M90.9,49.2c0.3-0.1,0.5-0.3,0.6-0.6
		c0.2-0.6,0.1-1.2-0.4-1.6c-0.3-0.3-0.7-0.4-1.1-0.2c0.8,0.1,1.3,0.8,1.3,1.5C91.2,48.7,91.1,49,90.9,49.2L90.9,49.2z M88.8,54.3
		c0-0.6-0.5-1.1-1.2-1.1c0,0,0,0,0,0l0.6,0.4l-0.3,0.2c0.4-0.1,0.5,0.2,0.5,0.4c0.1,0.5,0,0.7-0.4,1.3c0.6-0.1,0.9-0.8,0.8-1.3
		L88.8,54.3z M90.8,59.1c0.4,0.1,0.9-0.4,0.9-1c0.1-0.5-0.2-1.1-0.7-1.2c-0.1,0-0.2,0-0.3,0c0.6,0.4,0.8,1.2,0.5,1.8
		C91.1,58.8,91,58.9,90.8,59.1L90.8,59.1z M84.2,68.9c0.4,0.3,0.9,0.3,1.3-0.1c0,0,0.1-0.1,0.1-0.1c0.4-0.3,0.4-0.8,0.1-1.2
		c0,0,0,0,0-0.1c0.1,0.7-0.4,1.3-1.1,1.4C84.5,68.8,84.4,68.8,84.2,68.9L84.2,68.9z M87.6,43.5c-0.5-0.3-1.1-0.3-1.3,0.2
		c0.3-0.2,0.8-0.2,1.2,0c0.3,0.2,0.5,0.6,0.5,1c0.3-0.4,0.2-1-0.2-1.2C87.7,43.5,87.7,43.5,87.6,43.5L87.6,43.5z M82.1,71.5
		c0.4-0.2,0.6-0.7,0.4-1.2c0,0,0,0,0-0.1c0,0.4-0.2,0.8-0.5,1c-0.4,0.2-0.8,0.2-1.2,0C81,71.7,81.5,71.8,82.1,71.5
		C82,71.5,82,71.5,82.1,71.5z M87.2,48.5c0.4-0.2,0.5-0.6,0.4-1c-0.1-0.5-0.6-0.8-1.1-0.7c-0.1,0-0.1,0-0.2,0.1
		c0.6,0.1,1.1,0.6,1,1.3C87.3,48.2,87.2,48.3,87.2,48.5L87.2,48.5z M73.8,73.7L73.8,73.7c0,0.2,0.2,0.4,0.3,0.5
		c0.4,0.2,0.8,0.2,1.2,0c0.3-0.1,0.4-0.4,0.4-0.8C75.1,74.3,74.5,74.3,73.8,73.7z M90.5,52.4c0.4-0.1,0.7-0.6,0.5-1c0,0,0,0,0,0
		c0-0.5-0.4-0.8-0.9-0.8c0,0,0,0-0.1,0c0.6,0.2,0.9,0.8,0.7,1.4C90.7,52.2,90.6,52.3,90.5,52.4z M78.4,71.6c0.5-0.1,0.8-0.5,0.7-1
		c0,0,0,0,0,0c-0.1,0.4-0.4,0.6-0.8,0.7c-0.4,0.1-0.7,0-1-0.2C77.5,71.5,77.9,71.7,78.4,71.6C78.3,71.6,78.4,71.6,78.4,71.6z
		 M79.1,40.8c0.1,0.1,0.2,0.2,0.3,0.2c0.1,0,0.2-0.1,0.3-0.1c-0.1-0.1-0.1-0.2-0.2-0.3c-0.2-0.1-0.3-0.1-0.5-0.2
		C79.1,40.6,79,40.7,79.1,40.8L79.1,40.8z M93.5,54.3c-0.3-0.2-0.7-0.2-0.9,0.1c0,0-0.1,0.1-0.1,0.1C92.8,54.6,93.2,54.5,93.5,54.3z
		 M85.7,52.8c-0.3-0.2-0.7-0.2-1,0v0.1L85.7,52.8z M72.1,74.5c-0.3-0.2-0.9-0.2-1,0H72.1z M89.9,54.4c0.3,0.3,0.7,0.3,1,0H89.9z
		 M87.6,67c0.4,0.1,0.8,0.1,1.1,0v-0.1L87.6,67z M85.7,69.7l-0.8,0.1C85.1,70.1,85.3,70.1,85.7,69.7z M87.3,64.9
		c0.1,0.3,0.2,0.3,0.8,0H87.3z M83.3,45.2L82.5,45C82.5,45.3,82.8,45.4,83.3,45.2z M83,47.1c0.2,0.2,0.5,0.2,0.7,0.1v-0.1H83z
		 M93.8,53.5v-0.1l-0.7-0.1v0.1L93.8,53.5z M87.3,56.6v0.1l0.6,0.1C87.6,56.5,87.4,56.6,87.3,56.6L87.3,56.6z M92.3,52.5v-0.1
		l-0.6,0.1v0.1C91.9,52.6,92.1,52.6,92.3,52.5z"/>
	<path class="st1" d="M81.8,67.3c0.7,0,1.4-0.5,1.4-1.3c0.1-0.8-0.5-1.6-1.3-1.7c-0.7-0.1-1.4,0.3-1.6,1c-0.2,0.6-0.1,1.2,0.3,1.7
		c-0.5-0.1-1,0.2-1.3,0.6c-0.1,0.1-0.1,0.3-0.1,0.4c-0.2,0.6-0.7,0.8-1.1,0.3c-0.2-0.2-0.3-0.3-0.5-0.5c-0.2-0.2-0.5-0.3-0.7-0.2
		c-0.4,0-0.8,0.3-1.1,0.6c-0.2,0.3-0.6,0.7-0.3,1.1c0,0.1,0.1,0.2,0.1,0.3c0.2,0.3,0.1,0.7-0.2,0.9c-0.1,0-0.1,0.1-0.2,0.1
		c-0.6,0-1.1,0.4-1.2,1c-0.1,0.2-0.1,0.4-0.1,0.7c-0.1,0.4-0.4,0.6-0.8,0.6c-0.6,0-1.2-0.1-1.8-0.2c-0.6-0.1-1.2-0.3-1.7,0.2
		c-0.5,0.5-0.5,0.3-0.7-0.2c-0.1-0.3-0.4-0.4-0.7-0.4c-0.1,0-0.3,0.3-0.3,0.4c0,0.3-0.3,0.5-0.6,0.4c-0.1,0-0.2-0.1-0.3-0.1
		c-0.2-0.3-0.4-0.6-0.6-0.9c-0.1-0.2-0.3-0.5-0.5-0.6c-0.6-0.4-1.3-0.1-1.9-0.1c-0.5,0.1-1.1-0.1-1.5-0.3c-1.2-1-2.3-2.2-3-3.7
		c-0.9-1.8-1.7-3.7-2.4-5.6c-0.5-1.3-0.8-2.7-0.8-4.1c-0.1-0.8-0.1-1.5-0.1-2.3c0.1-0.7,0.2-1.4,0.4-2.1c0.1-0.7,0.2-1.4,0.4-2
		c0.5-1.3,1.1-2.6,1.9-3.8c1.3-2,2.8-3.9,4.6-5.5c0.6-0.5,1.2-1,1.9-1.4c0.8-0.4,1.7-0.8,2.5-1.2c1.4-0.7,3-1,4.6-0.8
		c0.6,0,1.2,0.2,1.7,0.6c0.4,0.4,1,0.6,1.5,0.7c0.4,0.1,0.7,0.4,0.8,0.8c0,0.5,0.3,0.8,0.8,0.9l0,0l-0.1,0.1
		c-0.7,0.5-0.8,1.4-0.4,2.1c0.3,0.5,0.9,0.7,1.5,0.6h0.2c0,0.3,0.1,0.7,0.1,1c0.1,0.9,0.8,1.5,1.7,1.5c0,0,0,0,0,0h0.3
		c0.3,0,0.6,0.3,0.6,0.7c0,0.1-0.1,0.2-0.1,0.3c-0.2,0.3-0.4,0.6-0.7,0.9c-0.2,0.2-0.3,0.5-0.2,0.7c0.1,0.2,0.2,0.5,0.3,0.7
		c0.1,0.2,0.1,0.5,0.4,0.5c0.2,0,0.5-0.1,0.7-0.2c0.1-0.1,0.2-0.1,0.3-0.2l1.1-0.7c0.1,0,0.2-0.1,0.2-0.1c0.4,0,0.7,0.3,0.7,0.7
		c0,0.1,0,0.3-0.1,0.4c-0.4,0.8-0.7,1.6-1.1,2.4c-0.2,0.4-0.1,0.8,0.1,1.2c0.2,0.3,0.3,0.5,0.5,0.8c0.2,0.3,0.4,0.6,0.6,0.9
		c0.3,0.7,0.3,1.6-0.1,2.3c-0.4,0.6-0.6,1.2-0.7,1.9c-0.1,0.5,0.1,1.1,0.4,1.5c0.5,0.5,0.6,1.3,0.1,1.9c-0.1,0.1-0.1,0.1-0.2,0.2
		c-0.2,0.2-0.5,0.5-0.7,0.7l0.2,0.2c0.6,0.4,0.8,1,0.7,1.7c-0.1,0.6-0.5,1.1-1.1,1.2c-0.6,0.2-1.3,0-1.7-0.5
		C81.1,67.1,81.5,67.2,81.8,67.3z M68,47.4c0.9,0,1.7-0.7,1.8-1.7c0-1-0.7-1.8-1.7-1.8s-1.8,0.7-1.8,1.7
		C66.2,46.5,66.9,47.4,68,47.4C67.9,47.4,68,47.4,68,47.4z M60.7,59.2c0-0.7-0.6-1.3-1.3-1.3c0,0,0,0,0,0c-0.7,0-1.3,0.5-1.3,1.2
		c0,0.6,0.7,1.4,1.3,1.3C60.1,60.4,60.7,59.9,60.7,59.2z M64.3,69.6c0.4,0,0.8,0,1.2,0c0.1,0,0.3,0.1,0.4,0.2l0.3,0.2
		c0.1-0.1,0.1-0.2,0.1-0.4c-0.1-0.3-0.2-0.5-0.5-0.7c-0.7-0.4-1.5-0.4-2.1,0c-0.2,0.2-0.3,0.4-0.4,0.6c-0.1,0.2,0,0.5,0.2,0.6
		c0,0,0,0,0.1,0C63.6,69.8,63.9,69.6,64.3,69.6z M70.1,43.7c-0.5-0.8-1.5-1.1-2.4-0.9c-0.6,0.1-1.2,0.6-1.4,1.2
		c0.6-0.7,1.7-1,2.6-0.5c0.9,0.4,1.4,1.4,1.2,2.4C70.7,45.2,70.6,44.3,70.1,43.7L70.1,43.7z M61.6,49.7c0.4,0,0.8-0.4,0.8-0.8
		c-0.1-0.5-0.4-0.8-0.9-0.8c-0.5,0-0.8,0.4-0.8,0.8C60.8,49.4,61.2,49.7,61.6,49.7z M81.8,62.1c-0.4-0.4-0.6-1-0.5-1.6
		c0.1-0.3,0.2-0.5,0.4-0.7c0.1-0.1,0.2-0.2,0.3-0.3c-0.3-0.1-0.7,0-0.9,0.3c-0.6,0.9-0.4,2.1,0.5,2.7c0.2,0.1,0.4,0.1,0.5,0.2
		l0.1-0.1C82.1,62.4,81.9,62.2,81.8,62.1z M70.2,71c0,0.1,0,0.3,0.1,0.4c0.1,0,0.2-0.1,0.3-0.1c0.1,0,0.1-0.1,0.2-0.2
		c0.2-0.3,0.6-0.5,1-0.6c0.2,0,0.3-0.1,0.4-0.2c-0.1-0.1-0.3-0.2-0.4-0.3c-0.1,0-0.2-0.1-0.4-0.1C70.9,69.9,70.4,70.4,70.2,71z
		 M80.9,55.7c0,0.4,0.3,0.7,0.7,0.7c0.4,0,0.7-0.3,0.7-0.7c0-0.3-0.3-0.6-0.6-0.6c0,0,0,0,0,0C81.3,55,81,55.3,80.9,55.7z
		 M74.6,64.4c0.1,0,0.3-0.1,0.3-0.2c0.2-0.2,0.3-0.4,0.4-0.5c0.1-0.1,0.2-0.3,0.1-0.4c0,0-0.1-0.1-0.1-0.1c-0.2-0.2-0.6-0.2-0.8-0.1
		c-0.3,0.1-0.4,0.4-0.5,0.6C74,64,74.4,64.4,74.6,64.4z M72.6,41.7c0.3,0.6,0.8,0.8,1.2,0.6c-0.1-0.1-0.2-0.2-0.3-0.3
		c-0.7-0.3-1-1.1-0.8-1.8c0-0.1,0-0.1,0-0.2C72.2,40.4,72.2,41.2,72.6,41.7L72.6,41.7z M78.8,64.8c0.3,0,0.6-0.3,0.5-0.6
		c0-0.3-0.3-0.6-0.6-0.5c-0.3,0-0.5,0.3-0.5,0.6c0,0,0,0,0,0C78.3,64.5,78.5,64.8,78.8,64.8L78.8,64.8z M76.6,48.8
		c-0.6-0.2-1-0.9-0.8-1.6c0-0.1,0-0.1,0.1-0.2c0,0,0-0.1,0-0.1c-0.3,0-0.4,0.3-0.5,0.5c-0.1,0.5,0.1,1.1,0.5,1.4
		c0.3,0.3,0.7,0.4,1,0.2C76.8,49,76.7,48.9,76.6,48.8z M72.4,44.9c0.1,0.2,0.2,0.5,0.4,0.7c0.2,0.2,0.4,0.1,0.6-0.2
		c-0.8-0.4-0.7-1-0.4-1.7C72.5,43.9,72.2,44.4,72.4,44.9L72.4,44.9z M66.5,67.1c0,0.3,0.2,0.5,0.5,0.5c0.3,0,0.5-0.2,0.5-0.5
		c0-0.3-0.2-0.5-0.5-0.6C66.8,66.6,66.5,66.8,66.5,67.1z M75.9,45.9c0.2,0,0.4-0.2,0.5-0.4c0-0.3-0.3-0.5-0.5-0.5
		c-0.2,0-0.4,0.2-0.4,0.5C75.4,45.7,75.6,45.9,75.9,45.9C75.8,45.9,75.8,45.9,75.9,45.9z M61.5,56c0.2,0,0.4-0.2,0.4-0.5
		c0-0.3-0.2-0.5-0.5-0.5c-0.3,0-0.5,0.2-0.5,0.5c0,0,0,0,0,0C60.9,55.8,61.2,56,61.5,56z M67.3,71.1c0,0.1,0,0.3,0,0.4
		c0,0.1,0.1,0.1,0.2,0.1c0.2-0.1,0.4-0.1,0.6-0.3c0,0,0-0.3-0.1-0.4c-0.1-0.1-0.2-0.1-0.4-0.2C67.6,70.9,67.4,71,67.3,71.1z
		 M61.9,68.5c0.1,0,0.3-0.2,0.3-0.3c0-0.1-0.2-0.3-0.3-0.3s-0.3,0.1-0.4,0.2v0.1C61.6,68.3,61.8,68.5,61.9,68.5z"/>
	<path class="st1" d="M75.2,75.3c3.7,0.4,7.4-0.5,10.4-2.5c3.8-2.4,6.4-6.3,7.2-10.7c-0.3,0.6-0.6,1.2-0.8,1.7
		c-0.2,0.3-0.4,0.7-0.5,1C91.4,64.9,91.2,65,91,65c0,0,0,0,0,0c-0.1,0-0.2,0-0.3,0v0.1l0.5,0.1c-1.7,2.8-4,5.2-6.8,7
		C81.6,73.8,78.4,74.9,75.2,75.3z"/>
	<path d="M80.7,67c-0.4-0.4-0.5-1.1-0.3-1.7c0.3-0.8,1.1-1.2,1.9-0.9c0.7,0.2,1.1,0.9,1,1.6c-0.1,0.7-0.7,1.3-1.4,1.3
		C81.5,67.2,81.1,67.1,80.7,67L80.7,67z M81.7,65.2c-0.4-0.3-0.5-0.3-0.8,0H81.7z"/>
	<path class="st1" d="M85,41.5c-2.3-2.5-5.8-3.5-9.1-2.6C79.1,39.2,82.2,40.1,85,41.5z"/>
	<path class="st1" d="M77.2,41.7c0.5-0.2,1-0.2,1.5,0c0.7,0.4,1,1.3,0.7,2c-0.1,0.2-0.2,0.4-0.4,0.5l-0.3,0.2c0.5-0.1,1-0.4,1.2-0.9
		c0.2-0.6,0.1-1.2-0.3-1.7c-0.5-0.7-1.5-0.8-2.2-0.3C77.3,41.5,77.2,41.6,77.2,41.7L77.2,41.7z"/>
	<path class="st1" d="M85.4,58.2c0.6,0,1.1-0.6,1.1-1.2c0,0,0-0.1,0-0.1c0-0.7-0.5-1.2-1.1-1.3c0,0-0.1,0-0.1,0
		c0.5,0.2,0.8,0.7,0.8,1.2C86.1,57.5,85.9,58,85.4,58.2z"/>
	<path class="st1" d="M87.4,63.4c0.6,0.2,1.2-0.2,1.5-0.9c0.2-0.6-0.1-1.2-0.7-1.4c0,0-0.1,0-0.1,0c0.4,0.3,0.5,0.9,0.4,1.4
		C88.3,62.9,87.9,63.3,87.4,63.4z"/>
	<path class="st1" d="M90,46.9c0.8,0.1,1.3,0.8,1.2,1.6c0,0.3-0.1,0.5-0.3,0.7c0.3-0.1,0.5-0.3,0.6-0.6c0.2-0.6,0-1.2-0.4-1.5
		C90.8,46.8,90.3,46.7,90,46.9z"/>
	<path class="st1" d="M88,55.6c0.6-0.1,0.9-0.8,0.8-1.3c0-0.6-0.6-1.1-1.2-1.1c0,0,0,0,0,0l0.6,0.4l-0.3,0.2
		c0.4-0.1,0.5,0.2,0.5,0.4C88.6,54.7,88.5,54.9,88,55.6z"/>
	<path class="st1" d="M90.7,56.8c0.6,0.3,0.9,1.1,0.5,1.8c-0.1,0.2-0.3,0.4-0.4,0.5c0.4,0.1,0.9-0.4,0.9-1c0.1-0.5-0.2-1.1-0.7-1.2
		C90.9,56.8,90.8,56.8,90.7,56.8z"/>
	<path class="st1" d="M85.7,67.4c0.1,0.7-0.3,1.3-1,1.4c-0.1,0-0.3,0-0.4,0c0.4,0.3,0.9,0.3,1.3-0.1c0,0,0.1-0.1,0.1-0.1
		C86,68.4,86,67.8,85.7,67.4C85.7,67.4,85.7,67.4,85.7,67.4z"/>
	<path class="st1" d="M88,44.8c0.3-0.4,0.2-1-0.2-1.2c0,0-0.1,0-0.1-0.1c-0.5-0.3-1.1-0.3-1.3,0.2c0.3-0.2,0.8-0.2,1.2,0
		C87.9,43.9,88,44.3,88,44.8z"/>
	<path class="st1" d="M80.7,71.3c0.3,0.4,0.9,0.5,1.3,0.2c0,0,0,0,0.1-0.1c0.4-0.2,0.6-0.7,0.4-1.2c0,0,0,0,0-0.1
		c0,0.4-0.2,0.8-0.5,1C81.5,71.5,81.1,71.5,80.7,71.3z"/>
	<path class="st1" d="M86.3,46.7c0.6,0.1,1.1,0.6,1,1.3c0,0.2-0.1,0.3-0.2,0.5c0.4-0.2,0.5-0.6,0.4-1c-0.1-0.5-0.5-0.8-1-0.8
		C86.4,46.7,86.4,46.7,86.3,46.7z"/>
	<path class="st1" d="M75.7,73.5c-0.7,0.8-1.2,0.9-1.9,0.2l-0.1,0.1c0.1,0.2,0.2,0.3,0.4,0.5c0.4,0.2,0.8,0.2,1.2,0
		C75.6,74.1,75.8,73.8,75.7,73.5z"/>
	<path class="st1" d="M90.1,50.7c0.6,0.2,0.9,0.8,0.7,1.4c0,0.1-0.1,0.3-0.2,0.4c0.4-0.1,0.7-0.6,0.5-1c0,0,0,0,0,0
		C91,50.9,90.6,50.6,90.1,50.7C90.1,50.7,90.1,50.7,90.1,50.7z"/>
	<path class="st1" d="M77.4,71.1c0.1,0.4,0.5,0.7,1,0.5c0,0,0,0,0.1,0c0.5-0.1,0.8-0.5,0.7-1c0,0,0,0,0,0c-0.1,0.4-0.4,0.6-0.8,0.7
		C78.1,71.4,77.7,71.3,77.4,71.1z"/>
	<path class="st1" d="M79,40.4c0,0.2,0,0.3,0.1,0.4c0.1,0.1,0.2,0.2,0.3,0.2c0.1,0,0.2-0.1,0.3-0.1c-0.1-0.1-0.1-0.2-0.2-0.3
		C79.3,40.5,79.2,40.4,79,40.4z"/>
	<path class="st1" d="M92.5,54.5c0.4,0.1,0.7,0,1-0.2c-0.3-0.2-0.7-0.2-0.9,0.1C92.5,54.5,92.5,54.5,92.5,54.5z"/>
	<path class="st1" d="M84.6,52.9l1-0.1C85.3,52.6,84.9,52.6,84.6,52.9L84.6,52.9z"/>
	<path class="st1" d="M71.1,74.6h1C71.8,74.3,71.2,74.3,71.1,74.6z"/>
	<path class="st1" d="M91,54.4h-1C90.2,54.7,90.7,54.7,91,54.4z"/>
	<path class="st1" d="M88.7,66.9L87.6,67c0.4,0.1,0.8,0.1,1.1,0L88.7,66.9z"/>
	<path class="st1" d="M84.8,69.8c0.2,0.3,0.5,0.2,0.8-0.1L84.8,69.8z"/>
	<path class="st1" d="M88.2,64.9h-0.8C87.4,65.2,87.5,65.2,88.2,64.9z"/>
	<path class="st1" d="M82.5,45c0.1,0.3,0.4,0.3,0.9,0.1L82.5,45z"/>
	<path class="st1" d="M83.7,47.1H83c0.2,0.2,0.5,0.2,0.7,0.1V47.1z"/>
	<path class="st1" d="M93,53.5l0.7,0.1v-0.1L93,53.4V53.5z"/>
	<path class="st1" d="M87.8,56.9c-0.2-0.3-0.4-0.3-0.6-0.2v0.1L87.8,56.9z"/>
	<path class="st1" d="M91.7,52.5c0.2,0.1,0.4,0.1,0.6,0v-0.1L91.7,52.5L91.7,52.5z"/>
	<path d="M66.2,45.7c0,1,0.8,1.7,1.8,1.7c0.9,0,1.7-0.7,1.8-1.7c0-1-0.8-1.8-1.8-1.8C67,43.9,66.2,44.7,66.2,45.7
		C66.2,45.7,66.2,45.7,66.2,45.7L66.2,45.7z"/>
	<path d="M59.4,60.4c0.7,0,1.3-0.5,1.3-1.2c0-0.7-0.6-1.3-1.3-1.3c0,0,0,0,0,0c-0.7,0-1.3,0.5-1.3,1.2
		C58.1,59.7,58.8,60.5,59.4,60.4z"/>
	<path d="M63.4,70.2c0.1-0.4,0.5-0.6,0.9-0.6c0.4,0,0.8,0,1.2,0c0.1,0,0.3,0.1,0.4,0.2l0.3,0.2c0.1-0.1,0.1-0.2,0.1-0.4
		c-0.1-0.3-0.2-0.5-0.5-0.7c-0.7-0.4-1.5-0.4-2.1,0c-0.2,0.2-0.3,0.4-0.4,0.6c-0.1,0.2-0.1,0.5,0.1,0.6
		C63.3,70.2,63.4,70.2,63.4,70.2z"/>
	<path d="M70.2,45.8c0.4-0.7,0.4-1.5-0.1-2.1c-0.5-0.8-1.5-1.1-2.4-0.9c-0.6,0.1-1.2,0.6-1.4,1.2c0.6-0.7,1.7-1,2.6-0.5
		C69.9,43.9,70.4,44.8,70.2,45.8z"/>
	<path d="M60.6,48.9c0.1,0.5,0.5,0.8,1,0.8c0.4,0,0.8-0.4,0.8-0.8c-0.1-0.5-0.4-0.8-0.9-0.8C61,48.1,60.6,48.4,60.6,48.9z"/>
	<path d="M82.1,62.6c-0.1-0.2-0.2-0.3-0.4-0.5c-0.4-0.4-0.6-1-0.5-1.6c0.1-0.3,0.2-0.5,0.4-0.7c0.1-0.1,0.2-0.2,0.3-0.3
		c-0.3-0.1-0.7,0-0.9,0.3c-0.6,0.9-0.4,2.1,0.5,2.7c0.2,0.1,0.4,0.1,0.5,0.2L82.1,62.6z"/>
	<path d="M71.6,69.9c-0.6,0-1.2,0.4-1.3,1.1c0,0.1,0,0.3,0.1,0.4c0.1,0,0.2-0.1,0.3-0.1c0.1,0,0.1-0.1,0.2-0.2
		c0.2-0.3,0.6-0.5,1-0.6c0.2,0,0.3-0.1,0.4-0.2c-0.1-0.1-0.3-0.2-0.4-0.3C71.8,69.9,71.7,69.9,71.6,69.9z"/>
	<path d="M81.6,55c-0.4,0-0.7,0.3-0.7,0.7c0,0.4,0.3,0.7,0.7,0.7s0.7-0.3,0.7-0.7C82.3,55.3,82,55,81.6,55C81.7,55,81.6,55,81.6,55z
		"/>
	<path d="M74,63.7c0,0.3,0.3,0.7,0.6,0.7c0.1,0,0.3-0.1,0.3-0.2c0.2-0.2,0.3-0.4,0.4-0.5c0.1-0.1,0.2-0.3,0.1-0.4
		c0,0-0.1-0.1-0.1-0.1c-0.2-0.2-0.6-0.2-0.8-0.1C74.3,63.2,74.1,63.4,74,63.7z"/>
	<path d="M72.7,39.9c-0.5,0.4-0.5,1.2-0.1,1.7c0.3,0.6,0.8,0.8,1.2,0.6c-0.1-0.1-0.2-0.2-0.3-0.3c-0.7-0.3-1-1.1-0.8-1.8
		C72.7,40,72.7,40,72.7,39.9z"/>
	<path d="M78.3,64.2c0,0.4,0.2,0.6,0.6,0.6c0.3,0,0.6-0.3,0.5-0.6c0-0.3-0.3-0.6-0.6-0.5C78.5,63.6,78.2,63.8,78.3,64.2
		C78.3,64.1,78.3,64.1,78.3,64.2z"/>
	<path d="M76.9,49.1c-0.1-0.1-0.2-0.2-0.3-0.3c-0.6-0.2-1-0.9-0.8-1.6c0-0.1,0.1-0.2,0.1-0.2c0,0,0-0.1,0-0.1
		c-0.3,0-0.4,0.3-0.5,0.5c-0.1,0.5,0.1,1.1,0.5,1.4C76.1,49.2,76.5,49.3,76.9,49.1z"/>
	<path d="M73,43.7c-0.5,0.2-0.8,0.7-0.6,1.2c0.1,0.2,0.2,0.5,0.4,0.7c0.2,0.2,0.4,0.1,0.6-0.2C72.6,45,72.7,44.4,73,43.7z"/>
	<path d="M67,66.6c-0.3,0-0.5,0.3-0.5,0.5c0,0.3,0.2,0.5,0.5,0.5c0.3,0,0.5-0.2,0.5-0.5C67.6,66.9,67.3,66.6,67,66.6z"/>
	<path d="M75.4,45.4c0,0.2,0.2,0.4,0.5,0.4c0,0,0,0,0,0c0.2,0,0.4-0.2,0.5-0.4c0-0.3-0.3-0.5-0.5-0.5C75.5,45,75.4,45.2,75.4,45.4z"
		/>
	<path d="M60.9,55.5c0,0.3,0.3,0.5,0.5,0.5c0.2,0,0.4-0.2,0.4-0.5c0-0.3-0.2-0.5-0.5-0.5C61.1,55.1,60.9,55.3,60.9,55.5
		C60.9,55.5,60.9,55.5,60.9,55.5z"/>
	<path d="M67.8,70.8c-0.1,0.1-0.3,0.2-0.4,0.3c0,0.1,0,0.3,0,0.4c0,0.1,0.1,0.1,0.2,0.1c0.2-0.1,0.4-0.1,0.6-0.3c0,0,0-0.3-0.1-0.4
		C68.1,71,67.9,70.9,67.8,70.8z"/>
	<path d="M61.5,68.3c0.1,0.1,0.3,0.3,0.4,0.3c0.1,0,0.3-0.2,0.3-0.3c0-0.1-0.2-0.3-0.3-0.3s-0.3,0.1-0.4,0.2V68.3z"/>
	<path class="st1" d="M81,65.2h0.8C81.4,64.9,81.2,64.9,81,65.2z"/>
	<path d="M51.7,38.2c1.3,0.4,2.3,0.6,3.3,1c1.3,0.6,2.9,0.2,3.8-0.9c3.2-3.1,6.7-5.8,11.1-6.9c5-1.3,9.6-0.5,13.5,3.1
		c0.8,0.8,1.7,1.5,2.6,2.2c0.5,0.4,1.1,0.7,1.7,0.9c1,0.3,1.4-0.1,1.3-1.1c-0.1-1.8-0.6-3.6-1.5-5.1c-1.8-2.9-0.3-8.3,2.3-10.1
		c2.3-1.6,6.1-1,8,1.5c0.5,0.6,0.9,1.3,1.2,2c0.7,1.9,2.3,3.5,4.3,4.2c0.8,0.4,1.6,0.8,2.3,1.3c0.2,0.2,0.2,0.6,0.3,0.9
		c-0.3,0.1-0.6,0.3-0.9,0.2c-1.1-0.3-2.2-0.6-3.2-0.9c-1.8-0.7-3.8-0.9-5.7-0.6c-1.7,0.4-2.3,1.2-2.1,3c0.1,1.8,0.7,3.6,1.7,5.1
		c0.8,1.2,1.1,2.7,0.7,4.1c-0.4,2.2-1.3,4.3-2.7,6c-0.5,0.7-1.4,1.1-2.2,1c-0.4,0-0.9,0-1.3-0.1c-2.7-0.5-5.5-0.5-8.2,0.1
		c-4.2,0.7-8.4,0.9-12.6,0.7c-2.1-0.1-4.2-0.1-6.3-0.4c-4.2-0.5-6.9-3.2-9.2-6.5c-0.6-0.8-1.2-1.7-1.6-2.6
		C52,39.6,51.8,38.9,51.7,38.2z"/>
	<path class="st1" d="M73.7,50.1c-1.4,0-2.7,0-4.2-0.1c-2.2-0.1-4.3-0.1-6.4-0.4c-4.6-0.5-7.3-3.6-9.4-6.6c-0.6-0.8-1.2-1.7-1.7-2.6
		c-0.2-0.4-0.3-0.9-0.4-1.4c-0.1-0.3-0.1-0.5-0.2-0.8l-0.1-0.4l0.4,0.1l1.2,0.3c0.8,0.2,1.4,0.4,2,0.6c1.2,0.5,2.7,0.2,3.6-0.8
		c3.8-3.8,7.3-6,11.2-7c5.3-1.4,9.9-0.3,13.8,3.2c0.8,0.8,1.7,1.5,2.6,2.2c0.5,0.4,1,0.7,1.6,0.8c0.2,0.1,0.5,0.1,0.8,0
		c0.2-0.1,0.2-0.4,0.2-0.9c0-1.8-0.6-3.5-1.5-5c-1.9-3.1-0.3-8.6,2.3-10.5c2.4-1.7,6.3-1,8.4,1.6c0.5,0.6,1,1.3,1.3,2.1
		c0.6,1.8,1.8,3,4.1,4.1c0.8,0.4,1.6,0.8,2.3,1.4c0.2,0.2,0.3,0.5,0.3,0.8c0,0.1,0,0.2,0.1,0.3l0.1,0.3l-0.3,0.1l-0.3,0.1
		c-0.2,0.1-0.5,0.2-0.7,0.1c-1.2-0.3-2.4-0.6-3.3-0.9c-1.8-0.7-3.7-0.9-5.5-0.6c-1.6,0.4-2,1-1.9,2.7c0.1,1.8,0.7,3.5,1.7,5
		c0.9,1.3,1.1,2.9,0.8,4.3c-0.4,2.2-1.4,4.3-2.7,6.1c-0.5,0.8-1.5,1.3-2.5,1.1c-0.2,0-0.4,0-0.5,0c-0.3,0-0.6,0-0.8-0.1
		c-2.6-0.5-5.4-0.5-8,0.1C79.3,50,76.5,50.2,73.7,50.1z M52.1,38.5l0.1,0.4c0.1,0.4,0.2,0.9,0.4,1.3c0.5,0.9,1,1.8,1.6,2.6
		c2,2.9,4.6,5.9,9,6.4c2,0.2,4.1,0.3,6.3,0.4c4.2,0.3,8.4,0.1,12.5-0.7c2.7-0.6,5.5-0.6,8.2-0.1c0.2,0,0.5,0.1,0.7,0.1
		c0.2,0,0.4,0,0.6,0c0.8,0.1,1.6-0.3,2-0.9c1.3-1.7,2.2-3.8,2.6-5.9c0.3-1.4,0.1-2.8-0.7-3.9c-1-1.6-1.6-3.4-1.7-5.3
		c-0.1-1.9,0.5-2.8,2.3-3.2c2-0.3,4-0.1,5.8,0.6c0.9,0.3,2,0.6,3.2,0.9c0.1,0,0.3,0,0.4-0.1h0.1v-0.1c0-0.2-0.1-0.4-0.1-0.4
		c-0.7-0.5-1.5-0.9-2.3-1.3c-2-0.7-3.6-2.3-4.4-4.3c-0.3-0.7-0.7-1.4-1.2-2c-1.9-2.4-5.5-3.1-7.7-1.5c-2.5,1.8-4,6.9-2.2,9.8
		c0.9,1.6,1.5,3.4,1.5,5.2c0.1,0.5-0.1,1-0.4,1.3c-0.4,0.2-0.8,0.3-1.2,0.1c-0.6-0.2-1.2-0.5-1.8-0.9c-0.9-0.7-1.7-1.4-2.6-2.2
		c-3.7-3.4-8.2-4.4-13.3-3.1c-3.7,1-7.2,3.2-10.9,6.9c-1,1.2-2.7,1.5-4.1,0.9c-0.6-0.2-1.3-0.4-2-0.6L52.1,38.5z"/>
	<path d="M118.3,77.2c-0.3,0-0.5,0-0.8,0c-0.7-0.1-1.5-0.2-2.2-0.3c-0.6-0.1-1.2-0.2-1.7-0.4c-1.4-0.6-2.7-1.4-3.8-2.3
		c-0.5-0.4-1.1-0.6-1.7-0.6c-0.5,0-0.9-0.1-1.3-0.3c-0.9-0.5-1.8-1-2.6-1.6c-0.9-0.6-1.9-1.3-2.8-1.9c-0.1-0.1-0.3-0.2-0.4-0.2
		c-0.6,0-1.1,0-1.7,0c-0.2,0-0.4,0-0.6-0.2c-0.5-0.7-1.1-1.4-1.7-2c-0.7-0.9-1.5-1.8-2.4-2.5c-0.3-0.3-0.9-0.4-1.3-0.2
		c-0.1,0.1-0.3,0.1-0.5,0.2c-1.5,0.8-2.9,1.5-4.4,2.3c-1.4,0.8-2.7,1.5-4,2.3l-2.2,1.3L80.5,68c-0.5,0.3-0.9,0.6-1.4,1
		c-0.6,0.5-1.3,0.8-2,0.9c-0.1,0-0.3,0-0.4-0.2c-0.3-0.5-0.7-0.9-1-1.4c-0.5-0.7-1.1-1.4-1.9-1.9c-0.4-0.2-0.7-0.3-1,0.1
		c-0.6,0.6-1.1,1.2-1.6,1.9c-0.3,0.4-0.6,0.7-1.1,0.9c-0.9,0.4-1.9,0.6-2.8,0.5c-0.3,0-0.7-0.2-0.9-0.4c-0.4-0.5-1-1-1.6-1.3
		c-0.4-0.2-0.8-0.2-1.2,0c-1,0.6-2,1.1-3.1,1.7c-0.7-0.6-1.5-1.3-2.2-1.9c-0.4-0.4-1-0.4-1.4,0l-0.7,0.5c-0.1,0.1-0.2,0.1-0.3-0.1
		c-0.6-0.9-1.2-1.8-1.8-2.7c-0.5-0.7-0.9-1.5-1.5-2.2c-0.3-0.5-1-0.7-1.6-0.4c-0.1,0.1-0.2,0.1-0.3,0.2c-0.8,0.7-1.5,1.4-2.2,2
		c-0.3,0.4-0.7,0.7-1,1c-2.1,1.4-4.1,3-5.8,4.8c-0.8,1-1.8,1.8-2.8,2.5c-0.4,0.2-0.7,0.4-1.1,0.6c-0.2,0.1-0.5,0.2-0.7,0.4
		c-0.6,0.5-1.2,1-1.8,1.5c-0.2,0.2-0.5,0.4-0.7,0.6c-0.6,0.4-1.4,0.6-2.1,0.6c-1.1-0.1-2.2,0-3.3,0v0.2c0.8,0.2,1.5,0.5,2.3,0.7
		c1.4,0.4,2.8,0.6,4.2,0.5c0.9-0.1,1.8-0.1,2.7-0.2c0.4,0,0.9,0,1.3,0.1c0.4,0.1,0.8,0.2,1.2,0.2c1.5,0.1,2.9,0.2,4.4,0.2
		c2.6,0.1,5.1,0.1,7.7,0.2c1.6,0.1,3.3,0.1,4.9,0.3c1.6,0.2,3,0.2,4.5,0.3c1.5,0,2.7,0.1,4.1,0.1l1.2,0.1c0.1-0.4,0.3-0.7,0.7-0.8
		c0.3-0.1,0.5-0.2,0.8-0.2c0.8-0.1,1.5-0.1,2.3-0.2c0.4,0,0.8-0.2,1-0.5c0.1-0.2,0.3-0.3,0.5-0.3c0.3,0,0.6-0.1,0.8-0.1h2.8
		c3.4,0,6.7,0,10.1,0.3c1.1,0,2.3,0.2,3.3,0.5c1.5,0.5,3,0.7,4.6,0.8c1.5,0.1,3-0.1,4.4-0.7c1.2-0.6,2.5-0.9,3.8-0.8
		c1.5,0.1,3.1,0.3,4.6,0.4c1.5,0.1,3,0.2,4.5,0.3c2.8,0,5.7-0.3,8.5-0.8c0.6-0.1,1.1-0.2,1.7-0.2v-0.3L118.3,77.2z M47.4,66.7
		c0.6-0.5,1.2-1.1,1.7-1.7c0.6-0.6,1.1-1.1,1.8-1.6c0.3-0.4,0.9-0.5,1.3-0.1c0,0,0,0,0.1,0.1c0.1,0.1,0.1,0.1,0.1,0.2
		c-0.1,0.7-0.2,1.4-0.3,2.2c-0.2,0.9-0.8,1.6-1.6,2c-0.4,0.3-0.9,0.5-1.3,0.8c-0.3,0.2-0.6,0.5-0.6,0.9c-0.1,0.2-0.2,0.4-0.3,0.5
		c-0.5,0.5-1,1-1.6,1.3c-0.2,0.1-0.4,0.1-0.6,0c-0.5-0.2-1.1-0.3-1.7-0.2c-0.1,0-0.3,0.1-0.4,0.2c-0.4,0.3-0.9,0.6-1.4,0.7l-1.5,0.5
		C42.7,70.2,44.9,68.3,47.4,66.7z M53,71.3c-0.4,0.1-0.7,0.2-1,0.4c-0.1,0.1-0.3,0.1-0.5,0.1c-0.6-0.2-1.2-0.2-1.8-0.1
		c-0.2,0-0.4,0.1-0.5,0.3c-0.8,0.9-1.6,1.8-2.2,2.9c0,0,0,0.1,0,0.1c0.5-0.3,0.9-0.5,1.4-0.7c0.4-0.2,0.8-0.3,1.2-0.5
		c0.2-0.1,0.5-0.1,0.6,0.1c0.1,0.2-0.1,0.4-0.3,0.6c-0.2,0.1-0.3,0.2-0.5,0.3c-0.2,0.1-0.2,0.4-0.1,0.6c0,0,0,0,0,0.1
		c0.2,0.3,0.5,0.4,0.8,0.4c0.5,0,1,0,1.6,0c-0.5,0.9-1.4,1.4-2.4,1.4c-1.3,0-2.5,0.4-3.6,0.9c-0.4,0.2-0.9,0.2-1.4,0.1
		c-0.5-0.1-0.6-0.5-0.5-1.1c0.2-0.7,0.5-1.4,1-1.9c0.7-0.8,1.3-1.5,2-2.3l-0.4,0.2c-1.4,0.8-2.9,1.6-4.3,2.3
		c-0.2,0.1-0.5,0.2-0.8,0.2c-0.5,0-1,0-1.6,0.1c-0.1,0-0.2,0-0.3,0.1c-0.9,0.4-1.9,0.6-2.8,0.7c-0.1,0-0.2,0-0.3,0.1
		c-0.3,0.1-0.5,0-0.8-0.3c0.4-0.4,0.9-0.8,1.3-1.1c0.4-0.4,0.9-0.6,1.4-0.6c0.3,0,0.6-0.3,0.9-0.4c0.7-0.3,1.4-0.6,2.2-0.9
		c0.3-0.1,0.6-0.1,0.9-0.2c0.4-0.2,0.9-0.3,1.3-0.5c0.5-0.3,1.2-0.5,1.8-0.5c0.9,0,1.8-0.3,2.4-0.9c0.6-0.4,1-0.9,1.4-1.5
		c0.1-0.2,0.3-0.4,0.4-0.5c0.2-0.3,0.5-0.4,0.8-0.5c0.6,0,1.1-0.3,1.4-0.8c0.3-0.4,0.7-0.4,1,0c0.2,0.4,0.4,0.8,0.5,1.2
		c0,0.5,0.2,1.1,0.4,1.6l0.4,0.5C53.6,71.2,53.3,71.2,53,71.3L53,71.3z M78.9,69.7c0.1,0,0.2-0.1,0.3-0.2c0.3-0.3,0.8-0.6,1.3-0.6
		c0.1,0.2,0.3,0.4,0.4,0.6c0.2,0.2,0.3,0.6,0.1,0.9c-0.2,0.3-0.3,0.6-0.5,0.9s-0.3,0.3-0.5,0.1c-0.2-0.2-0.5-0.4-0.8-0.5
		c-0.2-0.1-0.4-0.1-0.7-0.1c-0.5,0-0.9-0.2-1.2-0.5C78,70.3,78.3,69.7,78.9,69.7z M74.8,70.1c0.3-0.4,0.4-0.8,0.4-1.3l0.3,0.4
		c0.3,0.5,0.6,1,0.9,1.5c0,0.1,0,0.3,0,0.4c-0.1,0.4-0.2,0.7-0.3,1c-0.1,0.5-0.5,0.9-1,1.1c-0.2,0.1-0.5,0.3-0.7,0.3
		c-0.2,0-0.3,0.1-0.5,0.1c-0.9,0-1.7,0.2-2.5,0.5c0.8-0.8,1.6-1.6,2.5-2.4c0.2-0.2,0.2-0.5,0.3-0.7c0-0.1,0.1-0.3,0.2-0.4
		C74.4,70.5,74.6,70.3,74.8,70.1L74.8,70.1z M70.8,78.5c-0.4,0-0.9,0-1.3,0c-0.8,0-1.6,0.2-2.2,0.6c-0.3,0.1-0.5,0.2-0.8,0.2
		c-1.3,0-2.7-0.1-4-0.4c-1.3-0.3-2.6-0.4-3.9-0.5c-0.9,0-1.7-0.2-2.6-0.3L54.7,78l0.8-1c0.2-0.3,0.6-0.5,0.9-0.4
		c0.5,0,1-0.2,1.4-0.5c0.3-0.2,0.5-0.4,0.8-0.6c0.5-0.3,0.9-0.7,1.4-1c0.5-0.4,0.7-0.5,1-0.7c0.1-0.1,0.3-0.1,0.4,0
		c0.7,0.4,1.1,1.1,1.2,1.9c0.1,0.5,0.1,1,0.2,1.5c0.2-0.3,0.5-0.7,0.7-1c0.2-0.3,0.5-0.5,0.9-0.4c0.1,0,0.2,0,0.3,0
		c0.5,0,0.6,0.2,0.7,0.7c0.1,0.4,0.3,0.7,0.5,1c0,0,0.1,0,0.2,0h0.2c0.4-0.1,0.5,0,0.6,0.4l0.3,0.7l0.4-0.7c0.1-0.2,0.3-0.3,0.5-0.2
		c0,0,0,0,0,0c0.2,0,0.4,0.1,0.5,0.2c0.5,0.3,1,0.4,1.6,0.3c0.5,0,1,0.1,1.5,0.3C71.6,78.4,71.2,78.4,70.8,78.5z M112.8,78.5
		l-1.7-0.3c-0.3-0.1-0.7-0.1-1-0.2c-0.3-0.1-0.7-0.2-1-0.4c-0.7-0.3-1.4-0.4-2.1-0.3c-0.5,0.1-1,0.2-1.5,0.2c-1,0-1.9-0.1-2.9-0.2
		c-0.2,0-0.3-0.2-0.5-0.2c-0.4,0-0.7,0-1.1,0h-0.5v-0.1c0.1-0.1,0.2-0.2,0.3-0.3c0.2-0.1,0.5-0.2,0.7-0.3c0.2-0.1,0.5-0.4,0.7-0.6
		c0.3-0.2,0.6-0.4,0.9-0.7h-0.2l-0.3,0.1c-1.1,0.3-2.1,0.8-3,1.6c-0.9,0.8-2.1,1.3-3.3,1.4c-0.7,0.1-1.5,0.2-2.2,0.3
		c-0.6,0-1.2-0.1-1.8-0.2c-0.9-0.1-1.9-0.2-2.8-0.3c-0.5,0-0.9-0.3-1.1-0.7c-0.1-0.3-0.1-0.5,0.2-0.6l1-0.5c0.3-0.1,0.5-0.4,0.5-0.7
		c-0.4,0.1-0.9,0.2-1.3,0.3c-0.3,0.1-0.5,0.1-0.8,0.1c-1,0-2,0.2-3,0.7c-0.7,0.3-1.5,0.5-2.3,0.6c-2,0.3-4,0.3-5.9,0.2
		c-1.1,0-2.2,0.2-3.3,0.5c-0.2,0-0.4,0.1-0.7,0.1c-0.2,0-0.4,0.1-0.6,0.2c-0.1,0.1-0.3,0.1-0.4,0s-0.4-0.2-0.5-0.5
		c0,0-0.2-0.1-0.4-0.1c-0.4,0-0.9,0-1.3,0c-0.2,0-0.5,0-0.7-0.1c-1.3-0.7-2.5-1.4-3.8-2c-0.4-0.2-0.7-0.4-1-0.7
		c-0.2-0.2-0.5-0.4-0.7-0.5c-1.3-0.6-2.6-1.2-3.8-1.8c-0.6-0.3-1.1-0.7-1.6-1.2C58.1,71,58,70.9,58,70.8c-0.1-0.3-0.2-0.5-0.3-0.8
		c-0.3-0.4-0.7-0.8-1.1-1.1c0.2-0.2,0.4-0.4,0.7-0.7c0.1,0,0.2,0,0.3,0c0.4,0.2,0.8,0.5,1.2,0.7c0.1,0.1,0.2,0.2,0.2,0.3
		c0.2,0.4,0.6,0.7,1,0.7c0.5,0.1,0.6,0.3,0.3,0.8L60,71.1c-0.1,0.1-0.2,0.3-0.2,0.4c0.3-0.2,0.5-0.3,0.8-0.5c0.4-0.3,0.8-0.6,1.2-1
		c0.1,0,0.1-0.1,0.1-0.2c0.1-0.3,0.3-0.4,0.6-0.4c0.6-0.1,1.1-0.2,1.7-0.1c0.2,0.1,0.4,0.2,0.4,0.4c0,0.1,0,0.2-0.1,0.2
		c-0.1,0.1-0.2,0.3-0.3,0.4c-0.1,0.2-0.2,0.4-0.3,0.6c-0.3,0.4-0.4,0.9-0.4,1.4c0.3-0.3,0.7-0.6,1.1-0.8c0.4-0.3,0.9-0.3,1.4-0.2
		c0.4,0.1,0.9,0.3,1.3,0.5c0.7-0.4,1.4-0.8,2.1-1.2c0.2-0.2,0.4-0.3,0.6-0.5c0.1-0.1,0.2-0.3,0.4-0.4c0.7-0.7,1.3-1.4,1.8-2.2
		c0.3-0.3,0.6-0.6,0.9-0.9h0.1c0.1,0.3,0.3,0.7,0.4,1c0,0.1,0,0.1,0,0.2c-0.2,0.2-0.1,0.4,0,0.5c0.4,0.5,0.5,1.1,0.3,1.7
		c-0.1,0.2-0.2,0.4-0.2,0.6c-0.3,0.8-0.8,1.6-1.5,2.1c-0.4,0.3-0.8,0.7-1,1.2c-0.1,0.3-0.4,0.5-0.8,0.6c-0.2,0-0.3,0.1-0.4,0.2
		c0.3-0.1,0.6-0.2,0.8-0.3c0.9-0.4,1.9-0.6,2.9-0.6c1.3-0.1,2.6-0.4,3.8-0.9c0.6-0.2,1.1-0.4,1.7-0.5c0.6-0.2,0.9-0.3,1.3-0.5
		c0.4-0.2,0.6-0.2,0.9-0.3c1-0.3,1.9-0.9,2.5-1.7c0.3-0.4,0.7-0.6,1.2-0.7c0.2-0.1,0.4-0.1,0.6-0.2c0.4-0.2,0.4-0.1,0.6,0.2
		c0,0.1,0.1,0.1,0.1,0.2c0.1-0.1,0.2-0.2,0.3-0.3c0.7-0.8,1.6-1.3,2.6-1.7c0.3-0.2,0.7-0.3,1.1-0.4c0.2-0.1,0.4-0.2,0.5-0.4
		c0.5-0.8,1.4-1.2,2.3-1.4c0.2,0.5,0.2,1,0,1.5c-0.3,1-0.8,1.8-1.5,2.6c-0.5,0.6-1.2,1-1.9,1.3c-0.1,0-0.2,0.1-0.2,0.2l-1.2,1.6
		c0.7-0.3,1-1,1.8-1.2L90,71.5l0.1,0.1l1-0.8c0.4-0.3,0.8-0.6,1.1-1c0.2-0.2,0.3-0.4,0.4-0.6c0.4-0.8,1-1.6,1.7-2.2
		c0.1-0.1,0.2-0.2,0.4-0.2c0,0.4,0,0.8,0,1.2c0,0.5,0,0.9,0.1,1.4c0.1,0.4,0.3,0.6,0.8,0.5c0.4-0.1,0.6-0.2,1-0.3c0.1,0,0.2,0,0.3,0
		c1,0.3,1.8,1,2.3,1.9c0.3,0.5,0.1,0.8-0.4,0.9c-0.4,0.1-0.8,0.2-1.3,0.2c-0.8,0-1.6,0.1-2.3,0.2c-1.2,0.4-2.4,1-3.5,1.7
		c0.6,0.1,1.1,0.3,1.7,0.4c0.4,0.1,0.7,0.4,0.7,0.8c0.1,0.4,0.3,0.7,0.5,1c0,0.1,0.2,0.2,0.2,0.2c1-0.2,2.1-0.3,3.2-0.5
		c0.3-0.1,0.5-0.2,0.7-0.4c0.5-0.5,1.1-0.8,1.7-1.1c0.9-0.4,1.9-0.7,3-0.9c0.6-0.1,1.2,0.1,1.6,0.5c0.3,0.3,0.4,0.3,0.6,0
		c0.2-0.2,0.6-0.3,0.9-0.1c0.5,0.2,1,0.6,1.4,1c0.6,0.7,1.3,1.1,2.2,1.4c0.7,0.1,1.3,0.4,1.9,0.8l1,0.8L112.8,78.5z"/>
	<path class="st1" d="M110,76.7c-0.9-0.2-1.6-0.7-2.2-1.4c-0.4-0.5-0.8-0.8-1.4-1c-0.3-0.2-0.6-0.1-0.9,0.1c-0.3,0.3-0.3,0.3-0.6,0
		c-0.4-0.4-1-0.6-1.6-0.5c-1,0.1-2,0.4-3,0.9c-0.6,0.2-1.2,0.6-1.7,1.1c-0.2,0.2-0.4,0.3-0.7,0.4c-1,0.2-2.1,0.4-3.2,0.5
		c-0.1,0-0.2-0.1-0.2-0.2c-0.2-0.3-0.3-0.7-0.5-1c-0.1-0.4-0.4-0.7-0.7-0.8c-0.6-0.2-1.1-0.3-1.7-0.4c1.1-0.7,2.2-1.3,3.5-1.8
		c0.7-0.1,1.5-0.2,2.3-0.2c0.4,0,0.8-0.1,1.3-0.2c0.5-0.1,0.6-0.5,0.4-0.9c-0.5-0.9-1.4-1.6-2.3-1.9c-0.1,0-0.2,0-0.3,0
		c-0.3,0.1-0.6,0.3-1,0.3c-0.3,0.1-0.7,0-0.8-0.5c-0.1-0.5-0.1-0.9-0.1-1.4c0-0.4,0-0.7,0-1.2c-0.1,0.1-0.2,0.2-0.4,0.2
		c-0.7,0.6-1.3,1.4-1.7,2.2c-0.1,0.2-0.2,0.4-0.4,0.6c-0.4,0.3-0.7,0.7-1.1,1l-1,0.8l-0.1-0.1l0.1-0.4c-0.8,0.3-1.1,1-1.8,1.2
		l1.2-1.6c0.1-0.1,0.2-0.1,0.3-0.2c0.7-0.3,1.4-0.7,1.9-1.2c0.7-0.7,1.2-1.6,1.6-2.6c0.2-0.5,0.2-1,0-1.5c-0.9,0.1-1.8,0.6-2.3,1.4
		c-0.1,0.2-0.3,0.3-0.5,0.4c-0.3,0.2-0.7,0.3-1.1,0.4c-1,0.4-1.9,1-2.6,1.7c-0.1,0.1-0.2,0.2-0.3,0.3c0-0.1-0.1-0.1-0.1-0.2
		c-0.2-0.4-0.2-0.4-0.6-0.2c-0.2,0.1-0.4,0.2-0.6,0.2c-0.5,0.1-0.9,0.4-1.2,0.7c-0.7,0.8-1.5,1.4-2.5,1.7c-0.3,0.1-0.6,0.2-0.9,0.3
		c-0.3,0.1-0.9,0.3-1.3,0.5c-0.4,0.2-1.1,0.3-1.7,0.5c-1.2,0.5-2.5,0.8-3.8,0.9c-1,0-2,0.2-2.9,0.6c-0.3,0.1-0.6,0.2-0.8,0.3
		c0.1-0.1,0.3-0.2,0.4-0.2c0.3-0.1,0.6-0.3,0.8-0.6c0.2-0.5,0.6-0.9,1-1.2c0.7-0.6,1.1-1.3,1.4-2.2c0.1-0.2,0.2-0.4,0.2-0.6
		c0.1-0.6,0-1.2-0.3-1.7c-0.1-0.2-0.2-0.4,0-0.5c0-0.1,0-0.1,0-0.2c-0.1-0.3-0.3-0.7-0.4-1h-0.1c-0.3,0.3-0.6,0.6-0.9,0.9
		c-0.6,0.8-1.2,1.5-1.8,2.2c-0.1,0.1-0.2,0.3-0.4,0.4c-0.2,0.2-0.4,0.4-0.6,0.5c-0.7,0.4-1.4,0.8-2.1,1.2c-0.4-0.2-0.8-0.3-1.3-0.5
		c-0.5-0.1-1-0.1-1.4,0.2c-0.4,0.2-0.8,0.5-1.2,0.9c0-0.5,0.1-1,0.4-1.4c0.1-0.2,0.2-0.4,0.3-0.6c0.1-0.2,0.2-0.3,0.3-0.4
		c0.1-0.1,0.1-0.1,0.1-0.2c0-0.3-0.2-0.4-0.4-0.4c-0.6-0.1-1.2-0.1-1.7,0.1c-0.3,0-0.5,0.1-0.6,0.4c0,0.1-0.1,0.1-0.1,0.2
		c-0.4,0.3-0.8,0.7-1.2,1c-0.2,0.2-0.5,0.3-0.8,0.5c0-0.1,0.1-0.3,0.2-0.4l0.3-0.4c0.3-0.5,0.2-0.7-0.3-0.8c-0.5,0-0.9-0.3-1-0.7
		c0-0.1-0.1-0.2-0.2-0.3c-0.4-0.3-0.8-0.5-1.2-0.7c-0.1,0-0.2,0-0.3,0c-0.2,0.2-0.5,0.4-0.7,0.7c0.3,0.4,0.8,0.7,1.1,1.1
		c0.1,0.2,0.3,0.5,0.3,0.8c0,0.1,0.1,0.2,0.2,0.3c0.5,0.4,1.1,0.8,1.6,1.2c1.2,0.7,2.5,1.2,3.8,1.8c0.3,0.1,0.5,0.3,0.7,0.5
		c0.3,0.3,0.7,0.5,1.1,0.7c1.3,0.7,2.5,1.3,3.8,2c0.2,0.1,0.4,0.1,0.7,0.1c0.4,0,0.9,0,1.3,0c0.1,0,0.4,0,0.4,0.1
		c0,0.3,0.3,0.3,0.5,0.5c0.1,0.2,0.2,0.1,0.4,0c0.2-0.1,0.4-0.2,0.6-0.2c0.2-0.1,0.4-0.1,0.7-0.1c1.1-0.3,2.2-0.4,3.3-0.5
		c2,0.2,4,0.1,5.9-0.2c0.8-0.1,1.6-0.3,2.4-0.7c0.9-0.5,1.9-0.7,3-0.7c0.3,0,0.5,0,0.8-0.1c0.4-0.1,0.9-0.2,1.3-0.3
		c-0.1,0.3-0.2,0.6-0.5,0.7l-1,0.5c-0.3,0.2-0.4,0.3-0.2,0.6c0.2,0.5,0.6,0.8,1.1,0.7c0.9,0.1,1.9,0.2,2.8,0.3
		c0.6,0.1,1.1,0.2,1.7,0.2c0.7,0,1.5-0.1,2.2-0.3c1.2-0.1,2.4-0.6,3.3-1.4c0.8-0.7,1.9-1.3,2.9-1.6l0.3-0.1h0.2
		c-0.3,0.2-0.6,0.4-0.9,0.7c-0.3,0.2-0.5,0.4-0.7,0.6c-0.3,0.2-0.5,0.2-0.7,0.3c-0.1,0.1-0.2,0.2-0.3,0.3v0.1h0.5c0.4,0,0.7,0,1.1,0
		c0.2,0,0.3,0.2,0.5,0.2c1,0.1,1.9,0.2,2.9,0.2c0.5,0,1-0.1,1.5-0.2c0.7-0.1,1.5,0,2.1,0.3c0.3,0.2,0.7,0.3,1,0.4
		c0.3,0.1,0.7,0.2,1,0.2l1.7,0.3v-0.1l-1-0.8C111.1,77.2,110.6,76.9,110,76.7z M72.7,68.5c0.2,0.4,0.1,1-0.2,1.3
		c-0.1,0.1-0.1,0.2-0.2,0.3c-0.1,0.4-0.4,0.6-0.7,0.8L72.7,68.5z M69.1,72.9c-0.1,0.1-0.3,0.1-0.4,0c-0.2-0.1-0.4-0.1-0.5,0.1
		c-0.4,0.7-1.1,0.8-1.8,1c-0.2,0.1-0.6-0.1-0.8-0.2v-0.1l0.6-0.1c0.6-0.1,1.2-0.4,1.6-0.9c0.1-0.2,0.3-0.3,0.5-0.4
		c0.9-0.3,1.7-0.9,2.3-1.7c0.1-0.1,0.1-0.2,0.2-0.2C70.5,71.5,69.9,72.3,69.1,72.9L69.1,72.9z M73.2,75.3l1.2-0.1v0.1
		c-1.1,0.5-2.3,0.8-3.6,1l-0.1,0c0.3-0.3,0.5-0.5,0.8-0.8c0.5-0.4,1.1-0.7,1.8-0.8c0.7-0.1,1.5-0.3,2.2-0.5
		C74.9,74.8,74.1,75.1,73.2,75.3L73.2,75.3z M89,73.8c-0.6,0.3-1.3,0.5-1.8,0.9c-0.5,0.2-1,0.4-1.6,0.4c-0.9,0.2-1.8,0.4-2.7,0.6
		c-0.2,0.1-0.5,0.1-0.8,0.1c-0.1,0-0.2-0.1-0.2-0.2c-0.1-0.3-0.2-0.7-0.4-1c-0.2-0.3-0.5-0.5-0.9-0.4c-0.5,0.1-1,0.2-1.5,0.2
		c-0.1,0-0.2-0.1-0.3-0.1c-0.1-0.1-0.3-0.1-0.4-0.1c-0.8-0.1-1.5-0.1-2.3-0.2l2.7-0.8c0.9-0.3,1.8-0.6,2.7-0.9
		c0.9-0.3,1.8-0.6,2.7-1l-2.2,1.5v0.1c0.2,0,0.3,0.1,0.5,0.1c0.1,0,0.2,0,0.3,0c0.5,0,1,0.1,1.3,0.5c0.4,0.5,1.1,0.6,1.7,0.4
		c0.6-0.1,1.2-0.1,1.8-0.3c1.3-0.2,2.6-0.7,3.6-1.6c0.1-0.1,0.3-0.2,0.5-0.3v0.1l-1.1,1C90.2,73.3,89.6,73.7,89,73.8L89,73.8z"/>
	<path class="st1" d="M53.1,69.1c-0.1-0.4-0.3-0.9-0.5-1.2c-0.3-0.4-0.6-0.4-1,0c-0.3,0.4-0.9,0.7-1.4,0.8c-0.3,0-0.6,0.2-0.8,0.5
		c-0.1,0.2-0.3,0.4-0.4,0.5c-0.4,0.6-0.8,1.1-1.4,1.5C46.9,71.7,46,72,45.1,72c-0.6,0-1.3,0.2-1.8,0.5c-0.4,0.2-0.9,0.4-1.3,0.5
		c-0.3,0.1-0.6,0.1-0.9,0.2c-0.7,0.3-1.5,0.6-2.2,0.9c-0.3,0.1-0.6,0.4-0.9,0.4c-0.5,0-1,0.2-1.4,0.6c-0.5,0.3-0.9,0.7-1.3,1.1
		c0.2,0.3,0.4,0.5,0.8,0.3c0.1,0,0.2,0,0.3-0.1c1-0.1,1.9-0.3,2.8-0.7c0.1,0,0.2-0.1,0.3-0.1c0.5,0,1,0,1.6-0.1
		c0.2,0,0.5-0.1,0.7-0.2c1.4-0.8,2.9-1.6,4.3-2.3l0.4-0.2c-0.6,0.8-1.3,1.6-2,2.3c-0.5,0.5-0.8,1.2-1,1.9c-0.1,0.6,0,1,0.5,1.1
		c0.5,0.1,1,0.1,1.4-0.1c1.1-0.6,2.3-0.9,3.6-0.9c1-0.1,1.8-0.6,2.3-1.5c-0.6,0-1.1,0-1.6,0c-0.3,0-0.6-0.1-0.8-0.4
		c-0.2-0.2-0.1-0.4,0-0.6c0,0,0,0,0.1,0c0.1-0.1,0.3-0.2,0.5-0.3c0.2-0.1,0.4-0.3,0.3-0.6c-0.1-0.2-0.4-0.2-0.6-0.1
		c-0.4,0.1-0.8,0.3-1.2,0.5c-0.5,0.2-0.9,0.5-1.4,0.7c0,0,0-0.1,0-0.1c0.6-1,1.4-2,2.2-2.9c0.1-0.1,0.3-0.2,0.5-0.3
		c0.6-0.1,1.2-0.1,1.8,0.1c0.2,0,0.3,0,0.5-0.1c0.3-0.2,0.7-0.4,1-0.4c0.3,0,0.6-0.1,1-0.2l-0.3-0.6C53.3,70.1,53.2,69.6,53.1,69.1z
		"/>
	<path class="st1" d="M70.5,77.9c-0.5,0.1-1.1,0-1.6-0.3c-0.2-0.1-0.3-0.2-0.5-0.2c-0.2-0.1-0.5,0-0.6,0.2c0,0,0,0,0,0.1l-0.4,0.7
		l-0.3-0.7c-0.1-0.4-0.2-0.4-0.6-0.4h-0.2c-0.1,0-0.2,0-0.2,0c-0.2-0.3-0.4-0.7-0.5-1c-0.1-0.5-0.2-0.6-0.7-0.7c-0.1,0-0.2,0-0.3,0
		c-0.4-0.1-0.7,0.1-0.9,0.4c-0.2,0.3-0.5,0.6-0.7,1c-0.1-0.5-0.2-1-0.2-1.5c0-0.8-0.5-1.6-1.2-1.9c-0.1-0.1-0.3-0.1-0.4,0
		c-0.3,0.3-0.7,0.5-1,0.7c-0.4,0.2-0.9,0.7-1.4,1c-0.3,0.2-0.5,0.4-0.8,0.6c-0.4,0.3-0.9,0.5-1.4,0.5c-0.4,0-0.7,0.1-0.9,0.4l-0.8,1
		l1.3,0.2c0.9,0.1,1.7,0.3,2.6,0.3c1.3,0.1,2.6,0.2,3.9,0.5c1.3,0.3,2.6,0.4,4,0.4c0.3,0,0.6-0.1,0.8-0.2c0.7-0.4,1.5-0.6,2.2-0.6
		c0.4,0,0.9,0,1.3,0c0.4,0,0.7-0.1,1.1-0.2C71.5,78,71,77.9,70.5,77.9z"/>
	<path class="st1" d="M43.7,71.3c0.1-0.1,0.2-0.1,0.4-0.2c0.6-0.1,1.2-0.1,1.7,0.2c0.2,0.1,0.4,0.1,0.6,0c0.6-0.3,1.2-0.8,1.6-1.3
		c0.1-0.1,0.2-0.3,0.3-0.5c0.1-0.4,0.3-0.7,0.6-0.9c0.4-0.3,0.9-0.6,1.3-0.8c0.8-0.4,1.4-1.1,1.6-2c0.2-0.7,0.2-1.4,0.3-2.2
		c0-0.1,0-0.2-0.1-0.2c-0.4-0.4-1-0.4-1.3,0c0,0,0,0-0.1,0.1c-0.6,0.5-1.2,1.1-1.8,1.6c-0.5,0.6-1.1,1.2-1.7,1.7
		c-2.5,1.6-4.7,3.5-6.5,5.7l1.5-0.5C42.8,71.8,43.3,71.6,43.7,71.3z"/>
	<path class="st1" d="M73.8,71.8c-0.8,0.8-1.7,1.6-2.5,2.4c0.8-0.3,1.7-0.5,2.6-0.6c0.2,0,0.3,0,0.5-0.1c0.2-0.1,0.5-0.2,0.7-0.3
		c0.5-0.2,0.9-0.6,1-1.1c0.1-0.4,0.2-0.7,0.3-1c0-0.1,0-0.3,0-0.4c-0.3-0.5-0.6-1-0.9-1.5l-0.3-0.4c0,0.5-0.1,0.9-0.4,1.3
		c-0.2,0.2-0.3,0.4-0.5,0.6c-0.1,0.1-0.1,0.3-0.2,0.4C74,71.4,74,71.7,73.8,71.8z"/>
	<path class="st1" d="M79.3,70.9c0.3,0.1,0.5,0.3,0.8,0.5c0.2,0.2,0.4,0.1,0.5-0.1c0.1-0.2,0.3-0.6,0.5-0.9c0.2-0.3,0.1-0.6-0.1-0.9
		c-0.2-0.2-0.3-0.4-0.4-0.6c-0.5,0-0.9,0.2-1.3,0.6c-0.1,0.1-0.2,0.2-0.3,0.2c-0.6,0-0.9,0.5-1.5,0.6c0.3,0.3,0.8,0.5,1.2,0.5
		C78.9,70.8,79.1,70.8,79.3,70.9z"/>
	<path d="M91.8,71.8c-0.2,0.1-0.3,0.2-0.5,0.3c-1,0.8-2.3,1.4-3.6,1.6c-0.6,0.1-1.2,0.1-1.8,0.3c-0.6,0.2-1.3,0-1.7-0.4
		c-0.3-0.4-0.8-0.6-1.3-0.5c-0.1,0-0.2,0-0.3,0c-0.2,0-0.3-0.1-0.5-0.1v-0.1l2.2-1.3c-1,0.3-1.8,0.7-2.7,1c-0.9,0.3-1.8,0.6-2.7,0.9
		l-2.7,0.8c0.8,0.1,1.5,0.1,2.3,0.2c0.1,0,0.3,0.1,0.4,0.1c0.1,0,0.2,0.2,0.3,0.1c0.5-0.1,1-0.1,1.5-0.2c0.4-0.1,0.7,0.1,0.9,0.4
		c0.2,0.3,0.2,0.7,0.4,1C82,76,82,76,82.1,76c0.3,0,0.5,0,0.8-0.1c0.9-0.2,1.8-0.5,2.7-0.6c0.5-0.1,1.1-0.3,1.6-0.6
		c0.6-0.3,1.2-0.6,1.8-0.9c0.7-0.2,1.3-0.6,1.8-1L91.8,71.8L91.8,71.8z"/>
	<path d="M73.4,74.8c-0.6,0.1-1.3,0.4-1.8,0.8c-0.3,0.2-0.5,0.5-0.8,0.8l0.1,0.1c1.2-0.2,2.4-0.5,3.6-1v-0.1l-1.2,0.1v-0.1
		c0.9-0.1,1.7-0.4,2.3-0.9C74.9,74.5,74.1,74.6,73.4,74.8z"/>
	<path d="M70.6,70.8c-0.6,0.8-1.4,1.3-2.3,1.7c-0.2,0.1-0.4,0.2-0.5,0.4c-0.4,0.5-0.9,0.8-1.6,0.9l-0.6,0.1V74
		c0.3,0.1,0.6,0.2,0.8,0.2c0.6-0.2,1.4-0.3,1.8-1c0.1-0.2,0.3-0.2,0.5-0.1c0.1,0.1,0.3,0.1,0.4,0c0.8-0.6,1.4-1.5,1.7-2.4
		C70.8,70.7,70.7,70.8,70.6,70.8z"/>
	<path d="M72.4,70.2c0-0.1,0.1-0.2,0.2-0.3c0.3-0.4,0.4-0.9,0.2-1.4L71.7,71C72,70.8,72.2,70.5,72.4,70.2z"/>
</g>
<image style="overflow:visible;" width="1280" height="720" xlink:href="79BB73EB.jpg"  transform="matrix(1 0 0 1 -8169.1968 -8028.3569)">
</image>
</svg>
