<svg id="Capa_1" data-name="Capa 1" xmlns="http://www.w3.org/2000/svg" viewBox="0 0 200 200"><defs><style>.cls-1{fill:#fff;}</style></defs><title>Hotel_Patito</title><path d="M90.81,140.83a31.73,31.73,0,0,1-10.53-5.28,28.6,28.6,0,0,1-8.51-10A34.7,34.7,0,0,1,67.93,112,31.68,31.68,0,0,1,79.06,85.4a29.86,29.86,0,0,1,10.31-5.91,33,33,0,0,1,9.87-1.75,30.84,30.84,0,0,1,9.19,1.16A36,36,0,0,1,123.67,88a32.66,32.66,0,0,1,4,5.42,26.13,26.13,0,0,1,2.7,5.52,35,35,0,0,1,1.71,8.93,24.64,24.64,0,0,1-1.17,10.41c-.77,2-1.7,4-2.64,6a24.64,24.64,0,0,1-3.18,5.26c-1.19,1.43-2.47,2.79-3.71,4.18a19.31,19.31,0,0,1-7.13,5,42.37,42.37,0,0,1-14.83,3.14A30.79,30.79,0,0,1,90.81,140.83Zm10.45-57A1.46,1.46,0,0,0,100,82.48a4.68,4.68,0,0,1-2.43-1.13,4.53,4.53,0,0,0-2.65-1,13,13,0,0,0-7.31,1.23c-1.32.62-2.7,1.12-4,1.84a17.16,17.16,0,0,0-3.07,2.23,44.12,44.12,0,0,0-7.29,8.85,28.31,28.31,0,0,0-3,6.14,24.26,24.26,0,0,0-.6,3.32,32.61,32.61,0,0,0-.68,3.37,23.72,23.72,0,0,0,.09,3.65,22.92,22.92,0,0,0,1.34,6.63c1.17,3,2.09,6.21,3.78,9a18.43,18.43,0,0,0,4.82,5.78,3.68,3.68,0,0,0,2.41.54c1,0,2.08-.44,3,.22a4.15,4.15,0,0,1,.83,1,13.82,13.82,0,0,0,1,1.44.79.79,0,0,0,1.33-.44c.09-.28.32-.67.54-.71a.92.92,0,0,1,1,.59c.4.88.48.95,1.15.33.87-.8,1.78-.53,2.75-.39a24.89,24.89,0,0,0,2.82.24,1.27,1.27,0,0,0,1.22-1c.09-.35.15-.71.23-1.07a1.83,1.83,0,0,1,1.93-1.65A1,1,0,0,0,100,130c-.07-.16-.16-.31-.23-.47-.36-.77.22-1.29.55-1.83a2.45,2.45,0,0,1,1.75-1,1.15,1.15,0,0,1,1.18.39,11,11,0,0,0,.79.84c.71.69,1.52.44,1.79-.53a3,3,0,0,1,.22-.64,2.05,2.05,0,0,1,2.09-1l.07.07a2.5,2.5,0,0,0,2.8.8,2.4,2.4,0,0,0,1.82-2A2.47,2.47,0,0,0,111.8,122l-.38-.26c.4-.41.75-.81,1.14-1.17,1.23-1.14,1-2.23.11-3.29a3.42,3.42,0,0,1-.71-2.46,6.56,6.56,0,0,1,1.06-3.17,4.08,4.08,0,0,0,.18-3.72,9.82,9.82,0,0,0-.94-1.44q-.41-.64-.78-1.29a2.05,2.05,0,0,1-.12-1.86q.82-1.94,1.73-3.84a1.15,1.15,0,0,0-.93-1.77.66.66,0,0,0-.39.12c-.6.38-1.2.77-1.8,1.16a2.88,2.88,0,0,1-.52.35,5.39,5.39,0,0,1-1.09.3c-.55.08-.54-.43-.7-.75a9.41,9.41,0,0,1-.51-1.07,1.07,1.07,0,0,1,.34-1.17,10.38,10.38,0,0,0,1.13-1.41,1,1,0,0,0-.69-1.58l-.41,0c-1.73-.16-2.31-.64-2.73-2.34a15.65,15.65,0,0,1-.23-1.61l-.36.07a2.41,2.41,0,0,1-1.85-4.34l.15-.14a2.58,2.58,0,0,1,2.36,0,2.39,2.39,0,0,1,.38,4l-.49.38a2.3,2.3,0,0,0,1.88-1.52,2.63,2.63,0,0,0-.41-2.67,2.51,2.51,0,0,0-3.45-.55,1.41,1.41,0,0,0-.27.38A1.51,1.51,0,0,1,101.26,83.83ZM116,135a25.94,25.94,0,0,0,11.61-17.19c-.48,1-.9,1.86-1.33,2.73-.27.55-.57,1.08-.84,1.62a.63.63,0,0,1-.8.39,1.61,1.61,0,0,0-.51,0v.18l.87.14A33.32,33.32,0,0,1,114,134a35.11,35.11,0,0,1-14.78,5A25,25,0,0,0,116,135ZM100.53,80.8A40.49,40.49,0,0,1,115.1,85C111.82,81,105.06,79.36,100.53,80.8Zm16.83,29a1.92,1.92,0,0,0-2-2,2.23,2.23,0,0,1,1.36,1.95,2.14,2.14,0,0,1-1.11,2.08A1.82,1.82,0,0,0,117.37,109.8Zm3.83,8.77a1.79,1.79,0,0,0-1.21-2.36,2.09,2.09,0,0,1,.6,2.28,2.15,2.15,0,0,1-1.74,1.57C119.86,120.44,120.82,119.79,121.2,118.57Zm3.32-21.28a1.18,1.18,0,0,0,.94-.91,2.26,2.26,0,0,0-.71-2.42,1.49,1.49,0,0,0-1.75-.29A2.26,2.26,0,0,1,124.52,97.29Zm-3.39,8.14a1.82,1.82,0,0,0-2-1.73l1,.69-.44.36c.67-.14.76.24.85.62.17.76,0,1.13-.69,2.11C120.88,107.39,121.24,106.24,121.14,105.44Zm3.23,7.61c.71.11,1.39-.6,1.48-1.55a1.7,1.7,0,0,0-1.63-2.05A2.1,2.1,0,0,1,124.37,113Zm-10.54,15.69a1.46,1.46,0,0,0,2.18-.27,1.39,1.39,0,0,0,.14-2A2,2,0,0,1,113.83,128.74Zm5.49-40.63c-.76-.5-1.8-.47-2.1.34a1.67,1.67,0,0,1,1.85.08,1.82,1.82,0,0,1,.77,1.67A1.43,1.43,0,0,0,119.31,88.11Zm-9,44.95a1.4,1.4,0,0,0,.5-2,1.79,1.79,0,0,1-.81,1.6,1.84,1.84,0,0,1-1.89.08A1.51,1.51,0,0,0,110.31,133.06Zm8.17-36.95a1.26,1.26,0,0,0,.61-1.71,1.46,1.46,0,0,0-2-1.06A1.82,1.82,0,0,1,118.49,96.11ZM97.14,136.59l-.13.09a3.26,3.26,0,0,0,.65.77,1.69,1.69,0,0,0,1.88,0,1.17,1.17,0,0,0,.64-1.21C99.11,137.47,98.19,137.58,97.14,136.59Zm26.74-34.16a1.28,1.28,0,0,0,.84-1.59,1.34,1.34,0,0,0-1.54-1.21A1.73,1.73,0,0,1,123.88,102.43Zm-19.45,30.76a1.41,1.41,0,0,0,1.2-1.62,1.77,1.77,0,0,1-1.2,1.16,1.74,1.74,0,0,1-1.57-.38A1.25,1.25,0,0,0,104.43,133.19Zm1.16-49.39a.88.88,0,0,0,.52.29c.15,0,.32-.11.48-.17a1.62,1.62,0,0,0-.34-.43,5.08,5.08,0,0,0-.78-.33C105.52,83.46,105.49,83.68,105.58,83.8Zm23,21.7a1.08,1.08,0,0,0-1.6.35A2,2,0,0,0,128.59,105.49Zm-12.49-2.38a1.54,1.54,0,0,0-1.67-.05l0,.18ZM94.42,137.85c-.55-.39-1.48-.32-1.68.08ZM123,105.63a1.22,1.22,0,0,0,1.63,0Zm-3.79,20.16a2.61,2.61,0,0,0,1.83.06v-.22Zm-3.09,4.41-1.3.19C115.14,130.81,115.57,130.76,116.08,130.19Zm2.65-7.74c.2.45.27.46,1.34,0Zm-6.38-31.59L111,90.71C111.08,91.12,111.58,91.19,112.35,90.86ZM111.76,94a1.09,1.09,0,0,0,1.2.17V94Zm17.34,10.35,0-.23-1.19-.14,0,.21Zm-10.46,4.95,0,.19.91.11C119.22,109,118.93,109.12,118.64,109.27Zm8.09-6.75,0-.21-.93.11v.15A.9.9,0,0,0,126.73,102.51Z"/><path class="cls-1" d="M109.94,126.26a2.18,2.18,0,0,0,2.31-2,2.4,2.4,0,0,0-4.64-1.13,2.63,2.63,0,0,0,.56,2.66,2.05,2.05,0,0,0-2.09,1,3,3,0,0,0-.22.64c-.27,1-1.08,1.22-1.79.53a11,11,0,0,1-.79-.84,1.15,1.15,0,0,0-1.18-.39,2.45,2.45,0,0,0-1.75,1c-.33.55-.91,1.06-.55,1.83.07.16.16.31.23.47a1,1,0,0,1-.69,1.5,1.83,1.83,0,0,0-1.93,1.65c-.08.35-.14.72-.23,1.07a1.27,1.27,0,0,1-1.22,1,24.89,24.89,0,0,1-2.82-.24c-1-.14-1.88-.41-2.75.39-.67.62-.75.55-1.15-.33a.92.92,0,0,0-1-.59c-.22,0-.45.44-.54.71a.79.79,0,0,1-1.33.44,13.82,13.82,0,0,1-1-1.44,4.15,4.15,0,0,0-.83-1c-.93-.66-2-.23-3-.22a3.68,3.68,0,0,1-2.41-.54,18.43,18.43,0,0,1-4.82-5.78c-1.69-2.82-2.6-6-3.78-9A22.92,22.92,0,0,1,69.14,111a23.72,23.72,0,0,1-.09-3.65,32.61,32.61,0,0,1,.68-3.37,24.26,24.26,0,0,1,.6-3.32,28.31,28.31,0,0,1,3-6.14,44.12,44.12,0,0,1,7.29-8.85,17.16,17.16,0,0,1,3.07-2.23c1.26-.72,2.64-1.22,4-1.84a13,13,0,0,1,7.31-1.23,4.53,4.53,0,0,1,2.65,1A4.68,4.68,0,0,0,100,82.48a1.46,1.46,0,0,1,1.25,1.36,1.51,1.51,0,0,0,1.28,1.44h0l-.15.14a2.41,2.41,0,0,0,1.85,4.34l.36-.07a15.65,15.65,0,0,0,.23,1.61c.42,1.7,1,2.18,2.73,2.34l.41,0a1,1,0,0,1,.69,1.58,10.38,10.38,0,0,1-1.13,1.41,1.07,1.07,0,0,0-.34,1.17,9.41,9.41,0,0,0,.51,1.07c.16.32.15.83.7.75a5.39,5.39,0,0,0,1.09-.3A2.88,2.88,0,0,0,110,99c.6-.39,1.19-.78,1.8-1.16a.66.66,0,0,1,.39-.12,1.15,1.15,0,0,1,.93,1.77q-.91,1.9-1.73,3.84a2.05,2.05,0,0,0,.12,1.86q.37.66.78,1.29a9.82,9.82,0,0,1,.94,1.44,4.08,4.08,0,0,1-.18,3.72,6.56,6.56,0,0,0-1.06,3.17,3.42,3.42,0,0,0,.71,2.46c.9,1.06,1.12,2.15-.11,3.29-.39.36-.74.76-1.14,1.17l.38.26a2.47,2.47,0,0,1,1.07,2.69,2.4,2.4,0,0,1-1.82,2,2.5,2.5,0,0,1-2.8-.8A8.69,8.69,0,0,0,109.94,126.26ZM87.75,94.42a2.87,2.87,0,0,0,2.84-2.72,2.83,2.83,0,1,0-2.84,2.72ZM76.13,113.31A2.12,2.12,0,0,0,74,111.19a2.07,2.07,0,0,0-2.1,2c-.05,1,1.09,2.29,2.12,2.12A2.08,2.08,0,0,0,76.13,113.31ZM81.87,130a17.93,17.93,0,0,1,1.92.08c.22,0,.42.23.62.35l.41.24a1.63,1.63,0,0,0,.14-.57,1.6,1.6,0,0,0-.77-1.18,3.25,3.25,0,0,0-3.4.07,2.66,2.66,0,0,0-.71.93.72.72,0,0,0,.37,1A1.45,1.45,0,0,1,81.87,130ZM91.2,88.48A3.68,3.68,0,0,0,87.36,87a2.82,2.82,0,0,0-2.18,2,3.51,3.51,0,0,1,4.17-.85c1.54.74,2,2.08,2,3.81A3,3,0,0,0,91.2,88.48ZM77.55,98.11a1.36,1.36,0,0,0,1.29-1.32,1.52,1.52,0,0,0-1.48-1.35A1.37,1.37,0,0,0,76,96.77,1.51,1.51,0,0,0,77.55,98.11ZM109.85,118a2.8,2.8,0,0,1-.84-2.56,4.55,4.55,0,0,1,.63-1.17,3.6,3.6,0,0,1,.46-.5,1.19,1.19,0,0,0-1.42.54,3.2,3.2,0,0,0,.76,4.36,3.57,3.57,0,0,0,.87.28l.12-.19C110.23,118.47,110.06,118.2,109.85,118ZM91.39,132.21a1.71,1.71,0,0,0,.16.61,4.17,4.17,0,0,0,.56-.18.7.7,0,0,0,.26-.25,2.18,2.18,0,0,1,1.69-.89,2.27,2.27,0,0,0,.68-.35,3.8,3.8,0,0,0-.65-.56,1.58,1.58,0,0,0-.58-.11A2.13,2.13,0,0,0,91.39,132.21Zm17.1-24.53a1.1,1.1,0,0,0,2.19,0,1,1,0,0,0-1.07-1A1.15,1.15,0,0,0,108.49,107.69Zm-10.09,14a.88.88,0,0,0,.53-.31c.24-.26.41-.6.66-.86a.47.47,0,0,0-.06-.8,1.26,1.26,0,0,0-1.33-.13,1.19,1.19,0,0,0-.74,1C97.46,121,98,121.66,98.4,121.66ZM95.16,85.18c.54.91,1.31,1.3,2,.92a3.31,3.31,0,0,0-.49-.44,2.39,2.39,0,0,1-1.29-2.88,1.05,1.05,0,0,0,0-.26C94.61,83,94.56,84.16,95.16,85.18Zm10,37a.94.94,0,0,0-.15-1.87.84.84,0,0,0-.76.94C104.3,121.85,104.66,122.22,105.17,122.19Zm-3.66-25.47a2,2,0,0,1-1.11-2.85.76.76,0,0,0,0-.23c-.55.06-.72.45-.8.85a2.25,2.25,0,0,0,.76,2.25,1.48,1.48,0,0,0,1.65.39A3.68,3.68,0,0,0,101.51,96.71Zm-6.68-6.26a2.54,2.54,0,0,0,.61,1c.31.32.72.19,1-.25-1.33-.59-1.12-1.63-.66-2.8A1.61,1.61,0,0,0,94.83,90.46ZM85.45,126a.93.93,0,0,0,.81.87.84.84,0,0,0,.79-.81.91.91,0,0,0-.8-.92A.87.87,0,0,0,85.45,126Zm14.94-34.06a.74.74,0,0,0,.74-.71.8.8,0,0,0-.85-.73.75.75,0,0,0-.7.76A.72.72,0,0,0,100.39,91.95ZM77.31,108.17a.74.74,0,0,0,.69-.76.78.78,0,0,0-.78-.74.75.75,0,0,0-.75.77A.81.81,0,0,0,77.31,108.17Zm9.43,24.23a1.2,1.2,0,0,0,0,.73.37.37,0,0,0,.32.17,3.54,3.54,0,0,0,.95-.4c.07,0,0-.42-.09-.57s-.36-.23-.62-.37C87.12,132.11,86.83,132.21,86.74,132.4ZM78,128.26a.75.75,0,0,0,.51-.5c0-.13-.26-.47-.44-.49s-.43.21-.65.33v.23C77.62,128,77.83,128.27,78,128.26Z"/><path class="cls-1" d="M99.27,139.05A25,25,0,0,0,116,135a25.94,25.94,0,0,0,11.61-17.19c-.48,1-.9,1.86-1.33,2.73-.27.55-.57,1.08-.84,1.62a.63.63,0,0,1-.8.39,1.61,1.61,0,0,0-.51,0v.18l.87.14A33.32,33.32,0,0,1,114,134,35.11,35.11,0,0,1,99.27,139.05Z"/><path d="M108.17,125.78a2.63,2.63,0,0,1-.56-2.66,2.4,2.4,0,0,1,4.64,1.13,2.18,2.18,0,0,1-2.31,2,8.69,8.69,0,0,1-1.7-.4Zm1.62-2.89c-.59-.45-.8-.46-1.25,0Z"/><path class="cls-1" d="M115.1,85c-3.28-4-10-5.64-14.57-4.21A40.49,40.49,0,0,1,115.1,85Z"/><path class="cls-1" d="M102.53,85.26a2.58,2.58,0,0,1,2.36,0,2.39,2.39,0,0,1,.38,4l-.49.38a2.3,2.3,0,0,0,1.88-1.52,2.63,2.63,0,0,0-.41-2.67,2.51,2.51,0,0,0-3.45-.55,1.39,1.39,0,0,0-.27.38Z"/><path class="cls-1" d="M115.64,111.8a1.82,1.82,0,0,0,1.73-2,1.92,1.92,0,0,0-2-2,2.23,2.23,0,0,1,1.36,1.95A2.14,2.14,0,0,1,115.64,111.8Z"/><path class="cls-1" d="M118.85,120.06c1,.38,2-.27,2.35-1.49a1.79,1.79,0,0,0-1.21-2.36,2.09,2.09,0,0,1,.6,2.28A2.15,2.15,0,0,1,118.85,120.06Z"/><path class="cls-1" d="M123,93.67a2.26,2.26,0,0,1,1.52,3.62,1.18,1.18,0,0,0,.94-.91,2.26,2.26,0,0,0-.71-2.42A1.49,1.49,0,0,0,123,93.67Z"/><path class="cls-1" d="M119.86,107.48c1-.09,1.37-1.25,1.27-2a1.82,1.82,0,0,0-2-1.73l1,.69-.44.36c.67-.14.76.24.85.62C120.72,106.13,120.6,106.5,119.86,107.48Z"/><path class="cls-1" d="M124.22,109.45a2.1,2.1,0,0,1,.15,3.6c.71.11,1.39-.6,1.48-1.55A1.7,1.7,0,0,0,124.22,109.45Z"/><path class="cls-1" d="M116.15,126.42a2,2,0,0,1-2.32,2.31,1.46,1.46,0,0,0,2.18-.27A1.39,1.39,0,0,0,116.15,126.42Z"/><path class="cls-1" d="M119.83,90.2a1.43,1.43,0,0,0-.52-2.09c-.76-.5-1.8-.47-2.1.34a1.67,1.67,0,0,1,1.85.08A1.82,1.82,0,0,1,119.83,90.2Z"/><path class="cls-1" d="M108.11,132.74a1.51,1.51,0,0,0,2.2.31,1.4,1.4,0,0,0,.5-2,1.79,1.79,0,0,1-.81,1.6A1.84,1.84,0,0,1,108.11,132.74Z"/><path class="cls-1" d="M117.12,93.34a1.82,1.82,0,0,1,1.36,2.77,1.26,1.26,0,0,0,.61-1.71A1.46,1.46,0,0,0,117.12,93.34Z"/><path class="cls-1" d="M100.18,136.21c-1.07,1.26-2,1.37-3,.38l-.13.09a3.26,3.26,0,0,0,.65.77,1.69,1.69,0,0,0,1.88,0A1.17,1.17,0,0,0,100.18,136.21Z"/><path class="cls-1" d="M123.18,99.63a1.73,1.73,0,0,1,.7,2.8,1.28,1.28,0,0,0,.84-1.59A1.34,1.34,0,0,0,123.18,99.63Z"/><path class="cls-1" d="M102.85,132.35a1.25,1.25,0,0,0,1.58.84,1.41,1.41,0,0,0,1.2-1.62,1.77,1.77,0,0,1-1.2,1.16A1.74,1.74,0,0,1,102.85,132.35Z"/><path class="cls-1" d="M105.47,83.15c0,.31,0,.53.11.65a.88.88,0,0,0,.52.29c.15,0,.32-.11.48-.17a1.62,1.62,0,0,0-.34-.43A5.08,5.08,0,0,0,105.47,83.15Z"/><path class="cls-1" d="M127,105.85a2,2,0,0,0,1.6-.35A1.08,1.08,0,0,0,127,105.85Z"/><path class="cls-1" d="M114.45,103.24l1.65-.13a1.54,1.54,0,0,0-1.67-.05Z"/><path class="cls-1" d="M92.75,137.93l1.68-.08C93.87,137.46,92.94,137.53,92.75,137.93Z"/><path class="cls-1" d="M124.6,105.63H123A1.22,1.22,0,0,0,124.6,105.63Z"/><path class="cls-1" d="M121,125.62l-1.82.16a2.61,2.61,0,0,0,1.83.06Z"/><path class="cls-1" d="M114.77,130.38c.37.43.8.39,1.3-.19Z"/><path class="cls-1" d="M120.07,122.45h-1.34C118.92,122.9,119,122.91,120.07,122.45Z"/><path class="cls-1" d="M111,90.71c.12.41.62.48,1.39.16Z"/><path class="cls-1" d="M113,94h-1.2a1.09,1.09,0,0,0,1.2.17Z"/><path class="cls-1" d="M127.92,104.15l1.18.17,0-.23-1.19-.14Z"/><path class="cls-1" d="M119.53,109.56c-.31-.56-.59-.44-.88-.3l0,.19Z"/><path class="cls-1" d="M125.78,102.57a.9.9,0,0,0,1-.06l0-.21-.93.11Z"/><path d="M84.93,91.64a2.83,2.83,0,0,0,2.82,2.78,2.87,2.87,0,0,0,2.84-2.72,2.83,2.83,0,1,0-5.66-.06Z"/><path d="M74,115.31a2.08,2.08,0,0,0,2.1-2A2.12,2.12,0,0,0,74,111.19a2.07,2.07,0,0,0-2.1,2C71.87,114.19,73,115.48,74,115.31Z"/><path d="M80.46,130.93a1.45,1.45,0,0,1,1.41-.93,17.93,17.93,0,0,1,1.92.08c.22,0,.42.23.62.35l.41.24a1.63,1.63,0,0,0,.14-.57,1.6,1.6,0,0,0-.77-1.18,3.25,3.25,0,0,0-3.4.07,2.66,2.66,0,0,0-.71.93A.72.72,0,0,0,80.46,130.93Z"/><path d="M91.33,91.87a3,3,0,0,0-.13-3.38A3.68,3.68,0,0,0,87.36,87a2.82,2.82,0,0,0-2.18,2,3.51,3.51,0,0,1,4.17-.85C90.89,88.8,91.4,90.13,91.33,91.87Z"/><path d="M76,96.77a1.51,1.51,0,0,0,1.53,1.34,1.36,1.36,0,0,0,1.29-1.32,1.52,1.52,0,0,0-1.48-1.35A1.37,1.37,0,0,0,76,96.77Z"/><path d="M110.42,118.72c-.19-.25-.37-.52-.57-.76a2.8,2.8,0,0,1-.84-2.56,4.55,4.55,0,0,1,.63-1.17,3.6,3.6,0,0,1,.46-.5,1.19,1.19,0,0,0-1.42.54,3.2,3.2,0,0,0,.76,4.36,3.57,3.57,0,0,0,.87.28Z"/><path d="M93.51,130.48a2.13,2.13,0,0,0-2.12,1.74,1.71,1.71,0,0,0,.16.61,4.17,4.17,0,0,0,.56-.18.7.7,0,0,0,.26-.25,2.18,2.18,0,0,1,1.69-.89,2.27,2.27,0,0,0,.68-.35,3.8,3.8,0,0,0-.65-.56A1.58,1.58,0,0,0,93.51,130.48Z"/><path d="M109.62,106.61a1.15,1.15,0,0,0-1.13,1.08,1.1,1.1,0,0,0,2.19,0A1,1,0,0,0,109.62,106.61Z"/><path d="M97.46,120.58c0,.45.52,1.09.94,1.08a.88.88,0,0,0,.53-.31c.24-.26.41-.6.66-.86a.47.47,0,0,0-.06-.8,1.26,1.26,0,0,0-1.33-.13A1.19,1.19,0,0,0,97.46,120.58Z"/><path d="M95.34,82.52c-.73.46-.78,1.64-.18,2.65s1.31,1.3,2,.92a3.31,3.31,0,0,0-.49-.44,2.39,2.39,0,0,1-1.29-2.88A1.05,1.05,0,0,0,95.34,82.52Z"/><path d="M104.26,121.26c0,.59.4,1,.9.92a.94.94,0,0,0-.15-1.87A.84.84,0,0,0,104.26,121.26Z"/><path d="M102,97.12a3.68,3.68,0,0,0-.53-.41,2,2,0,0,1-1.11-2.85.76.76,0,0,0,0-.23c-.55.06-.72.45-.8.85a2.25,2.25,0,0,0,.76,2.25A1.48,1.48,0,0,0,102,97.12Z"/><path d="M95.79,88.46a1.61,1.61,0,0,0-1,2,2.54,2.54,0,0,0,.61,1c.31.32.72.19,1-.25C95.12,90.67,95.33,89.62,95.79,88.46Z"/><path d="M86.25,125.15a.87.87,0,0,0-.8.86.93.93,0,0,0,.81.87.84.84,0,0,0,.79-.81A.91.91,0,0,0,86.25,125.15Z"/><path d="M99.59,91.26a.72.72,0,0,0,.81.69.74.74,0,0,0,.74-.71.8.8,0,0,0-.85-.73A.75.75,0,0,0,99.59,91.26Z"/><path d="M76.46,107.44a.81.81,0,0,0,.85.73.74.74,0,0,0,.69-.76.78.78,0,0,0-.78-.74A.75.75,0,0,0,76.46,107.44Z"/><path d="M87.34,132c-.22.15-.51.25-.6.45a1.2,1.2,0,0,0,0,.73.37.37,0,0,0,.32.17,3.54,3.54,0,0,0,.95-.4c.07,0,0-.42-.09-.57S87.59,132.1,87.34,132Z"/><path d="M77.42,127.83c.2.16.4.44.59.43a.75.75,0,0,0,.51-.5c0-.13-.26-.47-.44-.49s-.43.21-.65.33Z"/><path class="cls-1" d="M108.55,122.89h1.25C109.2,122.43,109,122.42,108.55,122.89Z"/><path d="M61.67,79.61c2.12.62,3.71,1,5.24,1.56A5.31,5.31,0,0,0,73,79.74c5.06-5,10.74-9.27,17.72-11.1,8-2.08,15.4-.76,21.71,5,1.33,1.21,2.68,2.42,4.11,3.51a9.07,9.07,0,0,0,2.71,1.42c1.54.48,2.2-.16,2.11-1.8a16.63,16.63,0,0,0-2.41-8.2c-2.93-4.6-.59-13.19,3.65-16.2,3.69-2.63,9.71-1.54,12.87,2.44a11.57,11.57,0,0,1,2,3.27c1.17,3.42,3.72,5.28,6.83,6.7a23.59,23.59,0,0,1,3.7,2.15c.35.24.36,1,.52,1.47-.46.13-1,.44-1.37.34-1.74-.41-3.47-.92-5.18-1.44-3-.91-5.93-1.77-9.08-1-2.76.67-3.62,2-3.42,4.77a16.39,16.39,0,0,0,2.74,8.23,8.36,8.36,0,0,1,1.18,6.65,23.54,23.54,0,0,1-4.31,9.61,3.79,3.79,0,0,1-3.59,1.67c-.72-.08-1.46,0-2.15-.14a31.05,31.05,0,0,0-13,.15c-6.67,1.39-13.41,1.26-20.16,1C86.8,98.16,83.4,98,80,97.67c-6.79-.74-11.12-5.11-14.77-10.37a36.17,36.17,0,0,1-2.63-4.18A19.06,19.06,0,0,1,61.67,79.61Z"/><path class="cls-1" d="M96.89,99.39c-2.18,0-4.41-.06-6.72-.13-3.49-.11-6.9-.24-10.25-.6-7.61-.82-12.1-5.92-15.49-10.79a37.12,37.12,0,0,1-2.7-4.29,9.54,9.54,0,0,1-.73-2.4c-.09-.4-.18-.84-.3-1.31l-.44-1.71,1.69.5,1.93.55c1.24.35,2.31.64,3.37,1A4.31,4.31,0,0,0,72.34,79c6.16-6.11,11.93-9.72,18.17-11.35,8.72-2.28,16.34-.53,22.63,5.2,1.33,1.21,2.64,2.39,4,3.45a8.1,8.1,0,0,0,2.41,1.26,1.24,1.24,0,0,0,.72.09,1.61,1.61,0,0,0,.1-.88,15.61,15.61,0,0,0-2.26-7.72c-3.33-5.23-.62-14.33,3.91-17.55,4.13-2.95,10.79-1.72,14.24,2.63a12.45,12.45,0,0,1,2.17,3.57c.92,2.69,2.8,4.52,6.29,6.11a24.61,24.61,0,0,1,3.86,2.24,2.31,2.31,0,0,1,.8,1.57,3.74,3.74,0,0,0,.09.4l.33,1-1,.28-.34.12a2.53,2.53,0,0,1-1.52.23c-1.92-.45-3.81-1-5.25-1.46-2.61-.8-5.57-1.71-8.55-1-2.23.55-2.83,1.38-2.66,3.72a15.41,15.41,0,0,0,2.57,7.74,9.34,9.34,0,0,1,1.33,7.41,24.65,24.65,0,0,1-4.5,10,4.76,4.76,0,0,1-4.5,2.06c-.26,0-.53,0-.8,0a7.34,7.34,0,0,1-1.46-.12,29.92,29.92,0,0,0-12.61.16A66.23,66.23,0,0,1,96.89,99.39ZM63,81a6.8,6.8,0,0,0,.5,1.63,35.42,35.42,0,0,0,2.56,4.06c3.13,4.5,7.25,9.21,14.06,9.95,3.28.36,6.51.48,10.1.59,7.14.22,13.56.3,19.92-1a31.87,31.87,0,0,1,13.44-.15,5.74,5.74,0,0,0,1.07.08c.33,0,.66,0,1,0a2.8,2.8,0,0,0,2.69-1.29,22.67,22.67,0,0,0,4.13-9.21,7.32,7.32,0,0,0-1-5.88,17.35,17.35,0,0,1-2.91-8.72c-.24-3.34,1-5,4.18-5.81,3.52-.86,6.75.14,9.61,1,1.4.43,3.24,1,5.08,1.42l0-.08a22.5,22.5,0,0,0-3.44-2c-2.68-1.22-5.94-3.16-7.36-7.28a10.76,10.76,0,0,0-1.84-3c-2.82-3.55-8.2-4.61-11.51-2.25-3.69,2.63-6.08,10.6-3.38,14.85a17.54,17.54,0,0,1,2.57,8.68,2.87,2.87,0,0,1-.87,2.58,2.67,2.67,0,0,1-2.54.23,10,10,0,0,1-3-1.57c-1.46-1.11-2.81-2.32-4.18-3.56C106,69.11,99,67.52,91,69.61c-5.89,1.54-11.38,5-17.27,10.84a6.27,6.27,0,0,1-7.19,1.66c-1-.36-2-.65-3.22-1Z"/><path d="M168.34,142.18a10.26,10.26,0,0,1-1.27,0c-1.18-.15-2.36-.3-3.53-.5a15.8,15.8,0,0,1-2.78-.61,21.87,21.87,0,0,1-6-3.75,4.74,4.74,0,0,0-2.65-1,5.86,5.86,0,0,1-2.11-.53c-1.45-.77-2.85-1.64-4.23-2.53-1.54-1-3-2.05-4.55-3.07a1.51,1.51,0,0,0-.71-.32c-.9,0-1.8,0-2.7,0a.89.89,0,0,1-.9-.32q-1.31-1.69-2.66-3.35a22.39,22.39,0,0,0-3.8-4,1.84,1.84,0,0,0-2.09-.3c-.24.12-.5.18-.74.3-2.33,1.21-4.68,2.39-7,3.64-2.16,1.17-4.28,2.42-6.42,3.63l-3.6,2-2.83-4.14c-.76.55-1.52,1-2.17,1.59a6.27,6.27,0,0,1-3.3,1.42.51.51,0,0,1-.58-.25c-.54-.75-1.09-1.5-1.68-2.21a11.4,11.4,0,0,0-2.91-2.84c-.67-.38-1.11-.42-1.65.14-.92,1-1.77,2-2.61,3a4.57,4.57,0,0,1-1.74,1.49,8.61,8.61,0,0,1-4.56.75,1.92,1.92,0,0,1-1.4-.7,7.3,7.3,0,0,0-2.52-2.08,2,2,0,0,0-2,0c-1.66.93-3.35,1.83-5,2.72-1.18-1-2.36-2-3.47-3.06a1.63,1.63,0,0,0-2.21-.07c-.4.24-.79.51-1.18.77-.2.13-.34.15-.5-.09-1-1.45-1.94-2.88-2.91-4.32-.79-1.17-1.52-2.38-2.36-3.5a1.83,1.83,0,0,0-2.93-.36c-1.22,1-2.34,2.21-3.5,3.34A13.55,13.55,0,0,1,55,124.8a47.38,47.38,0,0,0-9.27,7.76,23.29,23.29,0,0,1-4.51,4,17.78,17.78,0,0,1-1.79,1,6.76,6.76,0,0,0-1,.39c-1,.75-2,1.55-2.93,2.33a10.32,10.32,0,0,1-1.14.89,5.89,5.89,0,0,1-3.37.94c-1.77-.09-3.55,0-5.32,0v.38c1.2.39,2.4.81,3.61,1.17a18.73,18.73,0,0,0,6.69,1c1.44-.1,2.88-.2,4.32-.24a13.2,13.2,0,0,1,2.05.18c.66.09,1.32.29,2,.33,2.33.15,4.66.3,7,.37,4.12.12,8.25.16,12.38.29,2.62.08,5.24.17,7.84.43,2.39.24,4.78.39,7.18.44,2.16,0,4.33.11,6.49.17l1.87.08a1.66,1.66,0,0,1,1.09-1.26,4.91,4.91,0,0,1,1.34-.4c1.23-.13,2.47-.18,3.7-.3a2,2,0,0,0,1.69-.75,1,1,0,0,1,.81-.53,12.47,12.47,0,0,1,1.36-.12c1.52,0,3,.06,4.56.07,5.38,0,10.76,0,16.14.4a23.73,23.73,0,0,1,5.37.81,26.4,26.4,0,0,0,7.36,1.28,14.74,14.74,0,0,0,7-1.39,11.5,11.5,0,0,1,6.13-1.28c2.43.2,4.86.48,7.3.67s4.81.34,7.23.43A67.57,67.57,0,0,0,171.64,143c.9-.15,1.8-.26,2.72-.38v-.47ZM54.72,125.37a17.94,17.94,0,0,0,2.69-2.67c.93-.89,1.83-1.81,2.8-2.64a1.49,1.49,0,0,1,2.19-.11.51.51,0,0,1,.19.38c-.17,1.16-.3,2.32-.56,3.46a5,5,0,0,1-2.63,3.2c-.72.41-1.43.84-2.12,1.29a2.21,2.21,0,0,0-1,1.39,2.07,2.07,0,0,1-.45.81,9.51,9.51,0,0,1-2.6,2.13,1,1,0,0,1-1,.06,4.26,4.26,0,0,0-2.71-.24,1.32,1.32,0,0,0-.6.26,5.57,5.57,0,0,1-2.27,1.06c-.83.27-1.65.57-2.4.83A46.26,46.26,0,0,1,54.72,125.37Zm9,7.3a4,4,0,0,0-1.72.69,1.15,1.15,0,0,1-.73.13,6.53,6.53,0,0,0-2.83-.12,1.83,1.83,0,0,0-.82.42,27,27,0,0,0-3.59,4.58.68.68,0,0,0,0,.16c.76-.41,1.47-.82,2.21-1.17a19.52,19.52,0,0,1,1.87-.73c.37-.13.86-.15,1,.22s-.17.68-.54.88a5.15,5.15,0,0,0-.75.48.66.66,0,0,0-.11,1,1.47,1.47,0,0,0,1.25.63c.84,0,1.68,0,2.61,0a4.59,4.59,0,0,1-3.73,2.33,14,14,0,0,0-5.76,1.49,3.1,3.1,0,0,1-2.24.15c-.75-.2-1-.79-.81-1.74a6.76,6.76,0,0,1,1.54-3c1.07-1.21,2.14-2.41,3.17-3.7l-.7.36c-2.29,1.25-4.58,2.52-6.89,3.75a3,3,0,0,1-1.17.25c-.83.06-1.66.06-2.49.1a1.37,1.37,0,0,0-.55.11,18,18,0,0,1-4.53,1.1,4.86,4.86,0,0,0-.55.1c-.52.18-.85-.08-1.21-.56.69-.58,1.37-1.21,2.1-1.75a3.81,3.81,0,0,1,2.2-.94c.46,0,.9-.45,1.37-.66,1.16-.51,2.32-1,3.5-1.47.44-.18.93-.23,1.39-.4.7-.25,1.4-.51,2.08-.83a5.36,5.36,0,0,1,2.9-.81c1.59.21,2.71-.59,3.9-1.37a8.18,8.18,0,0,0,2.24-2.38,10.68,10.68,0,0,1,.65-.86,1.86,1.86,0,0,1,1.31-.75,3.27,3.27,0,0,0,2.29-1.24c.52-.58,1.11-.6,1.53.06a7.28,7.28,0,0,1,.84,2,6.26,6.26,0,0,0,.7,2.4l.64.84A14,14,0,0,1,63.75,132.67Zm41.46-2.47c.18,0,.39-.19.54-.34a3.15,3.15,0,0,1,2.07-.95c.21.27.45.6.72.9a1.18,1.18,0,0,1,.16,1.43c-.24.49-.51,1-.78,1.43s-.42.46-.79.18a6.17,6.17,0,0,0-1.21-.8,3,3,0,0,0-1.08-.19,2.85,2.85,0,0,1-2-.77C103.78,131,104.31,130.21,105.21,130.21Zm-6.62.58a3,3,0,0,0,.58-2.07l.46.72c.49.78,1,1.55,1.47,2.34a1,1,0,0,1,.05.64c-.13.57-.32,1.14-.46,1.71a2.5,2.5,0,0,1-1.6,1.72c-.38.16-.73.4-1.11.55a3.11,3.11,0,0,1-.78.12,11.65,11.65,0,0,0-4.06.87c1.28-1.24,2.64-2.51,3.93-3.84.25-.26.28-.73.42-1.1a2.89,2.89,0,0,1,.29-.62A12.93,12.93,0,0,1,98.59,130.78Zm-6.21,13.4a19,19,0,0,1-2.16,0,8,8,0,0,0-3.59.94,3.72,3.72,0,0,1-1.33.37,27.76,27.76,0,0,1-6.34-.57,40.44,40.44,0,0,0-6.23-.75c-1.38,0-2.76-.31-4.14-.48l-2.11-.27,1.32-1.69a1.5,1.5,0,0,1,1.46-.66,3.13,3.13,0,0,0,2.24-.8c.45-.32.85-.69,1.29-1,.74-.54,1.5-1.07,2.25-1.6.54-.38,1.08-.75,1.59-1.16a.54.54,0,0,1,.69-.07,3.62,3.62,0,0,1,2,3.08c.09.8.22,1.6.34,2.44.39-.54.77-1,1.13-1.57a1.33,1.33,0,0,1,1.44-.72,3,3,0,0,0,.56,0c.79,0,1,.29,1.16,1a6.34,6.34,0,0,0,.87,1.57s.18,0,.27,0,.24-.06.37-.08c.71-.1.77-.06,1,.61l.41,1.2.57-1.14a.67.67,0,0,1,.9-.36,2.58,2.58,0,0,1,.83.31,3.12,3.12,0,0,0,2.55.47,4.3,4.3,0,0,1,2.38.54A15.27,15.27,0,0,1,92.38,144.18Zm67.18-.07-2.79-.51a17.06,17.06,0,0,1-1.69-.36,11.58,11.58,0,0,1-1.69-.64,6.08,6.08,0,0,0-3.43-.52,18,18,0,0,1-2.4.39c-1.55,0-3.09-.21-4.63-.35-.27,0-.52-.25-.79-.27-.59,0-1.18,0-1.77,0h-.74l-.07-.2a2.89,2.89,0,0,1,.51-.47c.38-.21.82-.33,1.19-.56s.76-.62,1.15-.92,1-.71,1.48-1a3.22,3.22,0,0,0-.39,0c-.17,0-.33.1-.49.15a12.06,12.06,0,0,0-4.76,2.55,9.33,9.33,0,0,1-5.24,2.28,35.37,35.37,0,0,1-3.54.41,18.73,18.73,0,0,1-2.75-.26c-1.49-.17-3-.4-4.48-.51a1.85,1.85,0,0,1-1.78-1.18c-.21-.52-.14-.77.36-1s1.13-.53,1.69-.8a1.5,1.5,0,0,0,.84-1.09c-.71.15-1.39.31-2.08.44a6.2,6.2,0,0,1-1.3.15,9.76,9.76,0,0,0-4.74,1.14,14.18,14.18,0,0,1-3.69,1c-3.16.65-6.34.36-9.51.29a23.08,23.08,0,0,0-5.28.76c-.35.07-.72.08-1.06.17a3.19,3.19,0,0,0-.89.36c-.22.14-.4.19-.57,0s-.72-.3-.77-.79c0-.06-.4-.12-.61-.11-.69,0-1.38.08-2.07.06a2.49,2.49,0,0,1-1.07-.24c-2-1.06-4-2.18-6-3.22A8.34,8.34,0,0,1,81.94,138a5.43,5.43,0,0,0-1.19-.79c-2-1-4.09-1.89-6.08-2.94A19.3,19.3,0,0,1,72,132.41a1.46,1.46,0,0,1-.3-.56,5.35,5.35,0,0,0-.56-1.2c-.55-.66-1.19-1.24-1.75-1.82.35-.34.7-.72,1.09-1.05a.52.52,0,0,1,.47,0c.64.37,1.26.76,1.87,1.16a1,1,0,0,1,.38.46,1.83,1.83,0,0,0,1.57,1.15c.82.18.94.5.49,1.23-.13.21-.27.42-.41.63a2,2,0,0,0-.33.65c.41-.26.83-.49,1.22-.78.68-.5,1.33-1,2-1.56a.64.64,0,0,0,.23-.29c.13-.49.48-.6.93-.66a7.16,7.16,0,0,1,2.74-.11c.37.1.68.28.69.72a.66.66,0,0,1-.15.36c-.17.23-.37.43-.53.67s-.34.63-.55.93a3.43,3.43,0,0,0-.59,2.22,9.1,9.1,0,0,1,1.85-1.38,2.93,2.93,0,0,1,2.29-.33,11.87,11.87,0,0,1,2,.73c1.1-.63,2.25-1.27,3.36-2a5.06,5.06,0,0,0,.91-.86,6.7,6.7,0,0,1,.57-.67c1.21-1,1.89-2.37,2.93-3.47.49-.52,1-1,1.51-1.51l.2.06c.23.55.47,1.1.69,1.65a.29.29,0,0,1,0,.26c-.38.3-.17.59,0,.86a3.15,3.15,0,0,1,.53,2.66c-.1.34-.24.67-.37,1A7.64,7.64,0,0,1,94.65,135a5.61,5.61,0,0,0-1.59,2,1.81,1.81,0,0,1-1.21,1,2,2,0,0,0-.71.36,13.67,13.67,0,0,0,1.34-.5,11,11,0,0,1,4.64-1,17.26,17.26,0,0,0,6-1.4c.88-.35,1.81-.57,2.71-.87.69-.23,1.38-.5,2.07-.75.5-.18,1-.38,1.5-.52a8.62,8.62,0,0,0,4-2.74,3.42,3.42,0,0,1,1.86-1.16,5.92,5.92,0,0,0,1-.34c.6-.25.66-.24.91.34,0,.08.09.16.16.29a4.21,4.21,0,0,0,.46-.41,12.09,12.09,0,0,1,4.13-2.8c.56-.28,1.17-.45,1.73-.72a1.93,1.93,0,0,0,.77-.59A5.41,5.41,0,0,1,128.2,123a3,3,0,0,1,0,2.44,11,11,0,0,1-2.44,4.12,8.73,8.73,0,0,1-3.05,2,.94.94,0,0,0-.36.34l-2,2.54c1-.4,1.62-1.59,2.83-2L123,133l.11.09c.52-.43,1.05-.86,1.57-1.3s1.22-1,1.79-1.59a3.08,3.08,0,0,0,.62-.92,10.9,10.9,0,0,1,2.68-3.53,5.61,5.61,0,0,1,.57-.39c0,.69,0,1.29,0,1.89a18.18,18.18,0,0,0,.12,2.24c.11.69.55.94,1.24.76.52-.14,1-.37,1.54-.54a.93.93,0,0,1,.53-.08,6.42,6.42,0,0,1,3.76,3c.41.76.22,1.29-.6,1.52a11.66,11.66,0,0,1-2,.31,16.5,16.5,0,0,0-3.73.37,26,26,0,0,0-5.57,2.73c.9.22,1.83.41,2.73.67a1.73,1.73,0,0,1,1.2,1.27,11,11,0,0,0,.76,1.66c.06.11.24.26.34.25,1.7-.27,3.39-.53,5.08-.86a2.2,2.2,0,0,0,1.08-.62,7.63,7.63,0,0,1,2.72-1.72,16.89,16.89,0,0,1,4.74-1.41,3.06,3.06,0,0,1,2.62.86c.47.47.57.47,1,0a1.16,1.16,0,0,1,1.39-.19,5.12,5.12,0,0,1,2.23,1.68,6.69,6.69,0,0,0,3.56,2.21,8.74,8.74,0,0,1,3,1.27l1.56,1.31Z"/><path class="cls-1" d="M155.08,141.37a6.69,6.69,0,0,1-3.56-2.21,5.12,5.12,0,0,0-2.23-1.68,1.16,1.16,0,0,0-1.39.19c-.46.46-.56.46-1,0a3.06,3.06,0,0,0-2.62-.86,16.89,16.89,0,0,0-4.74,1.41,7.63,7.63,0,0,0-2.72,1.72,2.2,2.2,0,0,1-1.08.62c-1.68.33-3.38.6-5.08.86-.1,0-.28-.13-.34-.25a11,11,0,0,1-.76-1.66,1.73,1.73,0,0,0-1.2-1.27c-.9-.26-1.83-.45-2.73-.67a26,26,0,0,1,5.57-2.73,16.5,16.5,0,0,1,3.73-.37,11.66,11.66,0,0,0,2-.31c.82-.23,1-.76.6-1.52a6.42,6.42,0,0,0-3.76-3,.93.93,0,0,0-.53.08c-.52.17-1,.4-1.54.54-.68.18-1.13-.06-1.24-.76a18.18,18.18,0,0,1-.12-2.24c0-.6,0-1.2,0-1.89a5.61,5.61,0,0,0-.57.39,10.9,10.9,0,0,0-2.68,3.53,3.08,3.08,0,0,1-.62.92c-.57.56-1.19,1.07-1.79,1.59s-1,.87-1.57,1.3L123,133l.23-.65c-1.22.41-1.79,1.59-2.83,2l2-2.54a.94.94,0,0,1,.36-.34,8.73,8.73,0,0,0,3.05-2,11,11,0,0,0,2.44-4.12,3,3,0,0,0,0-2.44,5.41,5.41,0,0,0-3.69,2.17,1.93,1.93,0,0,1-.77.59c-.56.27-1.17.44-1.73.72a12.09,12.09,0,0,0-4.13,2.8,4.21,4.21,0,0,1-.46.41c-.08-.13-.13-.21-.16-.29-.25-.58-.31-.59-.91-.34a5.92,5.92,0,0,1-1,.34,3.42,3.42,0,0,0-1.86,1.16,8.62,8.62,0,0,1-4,2.74c-.51.14-1,.34-1.5.52-.69.25-1.37.51-2.07.75-.9.3-1.83.52-2.71.87a17.26,17.26,0,0,1-6,1.4,11,11,0,0,0-4.64,1,13.67,13.67,0,0,1-1.34.5,2,2,0,0,1,.71-.36,1.81,1.81,0,0,0,1.21-1,5.61,5.61,0,0,1,1.59-2A7.64,7.64,0,0,0,97,131.56c.13-.33.26-.66.37-1a3.15,3.15,0,0,0-.53-2.66c-.17-.28-.38-.57,0-.86a.29.29,0,0,0,0-.26c-.22-.55-.46-1.1-.69-1.65l-.2-.06c-.5.5-1,1-1.51,1.51-1,1.1-1.71,2.51-2.93,3.47a6.7,6.7,0,0,0-.57.67,5.06,5.06,0,0,1-.91.86c-1.11.69-2.26,1.32-3.36,2a11.87,11.87,0,0,0-2-.73,2.93,2.93,0,0,0-2.29.33,9.1,9.1,0,0,0-1.85,1.38,3.43,3.43,0,0,1,.59-2.22c.21-.29.35-.63.55-.93s.36-.44.53-.67a.66.66,0,0,0,.15-.36c0-.43-.32-.62-.69-.72a7.16,7.16,0,0,0-2.74.11c-.45.05-.8.17-.93.66a.64.64,0,0,1-.23.29c-.66.53-1.31,1.06-2,1.56-.39.29-.81.52-1.22.78a2,2,0,0,1,.33-.65c.14-.21.28-.41.41-.63.45-.73.33-1.05-.49-1.23a1.83,1.83,0,0,1-1.57-1.15,1,1,0,0,0-.38-.46c-.61-.41-1.23-.8-1.87-1.16a.52.52,0,0,0-.47,0c-.39.34-.75.71-1.09,1.05.56.58,1.2,1.16,1.75,1.82a5.35,5.35,0,0,1,.56,1.2,1.46,1.46,0,0,0,.3.56,19.3,19.3,0,0,0,2.62,1.89c2,1,4.06,2,6.08,2.94a5.43,5.43,0,0,1,1.19.79,8.34,8.34,0,0,0,1.72,1.19c2,1,4,2.16,6,3.22a2.49,2.49,0,0,0,1.07.24c.69,0,1.38-.05,2.07-.06.21,0,.61.06.61.11,0,.49.53.52.77.79s.35.15.57,0a3.19,3.19,0,0,1,.89-.36c.35-.09.71-.1,1.06-.17a23.08,23.08,0,0,1,5.28-.76c3.18.07,6.35.36,9.51-.29a14.18,14.18,0,0,0,3.69-1,9.76,9.76,0,0,1,4.74-1.14,6.2,6.2,0,0,0,1.3-.15c.69-.13,1.38-.29,2.08-.44a1.5,1.5,0,0,1-.84,1.09c-.56.27-1.13.53-1.69.8s-.58.5-.36,1a1.85,1.85,0,0,0,1.78,1.18c1.5.12,3,.34,4.48.51a18.73,18.73,0,0,0,2.75.26,35.37,35.37,0,0,0,3.54-.41,9.33,9.33,0,0,0,5.24-2.28A12.06,12.06,0,0,1,143,138.9c.16,0,.32-.11.49-.15a3.22,3.22,0,0,1,.39,0c-.48.34-1,.68-1.48,1s-.74.65-1.15.92-.8.35-1.19.56a2.89,2.89,0,0,0-.51.47l.07.2h.74c.59,0,1.18-.06,1.77,0,.27,0,.52.24.79.27,1.54.14,3.09.32,4.63.35a18,18,0,0,0,2.4-.39,6.08,6.08,0,0,1,3.43.52,11.58,11.58,0,0,0,1.69.64,17.06,17.06,0,0,0,1.69.36l2.79.51.07-.16-1.56-1.31A8.74,8.74,0,0,0,155.08,141.37ZM95.37,128.32a2.17,2.17,0,0,1-.29,2.14,1.62,1.62,0,0,0-.3.47,2.77,2.77,0,0,1-1.13,1.36Zm-5.84,7.09a.7.7,0,0,1-.59,0c-.34-.17-.59-.12-.76.18-.63,1.11-1.81,1.27-2.84,1.63-.37.13-.88-.16-1.33-.25l0-.14,1-.18a3.71,3.71,0,0,0,2.49-1.43,1.68,1.68,0,0,1,.8-.63A7.58,7.58,0,0,0,92,132a2.3,2.3,0,0,1,.38-.35A9.36,9.36,0,0,1,89.53,135.41Zm6.67,3.72,1.9-.09,0,.16a21.64,21.64,0,0,1-5.69,1.67l-.1-.13c.42-.41.8-.85,1.25-1.21a6.41,6.41,0,0,1,2.86-1.21c1.17-.23,2.33-.52,3.48-.78-1,1-2.42,1.14-3.77,1.44Zm25.18-2.27a24.08,24.08,0,0,0-3,1.41,8.38,8.38,0,0,1-2.5.71c-1.45.28-2.88.68-4.32,1a6.27,6.27,0,0,1-1.21.15.51.51,0,0,1-.35-.28c-.22-.52-.35-1.07-.6-1.57a1.2,1.2,0,0,0-1.42-.65c-.8.13-1.6.25-2.41.34-.15,0-.32-.15-.49-.23a2.09,2.09,0,0,0-.63-.24c-1.22-.08-2.44-.14-3.68-.28,1.42-.43,2.85-.84,4.27-1.28s2.86-.88,4.28-1.37,2.84-1,4.39-1.59l-3.53,2.16,0,.18c.24.06.49.14.73.18a2.93,2.93,0,0,0,.56,0,2.59,2.59,0,0,1,2.16.83,2.73,2.73,0,0,0,2.73.71c1-.22,2-.22,3-.42a12,12,0,0,0,5.81-2.55,8.11,8.11,0,0,1,.75-.53l.08.09c-.6.53-1.21,1.05-1.8,1.59A8.56,8.56,0,0,1,121.37,136.86Z"/><path class="cls-1" d="M64,129.15a7.28,7.28,0,0,0-.84-2c-.42-.66-1-.64-1.53-.06a3.27,3.27,0,0,1-2.29,1.24,1.86,1.86,0,0,0-1.31.75,10.68,10.68,0,0,0-.65.86,8.18,8.18,0,0,1-2.24,2.38c-1.19.78-2.31,1.58-3.9,1.37a5.36,5.36,0,0,0-2.9.81c-.67.32-1.37.58-2.08.83-.45.16-.94.22-1.39.4-1.18.47-2.34,1-3.5,1.47-.47.2-.91.65-1.37.66a3.81,3.81,0,0,0-2.2.94c-.74.54-1.41,1.16-2.1,1.75.35.48.69.74,1.21.56a4.86,4.86,0,0,1,.55-.1,18,18,0,0,0,4.53-1.1,1.37,1.37,0,0,1,.55-.11c.83,0,1.66,0,2.49-.1a3,3,0,0,0,1.17-.25c2.31-1.23,4.59-2.49,6.89-3.75l.7-.36c-1,1.28-2.1,2.49-3.17,3.7A6.76,6.76,0,0,0,49,142c-.22,1,.06,1.54.81,1.74a3.1,3.1,0,0,0,2.24-.15,14,14,0,0,1,5.76-1.49,4.59,4.59,0,0,0,3.73-2.33c-.92,0-1.77,0-2.61,0a1.47,1.47,0,0,1-1.25-.63.66.66,0,0,1,.11-1,5.15,5.15,0,0,1,.75-.48c.36-.19.68-.53.54-.88s-.64-.35-1-.22a19.52,19.52,0,0,0-1.87.73c-.74.35-1.45.77-2.21,1.17a.68.68,0,0,1,0-.16,27,27,0,0,1,3.59-4.58,1.83,1.83,0,0,1,.82-.42,6.53,6.53,0,0,1,2.83.12,1.15,1.15,0,0,0,.73-.13,4,4,0,0,1,1.72-.69,14,14,0,0,0,1.55-.28l-.64-.84A6.26,6.26,0,0,1,64,129.15Z"/><path class="cls-1" d="M91.72,143.32a3.12,3.12,0,0,1-2.55-.47,2.58,2.58,0,0,0-.83-.31.67.67,0,0,0-.9.36L86.88,144l-.41-1.2c-.23-.67-.29-.71-1-.61-.12,0-.24.06-.37.08s-.24,0-.27,0a6.34,6.34,0,0,1-.87-1.57c-.19-.75-.38-1-1.16-1a3,3,0,0,1-.56,0,1.33,1.33,0,0,0-1.44.72c-.36.52-.74,1-1.13,1.57-.12-.84-.24-1.64-.34-2.44a3.62,3.62,0,0,0-2-3.08.54.54,0,0,0-.69.07c-.52.41-1.06.78-1.59,1.16-.75.53-1.51,1.06-2.25,1.6-.44.32-.85.7-1.29,1a3.13,3.13,0,0,1-2.24.8,1.5,1.5,0,0,0-1.46.66l-1.32,1.69,2.11.27c1.38.17,2.75.44,4.14.48a40.44,40.44,0,0,1,6.23.75,27.76,27.76,0,0,0,6.34.57,3.72,3.72,0,0,0,1.33-.37,8,8,0,0,1,3.59-.94,19,19,0,0,0,2.16,0,15.27,15.27,0,0,0,1.72-.33A4.3,4.3,0,0,0,91.72,143.32Z"/><path class="cls-1" d="M48.92,132.69a1.32,1.32,0,0,1,.6-.26,4.26,4.26,0,0,1,2.71.24,1,1,0,0,0,1-.06,9.51,9.51,0,0,0,2.6-2.13,2.07,2.07,0,0,0,.45-.81,2.21,2.21,0,0,1,1-1.39c.7-.45,1.4-.88,2.12-1.29a5,5,0,0,0,2.63-3.2c.26-1.14.39-2.3.56-3.46a.51.51,0,0,0-.19-.38,1.49,1.49,0,0,0-2.19.11c-1,.83-1.88,1.75-2.8,2.64a17.94,17.94,0,0,1-2.69,2.67,46.26,46.26,0,0,0-10.48,9.21c.75-.26,1.58-.56,2.4-.83A5.57,5.57,0,0,0,48.92,132.69Z"/><path class="cls-1" d="M97.08,133.54c-1.3,1.33-2.66,2.6-3.93,3.84a11.65,11.65,0,0,1,4.06-.87,3.11,3.11,0,0,0,.78-.12c.38-.15.73-.39,1.11-.55a2.5,2.5,0,0,0,1.6-1.72c.15-.57.33-1.13.46-1.71a1,1,0,0,0-.05-.64c-.47-.79-1-1.56-1.47-2.34l-.46-.72a3,3,0,0,1-.58,2.07,12.93,12.93,0,0,0-.81,1,2.89,2.89,0,0,0-.29.62C97.36,132.81,97.33,133.28,97.08,133.54Z"/><path class="cls-1" d="M105.93,132.06a6.17,6.17,0,0,1,1.21.8c.37.29.6.16.79-.18s.54-.94.78-1.43a1.18,1.18,0,0,0-.16-1.43c-.27-.3-.51-.63-.72-.9a3.15,3.15,0,0,0-2.07.95c-.16.15-.36.34-.54.34-.9,0-1.43.84-2.33.9a2.85,2.85,0,0,0,2,.77A3,3,0,0,1,105.93,132.06Z"/><path d="M126,133.58a8.11,8.11,0,0,0-.75.53,12,12,0,0,1-5.81,2.55c-1,.2-2,.2-3,.42a2.73,2.73,0,0,1-2.73-.71,2.59,2.59,0,0,0-2.16-.83,2.93,2.93,0,0,1-.56,0c-.25,0-.49-.12-.73-.18l0-.18,3.53-2.16c-1.55.56-3,1.1-4.39,1.59s-2.85.93-4.28,1.37-2.85.86-4.27,1.28c1.24.14,2.46.19,3.68.28a2.09,2.09,0,0,1,.63.24c.17.07.34.24.49.23.8-.09,1.61-.21,2.41-.34a1.2,1.2,0,0,1,1.42.65c.25.5.38,1.05.6,1.57a.51.51,0,0,0,.35.28,6.27,6.27,0,0,0,1.21-.15c1.44-.33,2.87-.74,4.32-1a8.38,8.38,0,0,0,2.5-.71,24.08,24.08,0,0,1,3-1.41,8.56,8.56,0,0,0,2.88-1.6c.59-.54,1.2-1.06,1.8-1.59Z"/><path d="M96.45,138.32a6.41,6.41,0,0,0-2.86,1.21c-.45.36-.84.8-1.25,1.21l.1.13a21.64,21.64,0,0,0,5.69-1.67l0-.16-1.9.09,0-.15c1.34-.3,2.74-.47,3.77-1.44C98.78,137.8,97.62,138.09,96.45,138.32Z"/><path d="M92,132a7.58,7.58,0,0,1-3.67,2.65,1.68,1.68,0,0,0-.8.63A3.71,3.71,0,0,1,85,136.67l-1,.18,0,.14c.45.1,1,.38,1.33.25,1-.36,2.22-.52,2.84-1.63.17-.3.43-.34.76-.18a.7.7,0,0,0,.59,0,9.36,9.36,0,0,0,2.85-3.79A2.3,2.3,0,0,0,92,132Z"/><path d="M94.79,130.93a1.62,1.62,0,0,1,.3-.47,2.17,2.17,0,0,0,.29-2.14l-1.72,4A2.77,2.77,0,0,0,94.79,130.93Z"/></svg>