<svg id="Capa_1" data-name="Capa 1" xmlns="http://www.w3.org/2000/svg" viewBox="0 0 240 62"><defs><style>.cls-1{fill:#211915;}.cls-2{fill:#fff;}</style></defs><title>Hotel_Patito</title><path class="cls-1" d="M144,13.93a7.66,7.66,0,0,1-1.42,3.89,8.14,8.14,0,0,1-3.1,2.58,18.3,18.3,0,0,1-8.35,1.82,11,11,0,0,1-1.55-.1q-2.8,7.07-2.8,9.53a1.55,1.55,0,0,0,.13.74h-4.34a76.26,76.26,0,0,1,4-11.32q4-9.63,5.22-10.95A17.85,17.85,0,0,0,126,11.29q-2.95,1.09-3.42,2.61a.13.13,0,0,1-.13.1q-.3,0-.3-.44a1.92,1.92,0,0,1,.07-.34,6.29,6.29,0,0,1,1.85-2.86,5.48,5.48,0,0,1,2.37-1.25,14.81,14.81,0,0,1,2.88-.24h8.52a7.06,7.06,0,0,1,4.63,1.31,4.13,4.13,0,0,1,1.57,3.3Zm-9,6.8a9.31,9.31,0,0,0,4-2.58A6,6,0,0,0,140.56,14q0-3.84-4.65-4.14-2.22,2.76-5.39,10l-.71,1.65h.4A14.56,14.56,0,0,0,135.05,20.73Z"/><path class="cls-1" d="M152.82,18.91l1.68,0h.34q-1.11.91-2.73,4.6a15.61,15.61,0,0,0-1.62,5.37q0,.88.61.88,2,0,5-5.76c.09-.16.17-.24.24-.24s.2.21.2.62a2.32,2.32,0,0,1-.34,1.2q-4.14,7-6.94,7-1.82,0-1.82-2.8a12.36,12.36,0,0,1,.71-4.11q-3.84,6.8-7.11,6.8-2.26,0-2.26-3.1a12.19,12.19,0,0,1,1-4.78,11.34,11.34,0,0,1,2.95-4.13,6.22,6.22,0,0,1,4.21-1.7,4.34,4.34,0,0,1,2,.49,2.42,2.42,0,0,1,1.25,1.57,3.62,3.62,0,0,1,1.15-1.35A2.49,2.49,0,0,1,152.82,18.91ZM150,21.14a1.48,1.48,0,0,0-1.58-1.08q-2.22,0-4.31,3.08A10.17,10.17,0,0,0,142,28.65q0,1,.81,1a3.31,3.31,0,0,0,2.05-1.09A13,13,0,0,0,147,26Q149.12,22.72,150,21.14Z"/><path class="cls-1" d="M165.42,13.09q-1.65,1.15-3.71,5.86h3.4l0,0q0,.17-.37.59c-.25.28-.46.42-.64.42h-2.9q-2.66,6.6-2.66,8.49,0,1.28.81,1.28,1.18,0,2.76-2a11.23,11.23,0,0,0,1-1.48,29.7,29.7,0,0,1,1.62-2.49c.13,0,.2.18.2.54q0,1.28-2.79,5A13,13,0,0,1,160,31.55a3.85,3.85,0,0,1-2.32,1q-1.92,0-1.92-2.69a15.29,15.29,0,0,1,1.08-5.19v0a12.67,12.67,0,0,1-1.09,1.75c-.3.38-.48.57-.52.57s-.13-.14-.13-.42a3.73,3.73,0,0,1,.45-1.36q.46-.94,1.25-2.46T158,20h-2.26c-.07,0-.1-.05-.1-.15a1.2,1.2,0,0,1,.25-.52q.25-.37.39-.37h2.56q2.42-5.83,4.92-5.83Q165.25,13.12,165.42,13.09Z"/><path class="cls-1" d="M168.42,18.91l1.68,0h.34A7,7,0,0,0,169,21.14q-.89,1.79-1.33,2.69t-1,2.46a7.9,7.9,0,0,0-.56,2.53q0,1,.64,1a2.4,2.4,0,0,0,1.23-.59,6.58,6.58,0,0,0,1.3-1.25q.51-.66,1.13-1.67l1.08-1.75a3,3,0,0,1,.52-.74q.2,0,.2.62a2.32,2.32,0,0,1-.34,1.2q-1.25,2.09-2.27,3.49a12.74,12.74,0,0,1-2.34,2.44,4,4,0,0,1-2.39,1Q163,32.59,163,30a18.68,18.68,0,0,1,2.8-9Q167,18.92,168.42,18.91ZM173,14.47h-.13a1.9,1.9,0,0,0-1.3.57,3.62,3.62,0,0,0-.89,1.18A1.22,1.22,0,0,1,169.8,15a2.67,2.67,0,0,1,.81-1.77,2.21,2.21,0,0,1,1.55-.89,1.61,1.61,0,0,1,1.11.34,1.11,1.11,0,0,1,.37.86A1.13,1.13,0,0,1,173,14.47Z"/><path class="cls-1" d="M181.12,13.09q-1.65,1.15-3.71,5.86h3.4l0,0q0,.17-.37.59c-.25.28-.46.42-.64.42h-2.9q-2.66,6.6-2.66,8.49,0,1.28.81,1.28,1.18,0,2.76-2a11.23,11.23,0,0,0,1-1.48,29.7,29.7,0,0,1,1.62-2.49c.13,0,.2.18.2.54q0,1.28-2.79,5a13,13,0,0,1-2.19,2.26,3.85,3.85,0,0,1-2.32,1q-1.92,0-1.92-2.69a15.29,15.29,0,0,1,1.08-5.19v0a12.67,12.67,0,0,1-1.09,1.75c-.3.38-.48.57-.52.57s-.13-.14-.13-.42a3.73,3.73,0,0,1,.45-1.36q.46-.94,1.25-2.46t1.3-2.76h-2.26c-.07,0-.1-.05-.1-.15a1.2,1.2,0,0,1,.25-.52q.25-.37.39-.37h2.56q2.42-5.83,4.92-5.83Q180.95,13.12,181.12,13.09Z"/><path class="cls-1" d="M195.26,24.1c.07-.13.13-.2.2-.2s.2.17.2.51a3.32,3.32,0,0,1-1.3,2.68,3.94,3.94,0,0,1-2.42,1.06A3,3,0,0,1,190,27.5a11.65,11.65,0,0,1-2.88,3.77,6.51,6.51,0,0,1-4.29,1.38,3.78,3.78,0,0,1-2.75-1A4.18,4.18,0,0,1,179,28.5a11,11,0,0,1,1-4.35,10.21,10.21,0,0,1,2.9-3.86,6.58,6.58,0,0,1,4.33-1.62q4,0,4,4.24a9.23,9.23,0,0,1-.71,3.4A1.67,1.67,0,0,0,192,27Q193.71,27,195.26,24.1ZM189.64,22q-.13-1.78-1.62-1.79-2.32,0-4.55,4.51a10.48,10.48,0,0,0-1.21,4.51q0,2,1.75,2.12a3.46,3.46,0,0,0,2.68-1.53,16,16,0,0,0,2.07-3.39A3.1,3.1,0,0,1,187.62,24a2.07,2.07,0,0,1,.49-1.45,1.71,1.71,0,0,1,1.33-.54Z"/><rect class="cls-1" x="77.33" y="36.19" width="162.67" height="2.81"/><path class="cls-1" d="M107.72,54.31V45.72h1.14v3.53h4.46V45.72h1.14v8.59h-1.14v-4h-4.46v4Z"/><path class="cls-1" d="M116,50.13a4.67,4.67,0,0,1,1.15-3.35,3.9,3.9,0,0,1,3-1.21,4.11,4.11,0,0,1,2.15.57,3.71,3.71,0,0,1,1.46,1.58,5.15,5.15,0,0,1,.5,2.31,5.06,5.06,0,0,1-.53,2.34,3.6,3.6,0,0,1-1.49,1.56,4.27,4.27,0,0,1-2.09.53,4.06,4.06,0,0,1-2.17-.59,3.77,3.77,0,0,1-1.45-1.6A4.85,4.85,0,0,1,116,50.13Zm1.17,0a3.44,3.44,0,0,0,.83,2.45,2.91,2.91,0,0,0,4.21,0,3.65,3.65,0,0,0,.83-2.56,4.4,4.4,0,0,0-.35-1.83,2.72,2.72,0,0,0-1-1.21,2.81,2.81,0,0,0-1.53-.43,2.91,2.91,0,0,0-2.08.83A3.7,3.7,0,0,0,117.18,50.15Z"/><path class="cls-1" d="M127.88,54.31V46.74H125v-1h6.81v1H129v7.58Z"/><path class="cls-1" d="M133,54.31V45.72h6.21v1h-5.07v2.63h4.75v1h-4.75V53.3h5.27v1Z"/><path class="cls-1" d="M141,54.31V45.72h1.14V53.3h4.23v1Z"/><path class="cls-1" d="M155.36,53.3a3.6,3.6,0,0,1-1.14.87,3.08,3.08,0,0,1-1.33.29,2.63,2.63,0,0,1-2.09-.89,2.42,2.42,0,0,1-.63-1.62,2.25,2.25,0,0,1,.51-1.44,4.28,4.28,0,0,1,1.53-1.13,5.15,5.15,0,0,1-.77-1.08,1.9,1.9,0,0,1-.19-.8,1.79,1.79,0,0,1,.61-1.34,2.14,2.14,0,0,1,1.53-.57,2,2,0,0,1,1.44.54,1.73,1.73,0,0,1,.56,1.29q0,1.22-1.62,2.09l1.54,2a4.88,4.88,0,0,0,.41-1.2l1.1.23a6,6,0,0,1-.76,1.85,6.12,6.12,0,0,0,1.34,1.32l-.71.84A6.14,6.14,0,0,1,155.36,53.3Zm-.66-.83-1.93-2.4a3.7,3.7,0,0,0-1.15.95,1.53,1.53,0,0,0-.3.86,1.84,1.84,0,0,0,.42,1.08,1.38,1.38,0,0,0,1.18.56,2,2,0,0,0,1-.3A2.38,2.38,0,0,0,154.7,52.47Zm-1.48-3.64a2.81,2.81,0,0,0,.89-.71,1.19,1.19,0,0,0,.2-.67,1,1,0,0,0-.28-.72.94.94,0,0,0-.69-.28,1,1,0,0,0-.71.28.9.9,0,0,0-.28.67,1,1,0,0,0,.1.42,2.19,2.19,0,0,0,.31.47Z"/><path class="cls-1" d="M161.94,54.31V45.72h3.81a5.07,5.07,0,0,1,1.75.23,1.91,1.91,0,0,1,1,.82,2.44,2.44,0,0,1,.36,1.29,2.16,2.16,0,0,1-.59,1.54,3,3,0,0,1-1.83.8,3,3,0,0,1,.69.43A5.91,5.91,0,0,1,168,52l1.49,2.34h-1.43l-1.14-1.79q-.5-.77-.82-1.18a2.58,2.58,0,0,0-.58-.57,1.71,1.71,0,0,0-.52-.23,3.41,3.41,0,0,0-.63,0h-1.32v3.81Zm1.14-4.8h2.44a3.66,3.66,0,0,0,1.22-.16,1.3,1.3,0,0,0,.67-.52,1.39,1.39,0,0,0,.23-.77,1.28,1.28,0,0,0-.44-1,2.07,2.07,0,0,0-1.4-.39h-2.72Z"/><path class="cls-1" d="M170.61,54.31V45.72h6.21v1h-5.07v2.63h4.75v1h-4.75V53.3H177v1Z"/><path class="cls-1" d="M178.21,51.55l1.07-.09a2.37,2.37,0,0,0,.35,1.06,1.94,1.94,0,0,0,.86.67,3.27,3.27,0,0,0,1.32.25,3.16,3.16,0,0,0,1.15-.19,1.59,1.59,0,0,0,.74-.53A1.23,1.23,0,0,0,184,52a1.12,1.12,0,0,0-.23-.71,1.74,1.74,0,0,0-.77-.51,15.12,15.12,0,0,0-1.53-.42,7.81,7.81,0,0,1-1.66-.54,2.33,2.33,0,0,1-.92-.8,2,2,0,0,1-.3-1.07,2.18,2.18,0,0,1,.37-1.22,2.29,2.29,0,0,1,1.08-.86,4.09,4.09,0,0,1,1.58-.29,4.31,4.31,0,0,1,1.68.31,2.43,2.43,0,0,1,1.12.91,2.6,2.6,0,0,1,.42,1.35l-1.09.08A1.76,1.76,0,0,0,183.1,47a2.31,2.31,0,0,0-1.5-.42,2.4,2.4,0,0,0-1.5.38,1.13,1.13,0,0,0-.47.91,1,1,0,0,0,.33.76,4.53,4.53,0,0,0,1.71.61,11.34,11.34,0,0,1,1.9.55,2.6,2.6,0,0,1,1.11.88,2.13,2.13,0,0,1,.36,1.22,2.34,2.34,0,0,1-.39,1.29,2.58,2.58,0,0,1-1.13.94,3.93,3.93,0,0,1-1.66.34,4.94,4.94,0,0,1-2-.34,2.74,2.74,0,0,1-1.24-1A2.9,2.9,0,0,1,178.21,51.55Z"/><path class="cls-1" d="M186.25,50.13a4.67,4.67,0,0,1,1.15-3.35,3.9,3.9,0,0,1,3-1.21,4.11,4.11,0,0,1,2.14.57A3.71,3.71,0,0,1,194,47.72a5.15,5.15,0,0,1,.5,2.31,5.06,5.06,0,0,1-.53,2.34,3.6,3.6,0,0,1-1.49,1.56,4.27,4.27,0,0,1-2.09.53,4.06,4.06,0,0,1-2.17-.59,3.77,3.77,0,0,1-1.45-1.6A4.85,4.85,0,0,1,186.25,50.13Zm1.17,0a3.44,3.44,0,0,0,.83,2.45,2.91,2.91,0,0,0,4.21,0A3.65,3.65,0,0,0,193.3,50a4.4,4.4,0,0,0-.35-1.83,2.72,2.72,0,0,0-1-1.21,2.81,2.81,0,0,0-1.53-.43,2.91,2.91,0,0,0-2.08.83A3.7,3.7,0,0,0,187.42,50.15Z"/><path class="cls-1" d="M196,54.31V45.72h3.81a5.07,5.07,0,0,1,1.75.23,1.91,1.91,0,0,1,1,.82,2.44,2.44,0,0,1,.36,1.29,2.16,2.16,0,0,1-.59,1.54,3,3,0,0,1-1.83.8,3,3,0,0,1,.69.43A5.91,5.91,0,0,1,202,52l1.49,2.34h-1.43L201,52.53q-.5-.77-.82-1.18a2.58,2.58,0,0,0-.58-.57,1.71,1.71,0,0,0-.52-.23,3.41,3.41,0,0,0-.63,0h-1.32v3.81Zm1.14-4.8h2.44a3.66,3.66,0,0,0,1.22-.16,1.3,1.3,0,0,0,.67-.52,1.39,1.39,0,0,0,.23-.77,1.28,1.28,0,0,0-.44-1,2.07,2.07,0,0,0-1.4-.39h-2.72Z"/><path class="cls-1" d="M206.57,54.31V46.74h-2.83v-1h6.81v1H207.7v7.58Z"/><path d="M43.07,56.7a19.41,19.41,0,0,1-6.44-3.23,17.49,17.49,0,0,1-5.2-6.14A21.22,21.22,0,0,1,29.08,39,19.37,19.37,0,0,1,35.89,22.8a18.26,18.26,0,0,1,6.31-3.61,20.21,20.21,0,0,1,6-1.07,18.86,18.86,0,0,1,5.62.71,22,22,0,0,1,9.32,5.59,20,20,0,0,1,2.43,3.32,16,16,0,0,1,1.65,3.38,21.41,21.41,0,0,1,1,5.46,15.07,15.07,0,0,1-.72,6.36c-.47,1.24-1,2.45-1.62,3.64A15.07,15.07,0,0,1,64,49.79c-.73.87-1.51,1.71-2.27,2.55A11.81,11.81,0,0,1,57.4,55.4a25.91,25.91,0,0,1-9.07,1.92A18.83,18.83,0,0,1,43.07,56.7Zm6.39-34.86A.9.9,0,0,0,48.7,21a2.86,2.86,0,0,1-1.48-.69,2.77,2.77,0,0,0-1.62-.6,8,8,0,0,0-4.47.75c-.81.38-1.65.69-2.42,1.13A10.49,10.49,0,0,0,36.83,23a27,27,0,0,0-4.46,5.41,17.32,17.32,0,0,0-1.83,3.75,14.84,14.84,0,0,0-.37,2,19.94,19.94,0,0,0-.41,2.06,14.51,14.51,0,0,0,.06,2.23,14,14,0,0,0,.82,4.05A34.88,34.88,0,0,0,32.95,48a11.27,11.27,0,0,0,2.95,3.54,2.25,2.25,0,0,0,1.47.33c.61,0,1.27-.27,1.84.13a2.54,2.54,0,0,1,.51.62,8.45,8.45,0,0,0,.61.88.49.49,0,0,0,.82-.27c.05-.17.19-.41.33-.44a.57.57,0,0,1,.64.36c.25.54.29.58.7.2s1.09-.33,1.68-.24a15.23,15.23,0,0,0,1.72.15.78.78,0,0,0,.75-.63c.06-.22.09-.44.14-.65a1.12,1.12,0,0,1,1.18-1,.62.62,0,0,0,.42-.92c0-.1-.1-.19-.14-.29-.22-.47.14-.79.34-1.12A1.5,1.5,0,0,1,50,48.06a.7.7,0,0,1,.72.24,6.73,6.73,0,0,0,.48.51c.43.42.93.27,1.1-.33a1.86,1.86,0,0,1,.13-.39,1.26,1.26,0,0,1,1.28-.6l0,0a1.53,1.53,0,0,0,1.71.49,1.47,1.47,0,0,0,1.12-1.19,1.51,1.51,0,0,0-.65-1.65L55.68,45c.24-.25.46-.49.7-.71a1.29,1.29,0,0,0,.07-2A2.09,2.09,0,0,1,56,40.8a4,4,0,0,1,.65-1.94,2.49,2.49,0,0,0,.11-2.27,6,6,0,0,0-.57-.88q-.25-.39-.48-.79a1.26,1.26,0,0,1-.07-1.14q.5-1.19,1.06-2.35a.7.7,0,0,0-.57-1.08.4.4,0,0,0-.24.07l-1.1.71a1.76,1.76,0,0,1-.32.21,3.29,3.29,0,0,1-.67.18c-.33,0-.33-.26-.43-.46a5.76,5.76,0,0,1-.31-.66.65.65,0,0,1,.21-.72,6.35,6.35,0,0,0,.69-.86.62.62,0,0,0-.42-1l-.25,0a1.54,1.54,0,0,1-1.67-1.43,9.57,9.57,0,0,1-.14-1l-.22,0a1.48,1.48,0,0,1-1.13-2.66l.09-.08a1.58,1.58,0,0,1,1.44,0,1.46,1.46,0,0,1,.23,2.46l-.3.23a1.41,1.41,0,0,0,1.15-.93,1.61,1.61,0,0,0-.25-1.63,1.54,1.54,0,0,0-2.11-.34.86.86,0,0,0-.16.23A.92.92,0,0,1,49.46,21.84Zm9,31.29a15.87,15.87,0,0,0,7.1-10.51c-.29.6-.55,1.14-.81,1.67-.17.33-.35.66-.52,1a.38.38,0,0,1-.49.24,1,1,0,0,0-.31,0v.11l.53.08a20.38,20.38,0,0,1-6.7,6.82,21.48,21.48,0,0,1-9,3.06A15.3,15.3,0,0,0,58.48,53.13ZM49,20a24.77,24.77,0,0,1,8.91,2.57A9,9,0,0,0,49,20Zm10.3,17.74a1.17,1.17,0,0,0-1.21-1.24,1.37,1.37,0,0,1,.83,1.19,1.31,1.31,0,0,1-.68,1.27A1.11,1.11,0,0,0,59.32,37.72Zm2.34,5.36a1.1,1.1,0,0,0-.74-1.44A1.28,1.28,0,0,1,61.29,43a1.32,1.32,0,0,1-1.06,1C60.84,44.22,61.43,43.83,61.66,43.08Zm2-13a.72.72,0,0,0,.57-.56A1.38,1.38,0,0,0,63.83,28a.91.91,0,0,0-1.07-.18A1.38,1.38,0,0,1,63.69,30.07Zm-2.07,5A1.12,1.12,0,0,0,60.39,34l.62.42-.27.22c.41-.09.47.15.52.38.1.46,0,.69-.42,1.29C61.46,36.25,61.68,35.54,61.62,35Zm2,4.65c.44.07.85-.37.91-.95a1,1,0,0,0-1-1.25A1.28,1.28,0,0,1,63.6,39.7Zm-6.45,9.6a.89.89,0,0,0,1.33-.16.85.85,0,0,0,.09-1.25A1.22,1.22,0,0,1,57.15,49.3Zm3.36-24.85c-.46-.3-1.1-.29-1.28.21a1,1,0,0,1,1.13,0,1.11,1.11,0,0,1,.47,1A.87.87,0,0,0,60.51,24.45ZM55,51.94a.85.85,0,0,0,.31-1.22,1.1,1.1,0,0,1-.49,1,1.13,1.13,0,0,1-1.16,0A.92.92,0,0,0,55,51.94Zm5-22.6a.77.77,0,0,0,.37-1,.89.89,0,0,0-1.21-.65A1.12,1.12,0,0,1,60,29.35ZM46.94,54.1l-.08.05a2,2,0,0,0,.4.47,1,1,0,0,0,1.15,0,.72.72,0,0,0,.39-.74C48.15,54.64,47.58,54.71,46.94,54.1ZM63.3,33.21a.78.78,0,0,0,.52-1,.82.82,0,0,0-.94-.74A1.06,1.06,0,0,1,63.3,33.21ZM51.4,52a.86.86,0,0,0,.73-1,1.08,1.08,0,0,1-.74.71,1.06,1.06,0,0,1-1-.23A.76.76,0,0,0,51.4,52Zm.71-30.21a.54.54,0,0,0,.32.18c.09,0,.2-.07.29-.1a1,1,0,0,0-.21-.26,3.11,3.11,0,0,0-.48-.2C52.07,21.61,52.05,21.74,52.11,21.82ZM66.18,35.09a.66.66,0,0,0-1,.22A1.25,1.25,0,0,0,66.18,35.09Zm-7.64-1.46a.94.94,0,0,0-1,0v.11ZM45.28,54.87c-.34-.24-.9-.2-1,0ZM62.74,35.17a.75.75,0,0,0,1,0ZM60.42,47.5a1.6,1.6,0,0,0,1.12,0V47.4Zm-1.89,2.69-.8.11C58,50.57,58.22,50.54,58.53,50.19Zm1.62-4.73c.12.28.16.28.82,0Zm-3.9-19.32L55.4,26C55.47,26.29,55.78,26.34,56.25,26.14ZM55.89,28a.67.67,0,0,0,.73.1V28Zm10.61,6.33,0-.14-.72-.08,0,.13Zm-6.4,3v.12l.56.06C60.45,37.23,60.27,37.31,60.1,37.39ZM65,33.26v-.13l-.57.07v.09A.55.55,0,0,0,65,33.26Z"/><path class="cls-2" d="M54.78,47.78a1.33,1.33,0,0,0,1.41-1.23,1.47,1.47,0,0,0-2.84-.69,1.61,1.61,0,0,0,.34,1.63,1.26,1.26,0,0,0-1.28.6,1.86,1.86,0,0,0-.13.39c-.17.6-.66.75-1.1.33a6.73,6.73,0,0,1-.48-.51.7.7,0,0,0-.72-.24,1.5,1.5,0,0,0-1.07.63c-.2.33-.56.65-.34,1.12,0,.1.1.19.14.29a.62.62,0,0,1-.42.92,1.12,1.12,0,0,0-1.18,1c-.05.22-.08.44-.14.65a.78.78,0,0,1-.75.63,15.23,15.23,0,0,1-1.72-.15c-.59-.09-1.15-.25-1.68.24s-.46.34-.7-.2a.57.57,0,0,0-.64-.36c-.14,0-.27.27-.33.44a.49.49,0,0,1-.82.27,8.45,8.45,0,0,1-.61-.88,2.54,2.54,0,0,0-.51-.62c-.57-.4-1.23-.14-1.84-.13a2.25,2.25,0,0,1-1.47-.33A11.27,11.27,0,0,1,32.95,48a34.88,34.88,0,0,1-2.31-5.52,14,14,0,0,1-.82-4.05,14.51,14.51,0,0,1-.06-2.23,19.94,19.94,0,0,1,.41-2.06,14.84,14.84,0,0,1,.37-2,17.32,17.32,0,0,1,1.83-3.75A27,27,0,0,1,36.83,23,10.49,10.49,0,0,1,38.7,21.6c.77-.44,1.62-.75,2.42-1.13a8,8,0,0,1,4.47-.75,2.77,2.77,0,0,1,1.62.6A2.86,2.86,0,0,0,48.7,21a.9.9,0,0,1,.76.83.92.92,0,0,0,.78.88h0l-.09.08a1.48,1.48,0,0,0,1.13,2.66l.22,0a9.57,9.57,0,0,0,.14,1,1.54,1.54,0,0,0,1.67,1.43l.25,0a.62.62,0,0,1,.42,1,6.35,6.35,0,0,1-.69.86.65.65,0,0,0-.21.72,5.76,5.76,0,0,0,.31.66c.1.19.09.51.43.46a3.29,3.29,0,0,0,.67-.18,1.76,1.76,0,0,0,.32-.21l1.1-.71a.4.4,0,0,1,.24-.07.7.7,0,0,1,.57,1.08q-.55,1.16-1.06,2.35a1.26,1.26,0,0,0,.07,1.14q.23.4.48.79a6,6,0,0,1,.57.88,2.49,2.49,0,0,1-.11,2.27A4,4,0,0,0,56,40.8a2.09,2.09,0,0,0,.43,1.5,1.29,1.29,0,0,1-.07,2c-.24.22-.45.46-.7.71l.23.16a1.51,1.51,0,0,1,.65,1.65A1.47,1.47,0,0,1,55.45,48a1.53,1.53,0,0,1-1.71-.49A5.31,5.31,0,0,0,54.78,47.78ZM41.2,28.31a1.76,1.76,0,0,0,1.74-1.66,1.73,1.73,0,1,0-1.74,1.66ZM34.1,39.87a1.29,1.29,0,0,0-1.29-1.3,1.27,1.27,0,0,0-1.28,1.22c0,.61.67,1.4,1.29,1.29A1.28,1.28,0,0,0,34.1,39.87Zm3.51,10.2a11,11,0,0,1,1.17,0c.13,0,.25.14.38.21l.25.15a1,1,0,0,0,.09-.35A1,1,0,0,0,39,49.4a2,2,0,0,0-2.08,0,1.63,1.63,0,0,0-.44.57.44.44,0,0,0,.23.62A.89.89,0,0,1,37.61,50.07Zm5.71-25.39A2.25,2.25,0,0,0,41,23.75a1.72,1.72,0,0,0-1.33,1.2,2.15,2.15,0,0,1,2.55-.52,2.21,2.21,0,0,1,1.21,2.33A1.83,1.83,0,0,0,43.31,24.68ZM35,30.57a.83.83,0,0,0,.79-.81.93.93,0,0,0-.9-.82.84.84,0,0,0-.82.81A.93.93,0,0,0,35,30.57ZM54.72,42.71a1.71,1.71,0,0,1-.52-1.57,2.78,2.78,0,0,1,.38-.72,2.2,2.2,0,0,1,.28-.31.73.73,0,0,0-.87.33,2,2,0,0,0,.46,2.66,2.18,2.18,0,0,0,.53.17l.08-.11C55,43,54.84,42.86,54.72,42.71ZM43.43,51.43a1,1,0,0,0,.1.37,2.55,2.55,0,0,0,.34-.11.43.43,0,0,0,.16-.15,1.33,1.33,0,0,1,1-.55,1.39,1.39,0,0,0,.42-.22,2.32,2.32,0,0,0-.4-.34,1,1,0,0,0-.35-.07A1.3,1.3,0,0,0,43.43,51.43Zm10.46-15a.67.67,0,0,0,1.34,0,.62.62,0,0,0-.65-.63A.7.7,0,0,0,53.89,36.43ZM47.71,45a.54.54,0,0,0,.33-.19c.15-.16.25-.37.4-.52a.29.29,0,0,0,0-.49.77.77,0,0,0-.81-.08.73.73,0,0,0-.45.62C47.14,44.59,47.46,45,47.71,45Zm-2-22.31c.33.55.8.79,1.2.56a2,2,0,0,0-.3-.27,1.46,1.46,0,0,1-.79-1.76.64.64,0,0,0,0-.16A1.2,1.2,0,0,0,45.73,22.66Zm6.12,22.63a.57.57,0,0,0-.09-1.14.51.51,0,0,0-.46.58C51.32,45.09,51.54,45.32,51.85,45.29ZM49.62,29.71A1.21,1.21,0,0,1,48.94,28a.47.47,0,0,0,0-.14c-.34,0-.44.28-.49.52a1.37,1.37,0,0,0,.47,1.38.9.9,0,0,0,1,.24A2.25,2.25,0,0,0,49.62,29.71Zm-4.08-3.83a1.55,1.55,0,0,0,.37.64c.19.2.44.12.62-.15-.81-.36-.68-1-.4-1.71A1,1,0,0,0,45.53,25.89ZM39.8,47.63a.57.57,0,0,0,.49.53.52.52,0,0,0,.49-.49.55.55,0,0,0-.49-.56A.53.53,0,0,0,39.8,47.63ZM48.93,26.8a.45.45,0,0,0,.45-.43.49.49,0,0,0-.52-.45.46.46,0,0,0-.43.46A.44.44,0,0,0,48.93,26.8ZM34.81,36.72a.45.45,0,0,0,.42-.47.47.47,0,0,0-.48-.45.46.46,0,0,0-.46.47A.49.49,0,0,0,34.81,36.72Zm5.77,14.82a.74.74,0,0,0,0,.44.23.23,0,0,0,.2.1,2.17,2.17,0,0,0,.58-.25s0-.26-.06-.35-.22-.14-.38-.23C40.82,51.36,40.64,51.42,40.58,51.54ZM35.25,49a.46.46,0,0,0,.31-.3c0-.08-.16-.29-.27-.3s-.26.13-.4.2v.14C35,48.84,35.13,49,35.25,49Z"/><path class="cls-2" d="M48.24,55.61a15.3,15.3,0,0,0,10.24-2.48,15.87,15.87,0,0,0,7.1-10.51c-.29.6-.55,1.14-.81,1.67-.17.33-.35.66-.52,1a.38.38,0,0,1-.49.24,1,1,0,0,0-.31,0v.11l.53.08a20.38,20.38,0,0,1-6.7,6.82A21.48,21.48,0,0,1,48.24,55.61Z"/><path d="M53.69,47.49a1.61,1.61,0,0,1-.34-1.63,1.47,1.47,0,0,1,2.84.69,1.33,1.33,0,0,1-1.41,1.23,5.31,5.31,0,0,1-1-.25Zm1-1.77c-.36-.28-.49-.28-.77,0Z"/><path class="cls-2" d="M57.93,22.55A9,9,0,0,0,49,20,24.77,24.77,0,0,1,57.93,22.55Z"/><path class="cls-2" d="M50.24,22.71a1.58,1.58,0,0,1,1.44,0,1.46,1.46,0,0,1,.23,2.46l-.3.23a1.41,1.41,0,0,0,1.15-.93,1.61,1.61,0,0,0-.25-1.63,1.54,1.54,0,0,0-2.11-.34.85.85,0,0,0-.16.23Z"/><path class="cls-2" d="M58.26,38.94a1.11,1.11,0,0,0,1.06-1.23,1.17,1.17,0,0,0-1.21-1.24,1.37,1.37,0,0,1,.83,1.19A1.31,1.31,0,0,1,58.26,38.94Z"/><path class="cls-2" d="M60.22,44c.62.23,1.2-.16,1.43-.91a1.1,1.1,0,0,0-.74-1.44A1.28,1.28,0,0,1,61.29,43,1.32,1.32,0,0,1,60.22,44Z"/><path class="cls-2" d="M62.76,27.85a1.38,1.38,0,0,1,.93,2.22.72.72,0,0,0,.57-.56A1.38,1.38,0,0,0,63.83,28,.91.91,0,0,0,62.76,27.85Z"/><path class="cls-2" d="M60.84,36.3c.62-.06.84-.76.78-1.25A1.12,1.12,0,0,0,60.39,34l.62.42-.27.22c.41-.09.47.15.52.38C61.37,35.47,61.29,35.7,60.84,36.3Z"/><path class="cls-2" d="M63.51,37.5a1.28,1.28,0,0,1,.09,2.2c.44.07.85-.37.91-.95A1,1,0,0,0,63.51,37.5Z"/><path class="cls-2" d="M58.57,47.89a1.22,1.22,0,0,1-1.42,1.41.89.89,0,0,0,1.33-.16A.85.85,0,0,0,58.57,47.89Z"/><path class="cls-2" d="M60.82,25.73a.87.87,0,0,0-.32-1.28c-.46-.3-1.1-.29-1.28.21a1,1,0,0,1,1.13,0A1.11,1.11,0,0,1,60.82,25.73Z"/><path class="cls-2" d="M53.66,51.75a.92.92,0,0,0,1.35.19.85.85,0,0,0,.31-1.22,1.1,1.1,0,0,1-.49,1A1.13,1.13,0,0,1,53.66,51.75Z"/><path class="cls-2" d="M59.17,27.65a1.12,1.12,0,0,1,.83,1.7.77.77,0,0,0,.37-1A.89.89,0,0,0,59.17,27.65Z"/><path class="cls-2" d="M48.8,53.87c-.65.77-1.22.84-1.86.23l-.08.05a2,2,0,0,0,.4.47,1,1,0,0,0,1.15,0A.72.72,0,0,0,48.8,53.87Z"/><path class="cls-2" d="M62.87,31.5a1.06,1.06,0,0,1,.43,1.71.78.78,0,0,0,.52-1A.82.82,0,0,0,62.87,31.5Z"/><path class="cls-2" d="M50.44,51.51a.76.76,0,0,0,1,.51.86.86,0,0,0,.73-1,1.08,1.08,0,0,1-.74.71A1.06,1.06,0,0,1,50.44,51.51Z"/><path class="cls-2" d="M52,21.42c0,.19,0,.32.07.4a.54.54,0,0,0,.32.18c.09,0,.2-.07.29-.1a1,1,0,0,0-.21-.26A3.11,3.11,0,0,0,52,21.42Z"/><path class="cls-2" d="M65.2,35.3a1.25,1.25,0,0,0,1-.22A.66.66,0,0,0,65.2,35.3Z"/><path class="cls-2" d="M57.53,33.71l1-.08a.94.94,0,0,0-1,0Z"/><path class="cls-2" d="M44.26,54.92l1,0C44.94,54.64,44.38,54.68,44.26,54.92Z"/><path class="cls-2" d="M63.74,35.17h-1A.75.75,0,0,0,63.74,35.17Z"/><path class="cls-2" d="M61.53,47.4l-1.11.1a1.6,1.6,0,0,0,1.12,0Z"/><path class="cls-2" d="M57.73,50.3c.22.26.49.24.8-.11Z"/><path class="cls-2" d="M61,45.46h-.82C60.27,45.73,60.31,45.73,61,45.46Z"/><path class="cls-2" d="M55.4,26c.08.25.38.29.85.1Z"/><path class="cls-2" d="M56.62,28h-.73a.67.67,0,0,0,.73.1Z"/><path class="cls-2" d="M65.77,34.27l.72.1,0-.14-.72-.08Z"/><path class="cls-2" d="M60.64,37.57c-.19-.34-.36-.27-.54-.18v.12Z"/><path class="cls-2" d="M64.46,33.3a.55.55,0,0,0,.58,0v-.13l-.57.07Z"/><path d="M39.48,26.61a1.73,1.73,0,0,0,1.72,1.7,1.76,1.76,0,0,0,1.74-1.66,1.73,1.73,0,1,0-3.46,0Z"/><path d="M32.81,41.09a1.28,1.28,0,0,0,1.28-1.22,1.29,1.29,0,0,0-1.29-1.3,1.27,1.27,0,0,0-1.28,1.22C31.49,40.4,32.19,41.19,32.81,41.09Z"/><path d="M36.74,50.64a.89.89,0,0,1,.86-.57,11,11,0,0,1,1.17,0c.13,0,.25.14.38.21l.25.15a1,1,0,0,0,.09-.35A1,1,0,0,0,39,49.4a2,2,0,0,0-2.08,0,1.63,1.63,0,0,0-.44.57A.44.44,0,0,0,36.74,50.64Z"/><path d="M43.39,26.75a1.83,1.83,0,0,0-.08-2.07A2.25,2.25,0,0,0,41,23.75a1.72,1.72,0,0,0-1.33,1.2,2.15,2.15,0,0,1,2.55-.52A2.21,2.21,0,0,1,43.39,26.75Z"/><path d="M34,29.75a.93.93,0,0,0,.94.82.83.83,0,0,0,.79-.81.93.93,0,0,0-.9-.82A.84.84,0,0,0,34,29.75Z"/><path d="M55.07,43.17c-.12-.15-.22-.32-.35-.46a1.71,1.71,0,0,1-.52-1.57,2.78,2.78,0,0,1,.38-.72,2.2,2.2,0,0,1,.28-.31.73.73,0,0,0-.87.33,2,2,0,0,0,.46,2.66,2.18,2.18,0,0,0,.53.17Z"/><path d="M44.72,50.36a1.3,1.3,0,0,0-1.3,1.06,1,1,0,0,0,.1.37,2.55,2.55,0,0,0,.34-.11.43.43,0,0,0,.16-.15,1.33,1.33,0,0,1,1-.55,1.39,1.39,0,0,0,.42-.22,2.32,2.32,0,0,0-.4-.34A1,1,0,0,0,44.72,50.36Z"/><path d="M54.58,35.77a.7.7,0,0,0-.69.66.67.67,0,0,0,1.34,0A.62.62,0,0,0,54.58,35.77Z"/><path d="M47.14,44.31c0,.28.32.66.58.66a.54.54,0,0,0,.33-.19c.15-.16.25-.37.4-.52a.29.29,0,0,0,0-.49.77.77,0,0,0-.81-.08A.73.73,0,0,0,47.14,44.31Z"/><path d="M45.84,21a1.2,1.2,0,0,0-.11,1.62c.33.55.8.79,1.2.56a2,2,0,0,0-.3-.27,1.46,1.46,0,0,1-.79-1.76A.64.64,0,0,0,45.84,21Z"/><path d="M51.3,44.73c0,.36.24.59.55.56a.57.57,0,0,0-.09-1.14A.51.51,0,0,0,51.3,44.73Z"/><path d="M49.94,30a2.25,2.25,0,0,0-.32-.25A1.21,1.21,0,0,1,48.94,28a.47.47,0,0,0,0-.14c-.34,0-.44.28-.49.52a1.37,1.37,0,0,0,.47,1.38A.9.9,0,0,0,49.94,30Z"/><path d="M46.12,24.66a1,1,0,0,0-.59,1.22,1.55,1.55,0,0,0,.37.64c.19.2.44.12.62-.15C45.71,26,45.84,25.38,46.12,24.66Z"/><path d="M40.29,47.11a.53.53,0,0,0-.49.53.57.57,0,0,0,.49.53.52.52,0,0,0,.49-.49A.55.55,0,0,0,40.29,47.11Z"/><path d="M48.44,26.38a.44.44,0,0,0,.49.42.45.45,0,0,0,.45-.43.49.49,0,0,0-.52-.45A.46.46,0,0,0,48.44,26.38Z"/><path d="M34.3,36.28a.49.49,0,0,0,.52.45.45.45,0,0,0,.42-.47.47.47,0,0,0-.48-.45A.46.46,0,0,0,34.3,36.28Z"/><path d="M41,51.27c-.14.09-.31.15-.37.27a.74.74,0,0,0,0,.44.23.23,0,0,0,.2.1,2.17,2.17,0,0,0,.58-.25s0-.26-.06-.35S41.11,51.36,41,51.27Z"/><path d="M34.89,48.75c.12.09.25.27.36.26a.46.46,0,0,0,.31-.3c0-.08-.16-.29-.27-.3s-.26.13-.4.2Z"/><path class="cls-2" d="M53.92,45.72h.77C54.32,45.44,54.2,45.44,53.92,45.72Z"/><path d="M25.25,19.26c1.3.38,2.27.61,3.2,1a3.25,3.25,0,0,0,3.75-.87c3.09-3.07,6.57-5.67,10.84-6.79,4.88-1.27,9.42-.47,13.28,3,.81.74,1.64,1.48,2.51,2.14a5.55,5.55,0,0,0,1.66.87c.94.3,1.35-.1,1.29-1.1a10.17,10.17,0,0,0-1.48-5C58.53,9.67,60,4.42,62.55,2.58,64.8,1,68.49,1.64,70.42,4.07a7.08,7.08,0,0,1,1.22,2,7,7,0,0,0,4.17,4.1,14.43,14.43,0,0,1,2.27,1.32c.21.15.22.59.32.9-.28.08-.59.27-.84.21-1.07-.25-2.12-.56-3.17-.88a10.25,10.25,0,0,0-5.55-.61c-1.69.41-2.22,1.2-2.09,2.91a10,10,0,0,0,1.68,5,5.12,5.12,0,0,1,.72,4.06A14.4,14.4,0,0,1,66.51,29a2.32,2.32,0,0,1-2.2,1c-.44,0-.89,0-1.32-.09A19,19,0,0,0,55,30a52.1,52.1,0,0,1-12.33.64c-2.08-.06-4.16-.14-6.22-.36-4.15-.45-6.8-3.13-9-6.34a22.12,22.12,0,0,1-1.61-2.55A11.66,11.66,0,0,1,25.25,19.26Z"/><path class="cls-2" d="M46.79,31c-1.33,0-2.69,0-4.09-.08-2.13-.07-4.21-.14-6.24-.36-4.51-.49-7.19-3.53-9.21-6.45a22.32,22.32,0,0,1-1.63-2.58,5.52,5.52,0,0,1-.41-1.38c-.05-.25-.11-.52-.19-.82l-.11-.43.42.12,1.18.34c.75.21,1.4.39,2,.62A3,3,0,0,0,32,19.16c3.72-3.69,7.2-5.87,11-6.85,5.21-1.36,9.75-.32,13.51,3.1.82.75,1.63,1.47,2.5,2.13a5.32,5.32,0,0,0,1.58.83.92.92,0,0,0,.77,0c.16-.12.23-.41.2-.85a9.89,9.89,0,0,0-1.44-4.89c-1.91-3-.3-8.4,2.3-10.25,2.38-1.7,6.22-1,8.21,1.54A7.28,7.28,0,0,1,71.88,6c.6,1.75,1.81,2.93,4,4a14.76,14.76,0,0,1,2.3,1.34,1.11,1.11,0,0,1,.34.74,2.59,2.59,0,0,0,.07.29l.08.25-.25.07-.25.09a1.2,1.2,0,0,1-.72.12c-1.16-.28-2.31-.62-3.19-.89a10.12,10.12,0,0,0-5.42-.61c-1.54.38-2,1-1.9,2.65a9.76,9.76,0,0,0,1.63,4.91,5.37,5.37,0,0,1,.76,4.26,14.72,14.72,0,0,1-2.68,6,2.57,2.57,0,0,1-2.42,1.12c-.17,0-.35,0-.52,0a4.23,4.23,0,0,1-.82-.07,18.67,18.67,0,0,0-7.86.09A40.2,40.2,0,0,1,46.79,31ZM25.6,19.62l.09.42a5.14,5.14,0,0,0,.37,1.26,22.05,22.05,0,0,0,1.59,2.52c2,2.82,4.55,5.77,8.86,6.24,2,.22,4,.29,6.2.36A51.56,51.56,0,0,0,55,29.78,19.16,19.16,0,0,1,63,29.68a3.78,3.78,0,0,0,.72.06c.19,0,.38,0,.57,0a2.07,2.07,0,0,0,2-.93,14.23,14.23,0,0,0,2.59-5.78,4.89,4.89,0,0,0-.69-3.87A10.25,10.25,0,0,1,66.5,14c-.13-1.85.51-2.74,2.28-3.18a10.49,10.49,0,0,1,5.69.62c.87.27,2,.61,3.15.88a.93.93,0,0,0,.42-.1l.06,0,0-.11c0-.15-.08-.38-.14-.43a14.24,14.24,0,0,0-2.23-1.29,7.35,7.35,0,0,1-4.31-4.24,6.88,6.88,0,0,0-1.18-1.93c-1.84-2.32-5.36-3-7.53-1.44-2.43,1.73-3.94,6.78-2.16,9.57A10.37,10.37,0,0,1,62,17.49a1.41,1.41,0,0,1-.4,1.27,1.3,1.3,0,0,1-1.22.08,5.76,5.76,0,0,1-1.74-.91c-.88-.67-1.7-1.4-2.53-2.16-3.62-3.29-8-4.3-13-3-3.67,1-7.07,3.09-10.73,6.72a3.51,3.51,0,0,1-4,.93c-.62-.23-1.26-.4-2-.61Z"/><path d="M90.49,57.52a6.27,6.27,0,0,1-.78,0c-.72-.09-1.44-.19-2.16-.31a9.66,9.66,0,0,1-1.7-.38,13.38,13.38,0,0,1-3.7-2.29,2.9,2.9,0,0,0-1.62-.62,3.58,3.58,0,0,1-1.29-.32c-.89-.47-1.74-1-2.59-1.55s-1.85-1.26-2.78-1.88a.93.93,0,0,0-.44-.2c-.55,0-1.1,0-1.65,0a.55.55,0,0,1-.55-.2q-.8-1-1.63-2a13.69,13.69,0,0,0-2.32-2.46A1.13,1.13,0,0,0,66,45.09c-.14.07-.31.11-.45.18-1.43.74-2.86,1.46-4.28,2.23S58.67,49,57.37,49.73L55.17,51l-1.73-2.53c-.47.34-.93.62-1.33,1a3.84,3.84,0,0,1-2,.87.31.31,0,0,1-.35-.15c-.33-.46-.66-.92-1-1.35A7,7,0,0,0,46.94,47c-.41-.24-.68-.26-1,.09-.56.58-1.08,1.21-1.6,1.84a2.8,2.8,0,0,1-1.06.91,5.26,5.26,0,0,1-2.79.46,1.17,1.17,0,0,1-.86-.43,4.47,4.47,0,0,0-1.54-1.27,1.22,1.22,0,0,0-1.2,0c-1,.57-2,1.12-3.06,1.66-.72-.63-1.45-1.23-2.13-1.87a1,1,0,0,0-1.35,0l-.72.47c-.12.08-.21.09-.3-.06-.59-.88-1.19-1.76-1.78-2.64-.48-.72-.93-1.46-1.45-2.14a1.12,1.12,0,0,0-1.79-.22c-.75.64-1.43,1.35-2.14,2a8.29,8.29,0,0,1-1,1,29,29,0,0,0-5.67,4.75,14.24,14.24,0,0,1-2.76,2.47,10.88,10.88,0,0,1-1.09.62A4.13,4.13,0,0,0,11,55c-.61.46-1.2,1-1.79,1.43a6.31,6.31,0,0,1-.7.54,3.6,3.6,0,0,1-2.06.57c-1.08-.05-2.17,0-3.25,0v.23c.74.24,1.47.49,2.21.72A11.46,11.46,0,0,0,9.51,59c.88-.06,1.76-.12,2.64-.15a8.07,8.07,0,0,1,1.26.11c.41.05.81.18,1.21.2,1.43.09,2.85.18,4.28.23,2.52.08,5,.1,7.57.18,1.6.05,3.2.1,4.79.26s2.92.24,4.39.27,2.65.07,4,.11l1.14.05a1,1,0,0,1,.67-.77,3,3,0,0,1,.82-.24c.75-.08,1.51-.11,2.26-.19a1.21,1.21,0,0,0,1-.46.6.6,0,0,1,.49-.33,7.63,7.63,0,0,1,.83-.07l2.79,0c3.29,0,6.58,0,9.87.25a14.51,14.51,0,0,1,3.28.5,16.15,16.15,0,0,0,4.5.78A9,9,0,0,0,71.58,59a7,7,0,0,1,3.75-.78c1.49.12,3,.29,4.46.41s2.94.21,4.42.27a41.32,41.32,0,0,0,8.3-.81c.55-.09,1.1-.16,1.66-.23v-.29ZM21,47.24a11,11,0,0,0,1.64-1.63c.57-.54,1.12-1.11,1.72-1.61a.91.91,0,0,1,1.34-.07.31.31,0,0,1,.11.23c-.1.71-.18,1.42-.34,2.12a3,3,0,0,1-1.61,2c-.44.25-.87.52-1.3.79a1.35,1.35,0,0,0-.63.85,1.27,1.27,0,0,1-.28.49,5.82,5.82,0,0,1-1.59,1.31.59.59,0,0,1-.59,0,2.6,2.6,0,0,0-1.66-.15.81.81,0,0,0-.36.16,3.41,3.41,0,0,1-1.39.65l-1.47.51A28.29,28.29,0,0,1,21,47.24Zm5.52,4.46a2.43,2.43,0,0,0-1,.42.7.7,0,0,1-.45.08,4,4,0,0,0-1.73-.07,1.12,1.12,0,0,0-.5.26,16.53,16.53,0,0,0-2.2,2.8.42.42,0,0,0,0,.1c.46-.25.9-.5,1.35-.72a11.94,11.94,0,0,1,1.14-.45c.23-.08.53-.09.62.13s-.11.42-.33.54a3.15,3.15,0,0,0-.46.3.4.4,0,0,0-.07.61.9.9,0,0,0,.76.38c.51,0,1,0,1.59,0A2.81,2.81,0,0,1,22.9,57.5a8.55,8.55,0,0,0-3.53.91A1.9,1.9,0,0,1,18,58.5c-.46-.12-.63-.48-.49-1.07a4.13,4.13,0,0,1,.94-1.85c.66-.74,1.31-1.48,1.94-2.26l-.43.22c-1.4.77-2.8,1.54-4.21,2.29A1.82,1.82,0,0,1,15,56c-.51,0-1,0-1.52.06a.84.84,0,0,0-.33.07,11,11,0,0,1-2.77.68,3,3,0,0,0-.34.06c-.32.11-.52,0-.74-.34.43-.36.84-.74,1.29-1.07A2.33,2.33,0,0,1,12,54.87c.28,0,.55-.28.84-.4.71-.31,1.42-.61,2.14-.9.27-.11.57-.14.85-.24.43-.15.86-.31,1.27-.51a3.28,3.28,0,0,1,1.77-.49,3.38,3.38,0,0,0,2.39-.84A5,5,0,0,0,22.6,50a6.53,6.53,0,0,1,.4-.53,1.14,1.14,0,0,1,.8-.46,2,2,0,0,0,1.4-.76c.32-.35.68-.37.94,0a4.46,4.46,0,0,1,.52,1.22A3.83,3.83,0,0,0,27.08,51l.39.52A8.59,8.59,0,0,1,26.52,51.71ZM51.88,50.2c.11,0,.24-.12.33-.21a1.93,1.93,0,0,1,1.26-.58c.13.16.28.37.44.55a.72.72,0,0,1,.1.87c-.15.3-.31.59-.48.88s-.26.28-.48.11a3.77,3.77,0,0,0-.74-.49,1.85,1.85,0,0,0-.66-.12,1.74,1.74,0,0,1-1.2-.47C51,50.71,51.33,50.2,51.88,50.2Zm-4,.35a1.82,1.82,0,0,0,.36-1.27l.28.44c.3.48.61.95.9,1.43a.59.59,0,0,1,0,.39c-.08.35-.19.69-.28,1a1.53,1.53,0,0,1-1,1.05c-.23.1-.45.25-.68.34a1.9,1.9,0,0,1-.48.07,7.13,7.13,0,0,0-2.48.53c.78-.76,1.61-1.54,2.41-2.35.15-.16.17-.45.26-.67a1.77,1.77,0,0,1,.17-.38A7.91,7.91,0,0,1,47.83,50.55ZM44,58.75a11.6,11.6,0,0,1-1.32,0,4.88,4.88,0,0,0-2.2.58,2.27,2.27,0,0,1-.82.23,17,17,0,0,1-3.88-.35A24.73,24.73,0,0,0,32,58.75c-.85,0-1.69-.19-2.53-.3l-1.29-.16.81-1a.92.92,0,0,1,.89-.4,1.91,1.91,0,0,0,1.37-.49c.27-.2.52-.42.79-.62.45-.33.92-.65,1.38-1s.66-.46,1-.71a.33.33,0,0,1,.42,0A2.22,2.22,0,0,1,36,55.89c.06.49.13,1,.21,1.49.24-.33.47-.64.69-1a.81.81,0,0,1,.88-.44,1.85,1.85,0,0,0,.34,0c.48,0,.6.18.71.64a3.88,3.88,0,0,0,.53,1s.11,0,.16,0l.23,0c.44-.06.47,0,.62.37l.25.73L41,58a.41.41,0,0,1,.55-.22,1.58,1.58,0,0,1,.51.19,1.91,1.91,0,0,0,1.56.29,2.63,2.63,0,0,1,1.45.33A9.34,9.34,0,0,1,44,58.75Zm41.09,0-1.7-.31a10.43,10.43,0,0,1-1-.22,7.08,7.08,0,0,1-1-.39,3.72,3.72,0,0,0-2.1-.32,11,11,0,0,1-1.47.24c-.95,0-1.89-.13-2.83-.21-.16,0-.32-.15-.48-.16-.36,0-.72,0-1.08,0h-.45l0-.12a1.77,1.77,0,0,1,.31-.29c.23-.13.5-.2.72-.34s.46-.38.71-.56.61-.43.91-.64l-.24,0-.3.09a7.37,7.37,0,0,0-2.91,1.56,5.71,5.71,0,0,1-3.21,1.4,21.63,21.63,0,0,1-2.16.25A11.45,11.45,0,0,1,65,58.56c-.91-.1-1.82-.24-2.74-.31a1.13,1.13,0,0,1-1.09-.72c-.13-.32-.09-.47.22-.63l1-.49a.92.92,0,0,0,.51-.67c-.43.09-.85.19-1.27.27a3.79,3.79,0,0,1-.8.09,6,6,0,0,0-2.9.7,8.67,8.67,0,0,1-2.26.58,25.89,25.89,0,0,1-5.82.18,14.12,14.12,0,0,0-3.23.46c-.21,0-.44.05-.65.11a2,2,0,0,0-.54.22c-.14.09-.25.12-.35,0s-.44-.18-.47-.48c0,0-.24-.07-.38-.07-.42,0-.84,0-1.26,0a1.52,1.52,0,0,1-.65-.14c-1.24-.65-2.46-1.33-3.7-2A5.1,5.1,0,0,1,37.65,55a3.32,3.32,0,0,0-.73-.48c-1.24-.6-2.5-1.16-3.72-1.8a11.8,11.8,0,0,1-1.6-1.16.89.89,0,0,1-.19-.34,3.27,3.27,0,0,0-.34-.74c-.33-.4-.73-.76-1.07-1.11.21-.21.43-.44.67-.64a.32.32,0,0,1,.29,0c.39.22.77.46,1.14.71a.62.62,0,0,1,.23.28,1.12,1.12,0,0,0,1,.7c.5.11.57.3.3.75l-.25.38a1.24,1.24,0,0,0-.2.4c.25-.16.51-.3.75-.48.41-.31.82-.63,1.22-1a.39.39,0,0,0,.14-.18c.08-.3.29-.37.57-.4a4.38,4.38,0,0,1,1.68-.07c.23.06.41.17.42.44a.41.41,0,0,1-.09.22c-.1.14-.23.26-.32.41s-.21.39-.33.57a2.1,2.1,0,0,0-.36,1.36A5.56,5.56,0,0,1,37.94,52a1.79,1.79,0,0,1,1.4-.2,7.26,7.26,0,0,1,1.25.45c.67-.39,1.37-.78,2.06-1.2a3.09,3.09,0,0,0,.56-.53,4.1,4.1,0,0,1,.35-.41A18.83,18.83,0,0,0,45.34,48c.3-.32.62-.61.92-.92l.12,0c.14.34.29.67.42,1a.18.18,0,0,1,0,.16c-.23.18-.1.36,0,.53a1.93,1.93,0,0,1,.32,1.63c-.06.21-.15.41-.22.61a4.67,4.67,0,0,1-1.46,2.08,3.43,3.43,0,0,0-1,1.2,1.11,1.11,0,0,1-.74.61,1.21,1.21,0,0,0-.44.22,8.36,8.36,0,0,0,.82-.3,6.72,6.72,0,0,1,2.84-.62,10.56,10.56,0,0,0,3.69-.86c.54-.21,1.11-.35,1.66-.53s.84-.3,1.26-.46.61-.23.92-.32a5.27,5.27,0,0,0,2.46-1.68,2.09,2.09,0,0,1,1.14-.71,3.62,3.62,0,0,0,.62-.21c.37-.15.4-.14.56.21,0,.05.05.1.1.18a2.58,2.58,0,0,0,.28-.25,7.39,7.39,0,0,1,2.53-1.71c.34-.17.71-.27,1.06-.44a1.18,1.18,0,0,0,.47-.36,3.31,3.31,0,0,1,2.26-1.33,1.81,1.81,0,0,1,0,1.49,6.7,6.7,0,0,1-1.49,2.52A5.34,5.34,0,0,1,62.6,51a.57.57,0,0,0-.22.21l-1.2,1.55c.64-.25,1-1,1.73-1.22l-.14.4.06.06,1-.79c.37-.32.75-.63,1.1-1a1.88,1.88,0,0,0,.38-.56,6.67,6.67,0,0,1,1.64-2.16,3.43,3.43,0,0,1,.35-.24c0,.42,0,.79,0,1.16a11.12,11.12,0,0,0,.07,1.37c.07.42.34.58.76.46s.63-.23.94-.33a.57.57,0,0,1,.33,0,3.93,3.93,0,0,1,2.3,1.84c.25.46.13.79-.37.93a7.13,7.13,0,0,1-1.24.19,10.09,10.09,0,0,0-2.28.22,15.92,15.92,0,0,0-3.41,1.67c.55.13,1.12.25,1.67.41a1.06,1.06,0,0,1,.73.77,6.7,6.7,0,0,0,.46,1c0,.07.15.16.21.15,1-.16,2.07-.33,3.1-.53a1.35,1.35,0,0,0,.66-.38,4.67,4.67,0,0,1,1.66-1.05,10.33,10.33,0,0,1,2.9-.86,1.87,1.87,0,0,1,1.6.52c.29.29.35.29.63,0a.71.71,0,0,1,.85-.12,3.13,3.13,0,0,1,1.36,1A4.09,4.09,0,0,0,82.38,57a5.34,5.34,0,0,1,1.83.78l1,.8Z"/><path class="cls-2" d="M82.38,57a4.09,4.09,0,0,1-2.17-1.35,3.13,3.13,0,0,0-1.36-1,.71.71,0,0,0-.85.12c-.28.28-.34.28-.63,0a1.87,1.87,0,0,0-1.6-.52,10.33,10.33,0,0,0-2.9.86,4.67,4.67,0,0,0-1.66,1.05,1.35,1.35,0,0,1-.66.38c-1,.2-2.07.36-3.1.53-.06,0-.17-.08-.21-.15a6.7,6.7,0,0,1-.46-1,1.06,1.06,0,0,0-.73-.77c-.55-.16-1.12-.28-1.67-.41A15.92,15.92,0,0,1,67.77,53,10.09,10.09,0,0,1,70,52.82a7.13,7.13,0,0,0,1.24-.19c.5-.14.62-.47.37-.93a3.93,3.93,0,0,0-2.3-1.84.57.57,0,0,0-.33,0c-.32.11-.62.25-.94.33s-.69,0-.76-.46a11.12,11.12,0,0,1-.07-1.37c0-.37,0-.73,0-1.16a3.43,3.43,0,0,0-.35.24,6.67,6.67,0,0,0-1.64,2.16,1.88,1.88,0,0,1-.38.56c-.35.34-.73.66-1.1,1l-1,.79-.06-.06.14-.4c-.74.25-1.09,1-1.73,1.22l1.2-1.55A.57.57,0,0,1,62.6,51a5.34,5.34,0,0,0,1.87-1.21A6.7,6.7,0,0,0,66,47.25a1.81,1.81,0,0,0,0-1.49,3.31,3.31,0,0,0-2.26,1.33,1.18,1.18,0,0,1-.47.36c-.34.16-.72.27-1.06.44a7.39,7.39,0,0,0-2.53,1.71,2.58,2.58,0,0,1-.28.25c0-.08-.08-.13-.1-.18-.15-.35-.19-.36-.56-.21a3.62,3.62,0,0,1-.62.21,2.09,2.09,0,0,0-1.14.71,5.27,5.27,0,0,1-2.46,1.68c-.31.09-.61.21-.92.32s-.84.31-1.26.46-1.12.32-1.66.53a10.56,10.56,0,0,1-3.69.86,6.72,6.72,0,0,0-2.84.62,8.36,8.36,0,0,1-.82.3,1.21,1.21,0,0,1,.44-.22,1.11,1.11,0,0,0,.74-.61,3.43,3.43,0,0,1,1-1.2A4.67,4.67,0,0,0,46.88,51c.08-.2.16-.41.22-.61a1.93,1.93,0,0,0-.32-1.63c-.1-.17-.23-.35,0-.53a.18.18,0,0,0,0-.16c-.14-.34-.28-.67-.42-1l-.12,0c-.31.31-.63.6-.92.92a18.83,18.83,0,0,1-1.79,2.12,4.1,4.1,0,0,0-.35.41,3.09,3.09,0,0,1-.56.53c-.68.42-1.38.81-2.06,1.2a7.26,7.26,0,0,0-1.25-.45,1.79,1.79,0,0,0-1.4.2,5.56,5.56,0,0,0-1.13.84,2.1,2.1,0,0,1,.36-1.36c.13-.18.21-.38.33-.57s.22-.27.32-.41a.41.41,0,0,0,.09-.22c0-.27-.19-.38-.42-.44a4.38,4.38,0,0,0-1.68.07c-.28,0-.49.1-.57.4a.39.39,0,0,1-.14.18c-.4.32-.8.65-1.22,1-.24.18-.5.32-.75.48a1.24,1.24,0,0,1,.2-.4l.25-.38c.27-.45.2-.64-.3-.75a1.12,1.12,0,0,1-1-.7.62.62,0,0,0-.23-.28c-.37-.25-.75-.49-1.14-.71a.32.32,0,0,0-.29,0c-.24.21-.46.44-.67.64.34.35.74.71,1.07,1.11a3.27,3.27,0,0,1,.34.74.89.89,0,0,0,.19.34,11.8,11.8,0,0,0,1.6,1.16c1.22.64,2.48,1.19,3.72,1.8a3.32,3.32,0,0,1,.73.48,5.1,5.1,0,0,0,1.05.73c1.24.64,2.46,1.32,3.7,2a1.52,1.52,0,0,0,.65.14c.42,0,.84,0,1.26,0,.13,0,.37,0,.38.07,0,.3.33.32.47.48s.21.09.35,0a2,2,0,0,1,.54-.22c.21-.05.44-.06.65-.11a14.12,14.12,0,0,1,3.23-.46,25.89,25.89,0,0,0,5.82-.18A8.67,8.67,0,0,0,58,56.8a6,6,0,0,1,2.9-.7,3.79,3.79,0,0,0,.8-.09c.42-.08.84-.18,1.27-.27a.92.92,0,0,1-.51.67l-1,.49c-.31.15-.35.31-.22.63a1.13,1.13,0,0,0,1.09.72c.92.07,1.82.21,2.74.31a11.45,11.45,0,0,0,1.68.16,21.63,21.63,0,0,0,2.16-.25,5.71,5.71,0,0,0,3.21-1.4A7.37,7.37,0,0,1,75,55.51l.3-.09.24,0c-.29.21-.61.41-.91.64s-.45.4-.71.56-.49.21-.72.34a1.77,1.77,0,0,0-.31.29l0,.12h.45c.36,0,.72,0,1.08,0,.16,0,.32.15.48.16.94.09,1.89.2,2.83.21a11,11,0,0,0,1.47-.24,3.72,3.72,0,0,1,2.1.32,7.08,7.08,0,0,0,1,.39,10.43,10.43,0,0,0,1,.22l1.7.31,0-.1-1-.8A5.34,5.34,0,0,0,82.38,57ZM45.86,49a1.32,1.32,0,0,1-.18,1.31,1,1,0,0,0-.18.29,1.69,1.69,0,0,1-.69.83Zm-3.57,4.34a.43.43,0,0,1-.36,0c-.21-.1-.36-.08-.47.11-.38.68-1.11.78-1.74,1-.23.08-.54-.1-.81-.15v-.09l.62-.11a2.27,2.27,0,0,0,1.53-.88,1,1,0,0,1,.49-.38,4.63,4.63,0,0,0,2.25-1.62,1.4,1.4,0,0,1,.23-.22A5.72,5.72,0,0,1,42.29,53.38Zm4.08,2.28,1.16-.06,0,.1a13.23,13.23,0,0,1-3.48,1L44,56.64c.25-.25.49-.52.77-.74a3.92,3.92,0,0,1,1.75-.74c.72-.14,1.43-.32,2.13-.47a4.51,4.51,0,0,1-2.3.88Zm15.4-1.39a14.73,14.73,0,0,0-1.81.86,5.13,5.13,0,0,1-1.53.43c-.89.17-1.76.42-2.64.62a3.84,3.84,0,0,1-.74.09.31.31,0,0,1-.22-.17c-.13-.32-.21-.65-.36-1a.74.74,0,0,0-.87-.4c-.49.08-1,.15-1.47.21-.09,0-.2-.09-.3-.14a1.28,1.28,0,0,0-.38-.14c-.75-.05-1.49-.09-2.25-.17l2.61-.78c.87-.27,1.75-.54,2.62-.84s1.74-.63,2.68-1L55,53.23l0,.11c.15,0,.3.08.45.11a1.79,1.79,0,0,0,.34,0,1.58,1.58,0,0,1,1.32.51,1.67,1.67,0,0,0,1.67.44c.59-.14,1.22-.14,1.81-.26a7.34,7.34,0,0,0,3.55-1.56,5,5,0,0,1,.46-.33l0,.06-1.1,1A5.24,5.24,0,0,1,61.77,54.27Z"/><path class="cls-2" d="M26.65,49.55a4.46,4.46,0,0,0-.52-1.22c-.26-.4-.62-.39-.94,0a2,2,0,0,1-1.4.76,1.14,1.14,0,0,0-.8.46,6.53,6.53,0,0,0-.4.53,5,5,0,0,1-1.37,1.46,3.38,3.38,0,0,1-2.39.84,3.28,3.28,0,0,0-1.77.49c-.41.2-.84.36-1.27.51-.28.1-.58.13-.85.24-.72.29-1.43.59-2.14.9-.29.13-.56.4-.84.4a2.33,2.33,0,0,0-1.35.57c-.45.33-.86.71-1.29,1.07.22.29.42.45.74.34a3,3,0,0,1,.34-.06,11,11,0,0,0,2.77-.68.84.84,0,0,1,.33-.07c.51,0,1,0,1.52-.06a1.82,1.82,0,0,0,.71-.16c1.41-.75,2.81-1.53,4.21-2.29l.43-.22c-.63.79-1.29,1.52-1.94,2.26a4.13,4.13,0,0,0-.94,1.85c-.14.58,0,.94.49,1.07a1.9,1.9,0,0,0,1.37-.09,8.55,8.55,0,0,1,3.53-.91,2.81,2.81,0,0,0,2.28-1.43c-.57,0-1.08,0-1.59,0a.9.9,0,0,1-.76-.38.4.4,0,0,1,.07-.61,3.15,3.15,0,0,1,.46-.3c.22-.12.42-.33.33-.54s-.39-.21-.62-.13a11.94,11.94,0,0,0-1.14.45c-.45.21-.89.47-1.35.72a.42.42,0,0,1,0-.1,16.53,16.53,0,0,1,2.2-2.8,1.12,1.12,0,0,1,.5-.26,4,4,0,0,1,1.73.07.7.7,0,0,0,.45-.08,2.43,2.43,0,0,1,1-.42,8.59,8.59,0,0,0,.95-.17L27.08,51A3.83,3.83,0,0,1,26.65,49.55Z"/><path class="cls-2" d="M43.63,58.22a1.91,1.91,0,0,1-1.56-.29,1.58,1.58,0,0,0-.51-.19A.41.41,0,0,0,41,58l-.35.7-.25-.73c-.14-.41-.18-.43-.62-.37l-.23,0c-.06,0-.15,0-.16,0a3.88,3.88,0,0,1-.53-1c-.12-.46-.23-.63-.71-.64a1.85,1.85,0,0,1-.34,0,.81.81,0,0,0-.88.44c-.22.32-.45.63-.69,1-.07-.51-.15-1-.21-1.49A2.22,2.22,0,0,0,34.83,54a.33.33,0,0,0-.42,0c-.31.25-.65.48-1,.71s-.92.65-1.38,1c-.27.2-.52.43-.79.62a1.91,1.91,0,0,1-1.37.49.92.92,0,0,0-.89.4l-.81,1,1.29.16c.84.1,1.68.27,2.53.3a24.73,24.73,0,0,1,3.81.46,17,17,0,0,0,3.88.35,2.27,2.27,0,0,0,.82-.23,4.88,4.88,0,0,1,2.2-.58,11.6,11.6,0,0,0,1.32,0,9.34,9.34,0,0,0,1.05-.2A2.63,2.63,0,0,0,43.63,58.22Z"/><path class="cls-2" d="M17.45,51.72a.81.81,0,0,1,.36-.16,2.6,2.6,0,0,1,1.66.15.59.59,0,0,0,.59,0,5.82,5.82,0,0,0,1.59-1.31,1.27,1.27,0,0,0,.28-.49,1.35,1.35,0,0,1,.63-.85c.43-.27.86-.54,1.3-.79a3,3,0,0,0,1.61-2c.16-.7.24-1.41.34-2.12a.31.31,0,0,0-.11-.23.91.91,0,0,0-1.34.07c-.6.51-1.15,1.07-1.72,1.61A11,11,0,0,1,21,47.24a28.29,28.29,0,0,0-6.41,5.63l1.47-.51A3.41,3.41,0,0,0,17.45,51.72Z"/><path class="cls-2" d="M46.91,52.24c-.79.81-1.62,1.59-2.41,2.35A7.13,7.13,0,0,1,47,54.05a1.9,1.9,0,0,0,.48-.07c.24-.09.45-.24.68-.34a1.53,1.53,0,0,0,1-1.05c.09-.35.2-.69.28-1a.59.59,0,0,0,0-.39c-.29-.49-.6-1-.9-1.43l-.28-.44a1.82,1.82,0,0,1-.36,1.27,7.91,7.91,0,0,0-.49.63,1.77,1.77,0,0,0-.17.38C47.08,51.79,47.06,52.08,46.91,52.24Z"/><path class="cls-2" d="M52.32,51.33a3.77,3.77,0,0,1,.74.49c.22.18.36.1.48-.11s.33-.58.48-.88a.72.72,0,0,0-.1-.87c-.17-.18-.31-.39-.44-.55a1.93,1.93,0,0,0-1.26.58c-.1.09-.22.21-.33.21-.55,0-.87.51-1.43.55a1.74,1.74,0,0,0,1.2.47A1.85,1.85,0,0,1,52.32,51.33Z"/><path d="M64.58,52.26a5,5,0,0,0-.46.33,7.34,7.34,0,0,1-3.55,1.56c-.6.12-1.22.12-1.81.26A1.67,1.67,0,0,1,57.09,54a1.58,1.58,0,0,0-1.32-.51,1.79,1.79,0,0,1-.34,0c-.15,0-.3-.07-.45-.11l0-.11,2.16-1.32c-.95.34-1.81.67-2.68,1s-1.74.57-2.62.84l-2.61.78c.76.08,1.51.12,2.25.17a1.28,1.28,0,0,1,.38.14c.1,0,.21.15.3.14.49-.05,1-.13,1.47-.21a.74.74,0,0,1,.87.4c.15.3.23.64.36,1a.31.31,0,0,0,.22.17,3.84,3.84,0,0,0,.74-.09c.88-.2,1.75-.45,2.64-.62A5.13,5.13,0,0,0,60,55.13a14.73,14.73,0,0,1,1.81-.86,5.24,5.24,0,0,0,1.76-1l1.1-1Z"/><path d="M46.52,55.16a3.92,3.92,0,0,0-1.75.74c-.28.22-.51.49-.77.74l.06.08a13.23,13.23,0,0,0,3.48-1l0-.1-1.16.06,0-.09a4.51,4.51,0,0,0,2.3-.88C48,54.84,47.24,55,46.52,55.16Z"/><path d="M43.8,51.28a4.63,4.63,0,0,1-2.25,1.62,1,1,0,0,0-.49.38,2.27,2.27,0,0,1-1.53.88l-.62.11v.09c.27.06.59.23.81.15.63-.22,1.36-.32,1.74-1,.1-.19.26-.21.47-.11a.43.43,0,0,0,.36,0A5.72,5.72,0,0,0,44,51.06,1.4,1.4,0,0,0,43.8,51.28Z"/><path d="M45.51,50.64a1,1,0,0,1,.18-.29A1.32,1.32,0,0,0,45.86,49l-1.05,2.43A1.69,1.69,0,0,0,45.51,50.64Z"/></svg>