<?xml version="1.0" encoding="utf-8"?>
<!-- Generator: Adobe Illustrator 21.0.0, SVG Export Plug-In . SVG Version: 6.00 Build 0)  -->
<svg version="1.1" id="Capa_1" xmlns="http://www.w3.org/2000/svg" xmlns:xlink="http://www.w3.org/1999/xlink" x="0px" y="0px"
	 viewBox="0 0 244 190" style="enable-background:new 0 0 244 190;" xml:space="preserve">
<style type="text/css">
	.st0{fill:#FFFFFF;}
	.st1{font-family:'ArialMT';}
	.st2{font-size:23.841px;}
</style>
<g>
	<g>
		<g>
			<path d="M144.4,20.4c-0.1,1.5-0.6,2.8-1.4,3.9c-0.8,1.1-1.8,2-3.1,2.6c-2.4,1.2-5.2,1.8-8.4,1.8c-0.6,0-1.1,0-1.5-0.1
				c-1.9,4.7-2.8,7.9-2.8,9.5c0,0.3,0,0.6,0.1,0.7H123c0.6-2.7,2-6.5,4-11.3c2.7-6.4,4.4-10.1,5.2-10.9c-1.9,0-3.8,0.4-5.8,1.2
				c-2,0.7-3.1,1.6-3.4,2.6c0,0.1-0.1,0.1-0.1,0.1c-0.2,0-0.3-0.1-0.3-0.4c0,0,0-0.2,0.1-0.3c0.4-1.2,1-2.2,1.9-2.9s1.6-1.1,2.4-1.2
				c0.8-0.2,1.7-0.2,2.9-0.2h8.5c2,0,3.6,0.4,4.6,1.3c1,0.9,1.6,2,1.6,3.3V20.4z M135.4,27.2c1.6-0.6,2.9-1.4,4-2.6
				c1-1.2,1.5-2.5,1.5-4.1c0-2.6-1.5-3.9-4.6-4.1c-1.5,1.8-3.3,5.2-5.4,10l-0.7,1.7h0.4C132.2,28,133.8,27.8,135.4,27.2z"/>
			<path d="M153.2,25.4l1.7,0h0.3c-0.7,0.6-1.7,2.1-2.7,4.6c-1.1,2.5-1.6,4.2-1.6,5.4c0,0.6,0.2,0.9,0.6,0.9c1.3,0,3-1.9,5-5.8
				c0.1-0.2,0.2-0.2,0.2-0.2c0.1,0,0.2,0.2,0.2,0.6c0,0.4-0.1,0.8-0.3,1.2c-2.8,4.6-5.1,7-6.9,7c-1.2,0-1.8-0.9-1.8-2.8
				c0-1.4,0.2-2.8,0.7-4.1c-2.6,4.5-4.9,6.8-7.1,6.8c-1.5,0-2.3-1-2.3-3.1c0-1.6,0.3-3.2,1-4.8c0.7-1.6,1.7-3,2.9-4.1
				c1.3-1.1,2.7-1.7,4.2-1.7c0.7,0,1.4,0.2,2,0.5c0.6,0.3,1,0.8,1.2,1.6c0.2-0.5,0.6-1,1.1-1.3S152.8,25.4,153.2,25.4z M150.4,27.6
				c-0.2-0.7-0.8-1.1-1.6-1.1c-1.5,0-2.9,1-4.3,3.1s-2.1,3.9-2.1,5.5c0,0.7,0.3,1,0.8,1c0.6,0,1.3-0.4,2.1-1.1
				c0.8-0.7,1.5-1.6,2.1-2.6C148.8,30.3,149.8,28.7,150.4,27.6z"/>
			<path d="M165.8,19.5c-1.1,0.8-2.3,2.7-3.7,5.9h3.4l0,0c0,0.1-0.1,0.3-0.4,0.6c-0.2,0.3-0.5,0.4-0.6,0.4h-2.9
				c-1.8,4.4-2.7,7.2-2.7,8.5c0,0.9,0.3,1.3,0.8,1.3c0.8,0,1.7-0.7,2.8-2c0.2-0.3,0.6-0.8,1-1.5c1-1.7,1.6-2.5,1.6-2.5
				c0.1,0,0.2,0.2,0.2,0.5c0,0.9-1,2.5-2.8,5c-0.6,0.8-1.3,1.6-2.2,2.3c-0.9,0.7-1.6,1-2.3,1c-1.3,0-1.9-0.9-1.9-2.7
				c0-1.5,0.4-3.2,1.1-5.2v0c-0.4,0.8-0.8,1.4-1.1,1.8c-0.3,0.4-0.5,0.6-0.5,0.6c-0.1,0-0.1-0.1-0.1-0.4c0-0.3,0.2-0.7,0.5-1.4
				c0.3-0.6,0.7-1.4,1.2-2.5c0.5-1,1-1.9,1.3-2.8h-2.3c-0.1,0-0.1-0.1-0.1-0.2s0.1-0.3,0.3-0.5c0.2-0.2,0.3-0.4,0.4-0.4h2.6
				c1.6-3.9,3.3-5.8,4.9-5.8C165.2,19.6,165.7,19.6,165.8,19.5z"/>
			<path d="M168.8,25.4l1.7,0h0.3c-0.4,0.3-0.8,1-1.4,2.2c-0.6,1.2-1,2.1-1.3,2.7c-0.3,0.6-0.6,1.4-1,2.5c-0.4,1-0.6,1.9-0.6,2.5
				s0.2,1,0.6,1c0.3,0,0.7-0.2,1.2-0.6c0.5-0.4,1-0.8,1.3-1.2c0.3-0.4,0.7-1,1.1-1.7c0.4-0.7,0.8-1.3,1.1-1.8
				c0.3-0.5,0.5-0.7,0.5-0.7c0.1,0,0.2,0.2,0.2,0.6c0,0.4-0.1,0.8-0.3,1.2c-0.8,1.4-1.6,2.6-2.3,3.5c-0.7,0.9-1.5,1.7-2.3,2.4
				s-1.7,1-2.4,1c-1.3,0-1.9-0.9-1.9-2.6c0-2.7,0.9-5.7,2.8-9C167,26,167.8,25.4,168.8,25.4z M173.4,20.9h-0.1
				c-0.5,0-0.9,0.2-1.3,0.6c-0.4,0.4-0.7,0.8-0.9,1.2c-0.6-0.2-0.9-0.6-0.9-1.2c0-0.6,0.3-1.2,0.8-1.8c0.5-0.6,1.1-0.9,1.5-0.9
				s0.9,0.1,1.1,0.3c0.2,0.2,0.4,0.5,0.4,0.9C174,20.3,173.8,20.7,173.4,20.9z"/>
			<path d="M181.5,19.5c-1.1,0.8-2.3,2.7-3.7,5.9h3.4l0,0c0,0.1-0.1,0.3-0.4,0.6c-0.2,0.3-0.5,0.4-0.6,0.4h-2.9
				c-1.8,4.4-2.7,7.2-2.7,8.5c0,0.9,0.3,1.3,0.8,1.3c0.8,0,1.7-0.7,2.8-2c0.2-0.3,0.6-0.8,1-1.5c1-1.7,1.6-2.5,1.6-2.5
				c0.1,0,0.2,0.2,0.2,0.5c0,0.9-1,2.5-2.8,5c-0.6,0.8-1.3,1.6-2.2,2.3c-0.9,0.7-1.6,1-2.3,1c-1.3,0-1.9-0.9-1.9-2.7
				c0-1.5,0.4-3.2,1.1-5.2v0c-0.4,0.8-0.8,1.4-1.1,1.8c-0.3,0.4-0.5,0.6-0.5,0.6c-0.1,0-0.1-0.1-0.1-0.4c0-0.3,0.2-0.7,0.5-1.4
				c0.3-0.6,0.7-1.4,1.2-2.5c0.5-1,1-1.9,1.3-2.8h-2.3c-0.1,0-0.1-0.1-0.1-0.2s0.1-0.3,0.3-0.5c0.2-0.2,0.3-0.4,0.4-0.4h2.6
				c1.6-3.9,3.3-5.8,4.9-5.8C180.9,19.6,181.4,19.6,181.5,19.5z"/>
			<path d="M195.7,30.6c0.1-0.1,0.1-0.2,0.2-0.2c0.1,0,0.2,0.2,0.2,0.5c0,1.1-0.4,2-1.3,2.7s-1.7,1.1-2.4,1.1
				c-0.8,0-1.4-0.2-1.9-0.6c-0.8,1.6-1.8,2.9-2.9,3.8c-1.1,0.9-2.5,1.4-4.3,1.4c-1.1,0-2-0.3-2.7-1c-0.7-0.7-1.1-1.7-1.1-3.1
				c0-1.4,0.3-2.9,1-4.3c0.6-1.5,1.6-2.8,2.9-3.9c1.3-1.1,2.7-1.6,4.3-1.6c2.7,0,4,1.4,4,4.2c0,1.1-0.2,2.2-0.7,3.4
				c0.3,0.5,0.8,0.7,1.4,0.7C193.5,33.5,194.6,32.5,195.7,30.6z M190,28.5c-0.1-1.2-0.6-1.8-1.6-1.8c-1.5,0-3.1,1.5-4.5,4.5
				c-0.8,1.7-1.2,3.2-1.2,4.5c0,1.3,0.6,2.1,1.8,2.1c1,0,1.9-0.5,2.7-1.5s1.5-2.2,2.1-3.4c-0.8-0.7-1.1-1.5-1.1-2.5
				c0-0.6,0.2-1.1,0.5-1.4c0.3-0.4,0.8-0.5,1.3-0.5H190z"/>
		</g>
		<g>
			<rect x="77.7" y="42.6" width="162.7" height="2.8"/>
		</g>
		<g>
			<path d="M108.1,60.8v-8.6h1.1v3.5h4.5v-3.5h1.1v8.6h-1.1v-4h-4.5v4H108.1z"/>
			<path d="M116.4,56.6c0-1.4,0.4-2.5,1.1-3.3s1.8-1.2,3-1.2c0.8,0,1.5,0.2,2.1,0.6s1.1,0.9,1.5,1.6s0.5,1.4,0.5,2.3
				c0,0.9-0.2,1.7-0.5,2.3s-0.8,1.2-1.5,1.6s-1.3,0.5-2.1,0.5c-0.8,0-1.5-0.2-2.2-0.6s-1.1-0.9-1.4-1.6S116.4,57.3,116.4,56.6z
				 M117.6,56.6c0,1,0.3,1.9,0.8,2.4s1.3,0.9,2.1,0.9c0.9,0,1.6-0.3,2.1-0.9s0.8-1.5,0.8-2.6c0-0.7-0.1-1.3-0.4-1.8s-0.6-0.9-1-1.2
				s-1-0.4-1.5-0.4c-0.8,0-1.5,0.3-2.1,0.8S117.6,55.3,117.6,56.6z"/>
			<path d="M128.3,60.8v-7.6h-2.8v-1h6.8v1h-2.8v7.6H128.3z"/>
			<path d="M133.4,60.8v-8.6h6.2v1h-5.1v2.6h4.8v1h-4.8v2.9h5.3v1H133.4z"/>
			<path d="M141.4,60.8v-8.6h1.1v7.6h4.2v1H141.4z"/>
			<path d="M155.8,59.8c-0.3,0.4-0.7,0.7-1.1,0.9s-0.9,0.3-1.3,0.3c-0.9,0-1.6-0.3-2.1-0.9c-0.4-0.5-0.6-1-0.6-1.6
				c0-0.5,0.2-1,0.5-1.4s0.9-0.8,1.5-1.1c-0.4-0.4-0.6-0.8-0.8-1.1s-0.2-0.5-0.2-0.8c0-0.5,0.2-1,0.6-1.3s0.9-0.6,1.5-0.6
				c0.6,0,1.1,0.2,1.4,0.5s0.6,0.8,0.6,1.3c0,0.8-0.5,1.5-1.6,2.1l1.5,2c0.2-0.3,0.3-0.7,0.4-1.2l1.1,0.2c-0.2,0.8-0.4,1.4-0.8,1.9
				c0.4,0.5,0.8,1,1.3,1.3l-0.7,0.8C156.6,60.7,156.2,60.3,155.8,59.8z M155.1,58.9l-1.9-2.4c-0.6,0.3-1,0.7-1.2,0.9
				s-0.3,0.6-0.3,0.9c0,0.3,0.1,0.7,0.4,1.1s0.7,0.6,1.2,0.6c0.3,0,0.6-0.1,1-0.3S154.9,59.2,155.1,58.9z M153.6,55.3
				c0.5-0.3,0.8-0.5,0.9-0.7s0.2-0.4,0.2-0.7c0-0.3-0.1-0.5-0.3-0.7s-0.4-0.3-0.7-0.3c-0.3,0-0.5,0.1-0.7,0.3s-0.3,0.4-0.3,0.7
				c0,0.1,0,0.3,0.1,0.4s0.2,0.3,0.3,0.5L153.6,55.3z"/>
			<path d="M162.3,60.8v-8.6h3.8c0.8,0,1.3,0.1,1.7,0.2s0.7,0.4,1,0.8s0.4,0.8,0.4,1.3c0,0.6-0.2,1.1-0.6,1.5s-1,0.7-1.8,0.8
				c0.3,0.1,0.5,0.3,0.7,0.4c0.3,0.3,0.6,0.7,0.9,1.1l1.5,2.3h-1.4l-1.1-1.8c-0.3-0.5-0.6-0.9-0.8-1.2s-0.4-0.5-0.6-0.6
				s-0.3-0.2-0.5-0.2c-0.1,0-0.3,0-0.6,0h-1.3v3.8H162.3z M163.5,56h2.4c0.5,0,0.9-0.1,1.2-0.2s0.5-0.3,0.7-0.5s0.2-0.5,0.2-0.8
				c0-0.4-0.1-0.7-0.4-1s-0.8-0.4-1.4-0.4h-2.7V56z"/>
			<path d="M171,60.8v-8.6h6.2v1h-5.1v2.6h4.8v1h-4.8v2.9h5.3v1H171z"/>
			<path d="M178.6,58l1.1-0.1c0.1,0.4,0.2,0.8,0.4,1.1s0.5,0.5,0.9,0.7s0.8,0.3,1.3,0.3c0.4,0,0.8-0.1,1.1-0.2s0.6-0.3,0.7-0.5
				s0.2-0.5,0.2-0.7c0-0.3-0.1-0.5-0.2-0.7s-0.4-0.4-0.8-0.5c-0.2-0.1-0.7-0.2-1.5-0.4s-1.3-0.4-1.7-0.5c-0.4-0.2-0.7-0.5-0.9-0.8
				s-0.3-0.7-0.3-1.1c0-0.4,0.1-0.8,0.4-1.2s0.6-0.7,1.1-0.9s1-0.3,1.6-0.3c0.6,0,1.2,0.1,1.7,0.3s0.9,0.5,1.1,0.9s0.4,0.8,0.4,1.4
				l-1.1,0.1c-0.1-0.5-0.3-1-0.6-1.2S182.7,53,182,53c-0.7,0-1.2,0.1-1.5,0.4S180,54,180,54.3c0,0.3,0.1,0.6,0.3,0.8
				c0.2,0.2,0.8,0.4,1.7,0.6s1.6,0.4,1.9,0.5c0.5,0.2,0.9,0.5,1.1,0.9s0.4,0.8,0.4,1.2c0,0.5-0.1,0.9-0.4,1.3s-0.6,0.7-1.1,0.9
				s-1,0.3-1.7,0.3c-0.8,0-1.4-0.1-2-0.3s-0.9-0.6-1.2-1S178.6,58.6,178.6,58z"/>
			<path d="M186.6,56.6c0-1.4,0.4-2.5,1.1-3.3s1.8-1.2,3-1.2c0.8,0,1.5,0.2,2.1,0.6s1.1,0.9,1.5,1.6s0.5,1.4,0.5,2.3
				c0,0.9-0.2,1.7-0.5,2.3s-0.8,1.2-1.5,1.6s-1.3,0.5-2.1,0.5c-0.8,0-1.5-0.2-2.2-0.6s-1.1-0.9-1.4-1.6S186.6,57.3,186.6,56.6z
				 M187.8,56.6c0,1,0.3,1.9,0.8,2.4s1.3,0.9,2.1,0.9c0.9,0,1.6-0.3,2.1-0.9s0.8-1.5,0.8-2.6c0-0.7-0.1-1.3-0.4-1.8s-0.6-0.9-1-1.2
				s-1-0.4-1.5-0.4c-0.8,0-1.5,0.3-2.1,0.8S187.8,55.3,187.8,56.6z"/>
			<path d="M196.3,60.8v-8.6h3.8c0.8,0,1.3,0.1,1.7,0.2s0.7,0.4,1,0.8s0.4,0.8,0.4,1.3c0,0.6-0.2,1.1-0.6,1.5s-1,0.7-1.8,0.8
				c0.3,0.1,0.5,0.3,0.7,0.4c0.3,0.3,0.6,0.7,0.9,1.1l1.5,2.3h-1.4l-1.1-1.8c-0.3-0.5-0.6-0.9-0.8-1.2s-0.4-0.5-0.6-0.6
				s-0.3-0.2-0.5-0.2c-0.1,0-0.3,0-0.6,0h-1.3v3.8H196.3z M197.5,56h2.4c0.5,0,0.9-0.1,1.2-0.2s0.5-0.3,0.7-0.5s0.2-0.5,0.2-0.8
				c0-0.4-0.1-0.7-0.4-1s-0.8-0.4-1.4-0.4h-2.7V56z"/>
			<path d="M207,60.8v-7.6h-2.8v-1h6.8v1h-2.8v7.6H207z"/>
		</g>
	</g>
	<g>
		<g>
			<g>
				<path d="M43.5,63.2c-2.4-0.7-4.5-1.8-6.4-3.2c-2.2-1.7-4-3.7-5.2-6.1c-1.3-2.6-2.2-5.4-2.3-8.3c-0.2-2.4,0.1-4.8,0.8-7.1
					c1.1-3.6,3.2-6.6,6-9.1c1.9-1.6,4-2.8,6.3-3.6c2-0.7,4-1,6-1.1c1.9,0,3.8,0.2,5.6,0.7c1.9,0.5,3.7,1.3,5.3,2.4
					c1.5,0.9,2.8,1.9,4,3.2c1,1,1.7,2.1,2.4,3.3c0.7,1.1,1.3,2.2,1.7,3.4c0.6,1.8,0.9,3.6,1,5.5c0.1,2.2,0.1,4.3-0.7,6.4
					c-0.5,1.2-1,2.4-1.6,3.6c-0.5,1.1-1.1,2.2-1.9,3.2c-0.7,0.9-1.5,1.7-2.3,2.6c-1.2,1.4-2.7,2.4-4.4,3.1c-3,1.3-6.2,1.8-9.1,1.9
					C46.6,63.8,45,63.6,43.5,63.2z M49.9,28.3c-0.1-0.5-0.3-0.8-0.8-0.8c-0.6-0.1-1.1-0.3-1.5-0.7c-0.5-0.4-1-0.5-1.6-0.6
					c-1.6-0.2-3,0.1-4.5,0.8c-0.8,0.4-1.7,0.7-2.4,1.1c-0.7,0.4-1.3,0.8-1.9,1.4c-1.7,1.6-3.2,3.4-4.5,5.4c-0.8,1.2-1.4,2.4-1.8,3.8
					c-0.2,0.6-0.2,1.4-0.4,2c-0.1,0.7-0.4,1.4-0.4,2.1c-0.1,0.7,0,1.5,0.1,2.2c0.1,1.4,0.3,2.8,0.8,4.1c0.7,1.9,1.3,3.8,2.3,5.5
					c0.8,1.3,1.7,2.6,2.9,3.5c0.5,0.3,0.9,0.3,1.5,0.3c0.6,0,1.3-0.3,1.8,0.1c0.2,0.1,0.4,0.4,0.5,0.6c0.2,0.3,0.4,0.6,0.6,0.9
					c0.3,0.3,0.7,0.1,0.8-0.3c0.1-0.2,0.2-0.4,0.3-0.4c0.3-0.1,0.5,0.1,0.6,0.4c0.2,0.5,0.3,0.6,0.7,0.2c0.5-0.5,1.1-0.3,1.7-0.2
					c0.6,0.1,1.1,0.1,1.7,0.1c0.4,0,0.7-0.3,0.7-0.6c0.1-0.2,0.1-0.4,0.1-0.7c0.2-0.7,0.5-0.9,1.2-1c0.4,0,0.6-0.5,0.4-0.9
					c0-0.1-0.1-0.2-0.1-0.3c-0.2-0.5,0.1-0.8,0.3-1.1c0.2-0.4,0.6-0.5,1.1-0.6c0.3-0.1,0.5,0,0.7,0.2c0.1,0.2,0.3,0.3,0.5,0.5
					c0.4,0.4,0.9,0.3,1.1-0.3c0-0.1,0.1-0.3,0.1-0.4c0.3-0.5,0.8-0.6,1.3-0.6c0,0,0,0,0,0c0.3,0.5,1,0.7,1.7,0.5
					c0.6-0.2,1-0.6,1.1-1.2c0.1-0.7-0.1-1.2-0.7-1.6c-0.1,0-0.1-0.1-0.2-0.2c0.2-0.3,0.5-0.5,0.7-0.7c0.7-0.7,0.6-1.4,0.1-2
					c-0.4-0.5-0.4-1-0.4-1.5c0-0.7,0.3-1.3,0.6-1.9c0.4-0.7,0.4-1.5,0.1-2.3c-0.1-0.3-0.4-0.6-0.6-0.9c-0.2-0.3-0.3-0.5-0.5-0.8
					c-0.2-0.4-0.2-0.8-0.1-1.1c0.3-0.8,0.7-1.6,1.1-2.4c0.3-0.5,0-1-0.6-1.1c-0.1,0-0.2,0-0.2,0.1c-0.4,0.2-0.7,0.5-1.1,0.7
					c-0.1,0.1-0.2,0.2-0.3,0.2c-0.2,0.1-0.4,0.2-0.7,0.2c-0.3,0-0.3-0.3-0.4-0.5c-0.1-0.2-0.2-0.4-0.3-0.7c-0.1-0.3,0-0.5,0.2-0.7
					c0.3-0.3,0.5-0.6,0.7-0.9c0.3-0.4,0-0.9-0.4-1c-0.1,0-0.2,0-0.3,0c-1.1-0.1-1.4-0.4-1.7-1.4c-0.1-0.3-0.1-0.6-0.1-1
					c-0.1,0-0.1,0-0.2,0c-0.8,0.1-1.4-0.2-1.7-1c-0.2-0.6,0-1.3,0.5-1.7c0,0,0.1-0.1,0.1-0.1c0.5-0.2,1-0.3,1.4,0
					c1,0.5,1.1,1.8,0.2,2.5c-0.1,0.1-0.2,0.1-0.3,0.2c0.6-0.1,1-0.4,1.2-0.9c0.2-0.6,0.1-1.1-0.2-1.6c-0.5-0.7-1.4-0.8-2.1-0.3
					c-0.1,0.1-0.1,0.2-0.2,0.2C50.1,29.1,49.9,28.8,49.9,28.3z M58.9,59.6c4.1-2.6,6.5-6.8,7.1-10.5c-0.3,0.6-0.5,1.1-0.8,1.7
					c-0.2,0.3-0.3,0.7-0.5,1c-0.1,0.2-0.3,0.3-0.5,0.2c-0.1,0-0.2,0-0.3,0c0,0,0,0.1,0,0.1c0.2,0,0.3,0.1,0.5,0.1
					c-1.7,2.8-3.9,5.1-6.7,6.8c-2.8,1.7-5.8,2.7-9,3.1C52.3,62.5,55.8,61.6,58.9,59.6z M49.4,26.4c3.1,0.3,6.1,1.1,8.9,2.6
					C56.3,26.5,52.2,25.6,49.4,26.4z M59.7,44.2c0-0.7-0.5-1.3-1.2-1.2c0.5,0.3,0.8,0.7,0.8,1.2c0,0.5-0.2,1-0.7,1.3
					C59.3,45.4,59.7,44.9,59.7,44.2z M62.1,49.5c0.2-0.6-0.1-1.3-0.7-1.4c0.4,0.4,0.5,0.9,0.4,1.4c-0.2,0.5-0.5,0.8-1.1,1
					C61.2,50.7,61.8,50.3,62.1,49.5z M64.1,36.5c0.3-0.1,0.5-0.3,0.6-0.6c0.2-0.6,0-1.1-0.4-1.5c-0.3-0.3-0.7-0.4-1.1-0.2
					C64.4,34.6,64.7,35.8,64.1,36.5z M62,41.5c-0.1-0.7-0.6-1.1-1.2-1.1c0.2,0.1,0.4,0.3,0.6,0.4c-0.1,0.1-0.1,0.1-0.3,0.2
					c0.4-0.1,0.5,0.1,0.5,0.4c0.1,0.5,0,0.7-0.4,1.3C61.9,42.7,62.1,42,62,41.5z M64,46.2c0.4,0.1,0.9-0.4,0.9-0.9
					c0.1-0.7-0.3-1.2-1-1.3C64.7,44.5,64.8,45.5,64,46.2z M57.5,55.8c0.3,0.4,0.9,0.3,1.3-0.2c0.4-0.4,0.4-0.9,0.1-1.3
					C59,55.4,58.4,55.8,57.5,55.8z M60.9,30.9c-0.5-0.3-1.1-0.3-1.3,0.2c0.4-0.2,0.8-0.2,1.1,0c0.3,0.2,0.5,0.6,0.5,1
					C61.5,31.8,61.4,31.2,60.9,30.9z M55.4,58.4c0.5-0.3,0.6-0.8,0.3-1.2c0,0.4-0.1,0.8-0.5,1c-0.4,0.2-0.7,0.3-1.2,0
					C54.4,58.7,54.9,58.7,55.4,58.4z M60.4,35.8c0.4-0.1,0.5-0.6,0.4-1c-0.2-0.6-0.7-0.9-1.2-0.6C60.4,34.3,60.8,35,60.4,35.8z
					 M47.3,60.6C47.3,60.6,47.3,60.6,47.3,60.6c0.1,0.2,0.2,0.4,0.3,0.5c0.4,0.2,0.8,0.2,1.1,0c0.3-0.2,0.4-0.4,0.4-0.7
					C48.5,61.1,48,61.2,47.3,60.6z M63.7,39.7c0.4-0.1,0.6-0.5,0.5-1c-0.1-0.5-0.5-0.8-0.9-0.7C64.1,38.4,64.1,39.2,63.7,39.7z
					 M51.8,58.5c0.5-0.1,0.8-0.5,0.7-1c-0.2,0.4-0.4,0.6-0.7,0.7c-0.3,0.1-0.7,0-1-0.2C50.9,58.4,51.3,58.6,51.8,58.5z M52.5,28.3
					c0.1,0.1,0.2,0.2,0.3,0.2c0.1,0,0.2-0.1,0.3-0.1c-0.1-0.1-0.1-0.2-0.2-0.3c-0.1-0.1-0.3-0.1-0.5-0.2
					C52.5,28.1,52.4,28.2,52.5,28.3z M66.6,41.5c-0.4-0.2-0.8-0.1-1,0.2C66,41.8,66.4,41.7,66.6,41.5z M58.9,40.1
					c-0.3-0.2-0.8-0.2-1,0c0,0,0,0.1,0,0.1C58.2,40.1,58.6,40.1,58.9,40.1z M45.7,61.3c-0.3-0.2-0.9-0.2-1,0
					C45,61.4,45.3,61.3,45.7,61.3z M63.1,41.6c0.3,0.3,0.7,0.3,1,0C63.8,41.6,63.5,41.6,63.1,41.6z M60.8,54c0.4,0.1,0.8,0.2,1.1,0
					c0,0,0-0.1,0-0.1C61.5,53.9,61.2,53.9,60.8,54z M58.9,56.6c-0.2,0-0.5,0.1-0.8,0.1C58.3,57,58.6,57,58.9,56.6z M60.5,51.9
					c0.1,0.3,0.2,0.3,0.8,0C61.1,51.9,60.8,51.9,60.5,51.9z M56.6,32.6c-0.3,0-0.6-0.1-0.8-0.1C55.9,32.7,56.2,32.8,56.6,32.6z
					 M56.3,34.5c0.2,0.2,0.5,0.2,0.7,0.1c0,0,0-0.1,0-0.1C56.8,34.5,56.5,34.5,56.3,34.5z M66.9,40.8c0,0,0-0.1,0-0.1
					c-0.2,0-0.5-0.1-0.7-0.1c0,0,0,0.1,0,0.1C66.4,40.8,66.6,40.8,66.9,40.8z M60.5,43.8c0,0,0,0.1,0,0.1c0.2,0,0.3,0,0.6,0.1
					C60.8,43.7,60.7,43.8,60.5,43.8z M65.4,39.7c0,0,0-0.1,0-0.1c-0.2,0-0.4,0-0.6,0.1c0,0,0,0.1,0,0.1
					C65.1,39.8,65.3,39.9,65.4,39.7z"/>
			</g>
			<g>
				<path class="st0" d="M55.2,54.2c0.8,0,1.3-0.5,1.4-1.2c0.1-0.8-0.4-1.4-1.1-1.6c-0.7-0.2-1.4,0.2-1.7,0.9
					c-0.2,0.6,0,1.1,0.3,1.6c-0.5,0-1,0.1-1.3,0.6c-0.1,0.1-0.1,0.3-0.1,0.4c-0.2,0.6-0.7,0.7-1.1,0.3c-0.2-0.2-0.3-0.3-0.5-0.5
					c-0.2-0.2-0.4-0.3-0.7-0.2c-0.4,0.1-0.8,0.2-1.1,0.6c-0.2,0.3-0.6,0.7-0.3,1.1c0,0.1,0.1,0.2,0.1,0.3c0.2,0.4,0,0.9-0.4,0.9
					c-0.7,0.1-1,0.3-1.2,1c-0.1,0.2-0.1,0.4-0.1,0.7c-0.1,0.4-0.4,0.6-0.7,0.6c-0.6,0-1.2-0.1-1.7-0.1c-0.6-0.1-1.1-0.3-1.7,0.2
					c-0.4,0.4-0.5,0.3-0.7-0.2c-0.1-0.3-0.4-0.4-0.6-0.4c-0.1,0-0.3,0.3-0.3,0.4c-0.1,0.4-0.5,0.6-0.8,0.3c-0.2-0.3-0.4-0.6-0.6-0.9
					c-0.2-0.2-0.3-0.5-0.5-0.6c-0.6-0.4-1.2-0.1-1.8-0.1c-0.5,0-1,0-1.5-0.3c-1.3-0.9-2.2-2.2-2.9-3.5c-1-1.7-1.6-3.7-2.3-5.5
					c-0.5-1.3-0.7-2.7-0.8-4.1c-0.1-0.7-0.1-1.5-0.1-2.2c0.1-0.7,0.3-1.4,0.4-2.1c0.1-0.7,0.1-1.4,0.4-2c0.5-1.3,1.1-2.6,1.8-3.8
					c1.3-2,2.7-3.8,4.5-5.4c0.6-0.5,1.2-1,1.9-1.4c0.8-0.4,1.6-0.7,2.4-1.1c1.4-0.7,2.9-1,4.5-0.8c0.6,0.1,1.2,0.2,1.6,0.6
					c0.4,0.4,0.9,0.6,1.5,0.7c0.4,0.1,0.7,0.4,0.8,0.8c0.1,0.5,0.3,0.8,0.8,0.9l0,0c0,0-0.1,0.1-0.1,0.1c-0.6,0.4-0.8,1.1-0.5,1.7
					c0.3,0.8,0.9,1.1,1.7,1c0.1,0,0.2,0,0.2,0c0,0.3,0.1,0.7,0.1,1c0.3,1,0.6,1.3,1.7,1.4c0.1,0,0.2,0,0.3,0c0.4,0.1,0.7,0.5,0.4,1
					c-0.2,0.3-0.4,0.6-0.7,0.9c-0.2,0.2-0.3,0.4-0.2,0.7c0.1,0.2,0.2,0.4,0.3,0.7c0.1,0.2,0.1,0.5,0.4,0.5c0.2,0,0.5-0.1,0.7-0.2
					c0.1,0,0.2-0.1,0.3-0.2c0.4-0.2,0.7-0.5,1.1-0.7c0.1,0,0.2-0.1,0.2-0.1c0.6,0.1,0.8,0.6,0.6,1.1c-0.4,0.8-0.7,1.6-1.1,2.4
					c-0.2,0.4-0.1,0.8,0.1,1.1c0.2,0.3,0.3,0.5,0.5,0.8c0.2,0.3,0.4,0.6,0.6,0.9c0.3,0.8,0.3,1.5-0.1,2.3c-0.3,0.6-0.6,1.2-0.6,1.9
					c0,0.6,0,1,0.4,1.5c0.5,0.7,0.7,1.3-0.1,2c-0.2,0.2-0.5,0.5-0.7,0.7c0.1,0.1,0.2,0.1,0.2,0.2c0.6,0.4,0.8,1,0.7,1.6
					c-0.1,0.6-0.5,1-1.1,1.2c-0.7,0.2-1.4,0-1.7-0.5C54.5,54.1,54.8,54.2,55.2,54.2z M41.6,34.8c0.9,0,1.7-0.8,1.7-1.7
					c0-1-0.7-1.8-1.7-1.8c-1,0-1.8,0.7-1.8,1.8C39.8,34,40.6,34.8,41.6,34.8z M34.5,46.3c0-0.7-0.6-1.3-1.3-1.3
					c-0.7,0-1.2,0.5-1.3,1.2c0,0.6,0.7,1.4,1.3,1.3C33.9,47.6,34.5,47,34.5,46.3z M38,56.5c0.4,0,0.8,0,1.2,0c0.1,0,0.3,0.1,0.4,0.2
					c0.1,0,0.2,0.1,0.3,0.1c0-0.1,0.1-0.2,0.1-0.3c0-0.3-0.2-0.5-0.5-0.7c-0.6-0.4-1.5-0.4-2.1,0c-0.2,0.1-0.3,0.4-0.4,0.6
					c-0.1,0.2-0.1,0.5,0.2,0.6C37.3,56.7,37.6,56.5,38,56.5z M43.7,31.1c-0.5-0.8-1.4-1.1-2.4-0.9c-0.6,0.1-1.2,0.7-1.3,1.2
					c0.8-0.7,1.6-1,2.5-0.5c0.9,0.5,1.3,1.3,1.2,2.3C44.2,32.6,44.1,31.8,43.7,31.1z M35.4,37c0.4,0,0.8-0.4,0.8-0.8
					c0-0.4-0.5-0.8-0.9-0.8c-0.4,0-0.8,0.4-0.8,0.8C34.4,36.6,34.9,37,35.4,37z M55.1,49.2c-0.4-0.5-0.7-1-0.5-1.6
					c0.1-0.3,0.2-0.5,0.4-0.7c0.1-0.1,0.2-0.2,0.3-0.3c-0.3-0.1-0.6,0-0.9,0.3c-0.6,0.8-0.4,2.1,0.5,2.7c0.2,0.1,0.4,0.1,0.5,0.2
					c0,0,0.1-0.1,0.1-0.1C55.3,49.5,55.2,49.3,55.1,49.2z M43.8,57.9c0,0.1,0.1,0.2,0.1,0.4c0.1,0,0.2-0.1,0.3-0.1
					c0.1,0,0.1-0.1,0.2-0.2c0.2-0.4,0.6-0.5,1-0.5c0.1,0,0.3-0.1,0.4-0.2c-0.1-0.1-0.2-0.3-0.4-0.3c-0.1-0.1-0.3-0.1-0.4-0.1
					C44.4,56.8,43.9,57.3,43.8,57.9z M54.3,42.9c0,0.3,0.3,0.6,0.6,0.6c0.4,0,0.7-0.3,0.7-0.6c0-0.4-0.3-0.6-0.7-0.6
					C54.6,42.2,54.3,42.5,54.3,42.9z M48.1,51.4c0.1,0,0.2-0.1,0.3-0.2c0.1-0.2,0.3-0.4,0.4-0.5c0.2-0.2,0.1-0.4,0-0.5
					C48.6,50,48.3,50,48,50.1c-0.3,0.1-0.4,0.3-0.5,0.6C47.5,51,47.9,51.4,48.1,51.4z M46.1,29.1c0.3,0.6,0.8,0.8,1.2,0.6
					c-0.1-0.1-0.2-0.2-0.3-0.3c-0.7-0.4-1-1-0.8-1.8c0,0,0-0.1,0-0.2C45.8,27.8,45.8,28.5,46.1,29.1z M52.2,51.8
					c0.3,0,0.5-0.3,0.5-0.6c0-0.3-0.3-0.6-0.6-0.5c-0.3,0-0.5,0.3-0.5,0.6C51.7,51.5,51.9,51.8,52.2,51.8z M50,36.2
					c-0.7-0.3-1.1-0.9-0.7-1.7c0,0,0-0.1,0-0.1c-0.3,0-0.4,0.3-0.5,0.5c-0.1,0.5,0,1,0.5,1.4c0.3,0.2,0.5,0.4,1,0.2
					C50.2,36.3,50.1,36.2,50,36.2z M45.9,32.3c0.1,0.2,0.2,0.5,0.4,0.6c0.2,0.2,0.4,0.1,0.6-0.2c-0.8-0.4-0.7-1-0.4-1.7
					C46,31.3,45.8,31.8,45.9,32.3z M40.2,54.1c0,0.3,0.3,0.5,0.5,0.5c0.3,0,0.5-0.2,0.5-0.5c0-0.3-0.2-0.6-0.5-0.6
					C40.4,53.6,40.2,53.8,40.2,54.1z M49.3,33.3c0.2,0,0.5-0.2,0.5-0.4c0-0.2-0.2-0.5-0.5-0.4c-0.2,0-0.4,0.2-0.4,0.5
					C48.8,33.1,49,33.3,49.3,33.3z M35.2,43.2c0.2,0,0.4-0.2,0.4-0.5c0-0.3-0.2-0.5-0.5-0.5c-0.3,0-0.5,0.2-0.5,0.5
					C34.7,43,34.9,43.2,35.2,43.2z M41,58c-0.1,0.1,0,0.3,0,0.4c0,0.1,0.1,0.1,0.2,0.1c0.2-0.1,0.4-0.1,0.6-0.2c0,0,0-0.3-0.1-0.3
					c-0.1-0.1-0.2-0.1-0.4-0.2C41.2,57.8,41,57.9,41,58z M35.6,55.5c0.1,0,0.3-0.2,0.3-0.3c0-0.1-0.2-0.3-0.3-0.3
					c-0.1,0-0.3,0.1-0.4,0.2c0,0,0,0.1,0,0.1C35.4,55.3,35.5,55.5,35.6,55.5z"/>
			</g>
			<g>
				<path class="st0" d="M48.6,62.1c3.7,0.4,7.1-0.5,10.2-2.5c4.1-2.6,6.5-6.8,7.1-10.5c-0.3,0.6-0.5,1.1-0.8,1.7
					c-0.2,0.3-0.3,0.7-0.5,1c-0.1,0.2-0.3,0.3-0.5,0.2c-0.1,0-0.2,0-0.3,0c0,0,0,0.1,0,0.1c0.2,0,0.3,0.1,0.5,0.1
					c-1.7,2.8-3.9,5.1-6.7,6.8C54.9,60.7,51.9,61.7,48.6,62.1z"/>
			</g>
			<g>
				<path d="M54.1,53.9c-0.4-0.5-0.6-1-0.3-1.6c0.3-0.7,1-1.1,1.7-0.9c0.7,0.2,1.2,0.8,1.1,1.6c-0.1,0.7-0.6,1.3-1.4,1.2
					C54.8,54.2,54.5,54.1,54.1,53.9C54.1,54,54.1,54,54.1,53.9z M55.1,52.2c-0.4-0.3-0.5-0.3-0.8,0C54.6,52.2,54.8,52.2,55.1,52.2z"
					/>
			</g>
			<g>
				<path class="st0" d="M58.3,29c-2-2.5-6.1-3.4-8.9-2.6C52.5,26.8,55.5,27.6,58.3,29z"/>
			</g>
			<g>
				<path class="st0" d="M50.6,29.2c0.5-0.2,1-0.3,1.4,0c1,0.5,1.1,1.8,0.2,2.5c-0.1,0.1-0.2,0.1-0.3,0.2c0.6-0.1,1-0.4,1.2-0.9
					c0.2-0.6,0.1-1.1-0.2-1.6c-0.5-0.7-1.4-0.8-2.1-0.3C50.7,29,50.7,29.1,50.6,29.2C50.6,29.2,50.6,29.2,50.6,29.2z"/>
			</g>
			<g>
				<path class="st0" d="M58.7,45.4c0.6,0,1.1-0.5,1.1-1.2c0-0.7-0.5-1.3-1.2-1.2c0.5,0.3,0.8,0.7,0.8,1.2
					C59.4,44.7,59.1,45.1,58.7,45.4z"/>
			</g>
			<g>
				<path class="st0" d="M60.6,50.4c0.6,0.2,1.2-0.2,1.4-0.9c0.2-0.6-0.1-1.3-0.7-1.4c0.4,0.4,0.5,0.9,0.4,1.4
					C61.5,50,61.2,50.3,60.6,50.4z"/>
			</g>
			<g>
				<path class="st0" d="M63.2,34.3c1.3,0.3,1.5,1.5,0.9,2.2c0.3-0.1,0.5-0.3,0.6-0.6c0.2-0.6,0-1.1-0.4-1.5
					C63.9,34.2,63.6,34.1,63.2,34.3z"/>
			</g>
			<g>
				<path class="st0" d="M61.2,42.8c0.6-0.1,0.8-0.8,0.8-1.3c-0.1-0.7-0.6-1.1-1.2-1.1c0.2,0.1,0.4,0.3,0.6,0.4
					c-0.1,0.1-0.1,0.1-0.3,0.2c0.4-0.1,0.5,0.1,0.5,0.4C61.8,41.9,61.7,42.2,61.2,42.8z"/>
			</g>
			<g>
				<path class="st0" d="M63.9,44c0.8,0.5,0.9,1.6,0.1,2.2c0.4,0.1,0.9-0.4,0.9-0.9C65,44.5,64.6,44,63.9,44z"/>
			</g>
			<g>
				<path class="st0" d="M59,54.3c0,1-0.6,1.5-1.4,1.4c0.3,0.4,0.9,0.3,1.3-0.2C59.3,55.2,59.3,54.6,59,54.3z"/>
			</g>
			<g>
				<path class="st0" d="M61.2,32.2c0.3-0.4,0.2-1-0.3-1.3c-0.5-0.3-1.1-0.3-1.3,0.2c0.4-0.2,0.8-0.2,1.1,0
					C61.1,31.4,61.2,31.8,61.2,32.2z"/>
			</g>
			<g>
				<path class="st0" d="M54,58.2c0.3,0.5,0.9,0.5,1.3,0.2c0.5-0.3,0.6-0.8,0.3-1.2c0,0.4-0.1,0.8-0.5,1
					C54.9,58.4,54.5,58.4,54,58.2z"/>
			</g>
			<g>
				<path class="st0" d="M59.6,34.1c0.9,0.2,1.2,0.9,0.8,1.7c0.4-0.1,0.5-0.6,0.4-1C60.6,34.2,60.1,33.9,59.6,34.1z"/>
			</g>
			<g>
				<path class="st0" d="M49.2,60.3c-0.7,0.8-1.2,0.8-1.9,0.2c0,0-0.1,0-0.1,0.1c0.1,0.2,0.2,0.4,0.4,0.5c0.4,0.2,0.8,0.2,1.1,0
					C49.1,60.9,49.2,60.7,49.2,60.3z"/>
			</g>
			<g>
				<path class="st0" d="M63.3,38c0.9,0.4,0.8,1.2,0.4,1.7c0.4-0.1,0.6-0.5,0.5-1C64.1,38.2,63.7,37.9,63.3,38z"/>
			</g>
			<g>
				<path class="st0" d="M50.8,58c0.1,0.4,0.5,0.6,1,0.5c0.5-0.1,0.8-0.5,0.7-1c-0.2,0.4-0.4,0.6-0.7,0.7
					C51.4,58.3,51.1,58.2,50.8,58z"/>
			</g>
			<g>
				<path class="st0" d="M52.4,27.9c0,0.2,0,0.3,0.1,0.4c0.1,0.1,0.2,0.2,0.3,0.2c0.1,0,0.2-0.1,0.3-0.1c-0.1-0.1-0.1-0.2-0.2-0.3
					C52.8,28,52.6,27.9,52.4,27.9z"/>
			</g>
			<g>
				<path class="st0" d="M65.6,41.8c0.4,0,0.8,0,1-0.2C66.2,41.3,65.7,41.4,65.6,41.8z"/>
			</g>
			<g>
				<path class="st0" d="M57.9,40.2c0.3,0,0.6,0,1-0.1c-0.3-0.2-0.8-0.2-1,0C57.9,40.1,57.9,40.1,57.9,40.2z"/>
			</g>
			<g>
				<path class="st0" d="M44.6,61.4c0.3,0,0.6,0,1,0C45.3,61.1,44.8,61.1,44.6,61.4z"/>
			</g>
			<g>
				<path class="st0" d="M64.1,41.6c-0.4,0-0.6,0-1,0C63.4,41.9,63.8,41.9,64.1,41.6z"/>
			</g>
			<g>
				<path class="st0" d="M61.9,53.9c-0.4,0-0.7,0.1-1.1,0.1c0.4,0.1,0.8,0.2,1.1,0C61.9,53.9,61.9,53.9,61.9,53.9z"/>
			</g>
			<g>
				<path class="st0" d="M58.1,56.8c0.2,0.3,0.5,0.2,0.8-0.1C58.7,56.7,58.4,56.7,58.1,56.8z"/>
			</g>
			<g>
				<path class="st0" d="M61.4,51.9c-0.3,0-0.5,0-0.8,0C60.7,52.2,60.7,52.2,61.4,51.9z"/>
			</g>
			<g>
				<path class="st0" d="M55.8,32.5c0.1,0.3,0.4,0.3,0.8,0.1C56.3,32.6,56.1,32.5,55.8,32.5z"/>
			</g>
			<g>
				<path class="st0" d="M57,34.5c-0.2,0-0.5,0-0.7,0c0.2,0.2,0.5,0.2,0.7,0.1C57,34.6,57,34.5,57,34.5z"/>
			</g>
			<g>
				<path class="st0" d="M66.2,40.7c0.2,0,0.5,0.1,0.7,0.1c0,0,0-0.1,0-0.1c-0.2,0-0.5-0.1-0.7-0.1C66.2,40.6,66.2,40.7,66.2,40.7z"
					/>
			</g>
			<g>
				<path class="st0" d="M61,44c-0.2-0.3-0.4-0.3-0.5-0.2c0,0,0,0.1,0,0.1C60.6,44,60.8,44,61,44z"/>
			</g>
			<g>
				<path class="st0" d="M64.9,39.8c0.2,0.1,0.4,0.1,0.6,0c0,0,0-0.1,0-0.1C65.2,39.6,65,39.6,64.9,39.8
					C64.9,39.7,64.9,39.7,64.9,39.8z"/>
			</g>
			<g>
				<path d="M39.9,33.1c0,0.9,0.8,1.7,1.7,1.7c0.9,0,1.7-0.8,1.7-1.7c0-1-0.7-1.8-1.7-1.8C40.6,31.3,39.9,32,39.9,33.1z"/>
			</g>
			<g>
				<path d="M33.2,47.5c0.7,0,1.3-0.6,1.3-1.2c0-0.7-0.6-1.3-1.3-1.3c-0.7,0-1.2,0.5-1.3,1.2C31.9,46.9,32.6,47.7,33.2,47.5z"/>
			</g>
			<g>
				<path d="M37.1,57.1c0.2-0.4,0.5-0.6,0.9-0.6c0.4,0,0.8,0,1.2,0c0.1,0,0.3,0.1,0.4,0.2c0.1,0,0.2,0.1,0.3,0.1
					c0-0.1,0.1-0.2,0.1-0.3c0-0.3-0.2-0.5-0.5-0.7c-0.6-0.4-1.5-0.4-2.1,0c-0.2,0.1-0.3,0.4-0.4,0.6C36.8,56.7,36.8,56.9,37.1,57.1z
					"/>
			</g>
			<g>
				<path d="M43.8,33.2c0.4-0.6,0.4-1.4-0.1-2.1c-0.5-0.8-1.4-1.1-2.4-0.9c-0.6,0.1-1.2,0.7-1.3,1.2c0.8-0.7,1.6-1,2.5-0.5
					C43.5,31.3,43.8,32.1,43.8,33.2z"/>
			</g>
			<g>
				<path d="M34.4,36.2c0,0.4,0.5,0.8,0.9,0.8c0.4,0,0.8-0.4,0.8-0.8c0-0.4-0.5-0.8-0.9-0.8C34.8,35.4,34.4,35.8,34.4,36.2z"/>
			</g>
			<g>
				<path d="M55.5,49.6c-0.1-0.2-0.2-0.3-0.3-0.5c-0.4-0.5-0.7-1-0.5-1.6c0.1-0.3,0.2-0.5,0.4-0.7c0.1-0.1,0.2-0.2,0.3-0.3
					c-0.3-0.1-0.6,0-0.9,0.3c-0.6,0.8-0.4,2.1,0.5,2.7c0.2,0.1,0.4,0.1,0.5,0.2C55.4,49.7,55.4,49.7,55.5,49.6z"/>
			</g>
			<g>
				<path d="M45.1,56.8c-0.7,0-1.2,0.5-1.3,1.1c0,0.1,0.1,0.2,0.1,0.4c0.1,0,0.2-0.1,0.3-0.1c0.1,0,0.1-0.1,0.2-0.2
					c0.2-0.4,0.6-0.5,1-0.5c0.1,0,0.3-0.1,0.4-0.2c-0.1-0.1-0.2-0.3-0.4-0.3C45.3,56.8,45.2,56.8,45.1,56.8z"/>
			</g>
			<g>
				<path d="M55,42.2c-0.4,0-0.7,0.3-0.7,0.7c0,0.3,0.3,0.6,0.6,0.6c0.4,0,0.7-0.3,0.7-0.6C55.6,42.5,55.3,42.2,55,42.2z"/>
			</g>
			<g>
				<path d="M47.5,50.8c0,0.3,0.3,0.7,0.6,0.7c0.1,0,0.2-0.1,0.3-0.2c0.1-0.2,0.3-0.4,0.4-0.5c0.2-0.2,0.1-0.4,0-0.5
					C48.6,50,48.3,50,48,50.1C47.7,50.3,47.6,50.5,47.5,50.8z"/>
			</g>
			<g>
				<path d="M46.2,27.5c-0.4,0.3-0.5,1-0.1,1.6c0.3,0.6,0.8,0.8,1.2,0.6c-0.1-0.1-0.2-0.2-0.3-0.3c-0.7-0.4-1-1-0.8-1.8
					C46.3,27.6,46.2,27.6,46.2,27.5z"/>
			</g>
			<g>
				<path d="M51.7,51.2c0,0.4,0.2,0.6,0.6,0.6c0.3,0,0.5-0.3,0.5-0.6c0-0.3-0.3-0.6-0.6-0.5C51.9,50.6,51.7,50.9,51.7,51.2z"/>
			</g>
			<g>
				<path d="M50.3,36.4c-0.2-0.1-0.2-0.2-0.3-0.3c-0.7-0.3-1.1-0.9-0.7-1.7c0,0,0-0.1,0-0.1c-0.3,0-0.4,0.3-0.5,0.5
					c-0.1,0.5,0,1,0.5,1.4C49.6,36.4,49.9,36.6,50.3,36.4z"/>
			</g>
			<g>
				<path d="M46.5,31.1c-0.5,0.2-0.7,0.7-0.6,1.2c0.1,0.2,0.2,0.5,0.4,0.6c0.2,0.2,0.4,0.1,0.6-0.2C46.1,32.5,46.2,31.8,46.5,31.1z"
					/>
			</g>
			<g>
				<path d="M40.7,53.6c-0.3,0-0.5,0.3-0.5,0.5c0,0.3,0.3,0.5,0.5,0.5c0.3,0,0.5-0.2,0.5-0.5C41.2,53.8,40.9,53.6,40.7,53.6z"/>
			</g>
			<g>
				<path d="M48.8,32.8c0,0.3,0.2,0.4,0.5,0.4c0.2,0,0.5-0.2,0.5-0.4c0-0.2-0.2-0.5-0.5-0.4C49,32.4,48.8,32.6,48.8,32.8z"/>
			</g>
			<g>
				<path d="M34.7,42.7c0,0.3,0.3,0.5,0.5,0.4c0.2,0,0.4-0.2,0.4-0.5c0-0.3-0.2-0.5-0.5-0.5C34.9,42.3,34.7,42.5,34.7,42.7z"/>
			</g>
			<g>
				<path d="M41.3,57.7C41.2,57.8,41,57.9,41,58c-0.1,0.1,0,0.3,0,0.4c0,0.1,0.1,0.1,0.2,0.1c0.2-0.1,0.4-0.1,0.6-0.2
					c0,0,0-0.3-0.1-0.3C41.6,57.9,41.5,57.8,41.3,57.7z"/>
			</g>
			<g>
				<path d="M35.3,55.2c0.1,0.1,0.2,0.3,0.4,0.3c0.1,0,0.3-0.2,0.3-0.3c0-0.1-0.2-0.3-0.3-0.3c-0.1,0-0.3,0.1-0.4,0.2
					C35.3,55.1,35.3,55.2,35.3,55.2z"/>
			</g>
			<g>
				<path class="st0" d="M54.3,52.2c0.3,0,0.5,0,0.8,0C54.7,51.9,54.6,51.9,54.3,52.2z"/>
			</g>
		</g>
		<g>
			<g>
				<path d="M25.6,25.7c1.3,0.4,2.3,0.6,3.2,1c1.5,0.5,2.6,0.2,3.8-0.9c3.1-3.1,6.6-5.7,10.8-6.8c4.9-1.3,9.4-0.5,13.3,3
					c0.8,0.7,1.6,1.5,2.5,2.1c0.5,0.4,1.1,0.7,1.7,0.9c0.9,0.3,1.3-0.1,1.3-1.1c-0.1-1.8-0.5-3.5-1.5-5c-1.8-2.8-0.4-8.1,2.2-9.9
					c2.3-1.6,5.9-0.9,7.9,1.5c0.5,0.6,1,1.3,1.2,2c0.7,2.1,2.3,3.2,4.2,4.1c0.8,0.4,1.6,0.8,2.3,1.3c0.2,0.1,0.2,0.6,0.3,0.9
					c-0.3,0.1-0.6,0.3-0.8,0.2c-1.1-0.3-2.1-0.6-3.2-0.9c-1.8-0.6-3.6-1.1-5.6-0.6c-1.7,0.4-2.2,1.2-2.1,2.9c0.1,1.8,0.6,3.5,1.7,5
					c0.8,1.2,1,2.6,0.7,4.1c-0.4,2.2-1.3,4.1-2.6,5.9c-0.5,0.7-1.3,1.1-2.2,1c-0.4,0-0.9,0-1.3-0.1c-2.7-0.6-5.3-0.5-8,0.1
					c-4.1,0.8-8.2,0.8-12.3,0.6c-2.1-0.1-4.2-0.1-6.2-0.4c-4.2-0.4-6.8-3.1-9-6.3c-0.6-0.8-1.2-1.7-1.6-2.6
					C25.9,27.3,25.9,26.6,25.6,25.7z"/>
				<path class="st0" d="M47.2,37.4c-1.3,0-2.7,0-4.1-0.1c-2.1-0.1-4.2-0.1-6.2-0.4c-4.5-0.5-7.2-3.5-9.2-6.4
					c-0.6-0.8-1.2-1.7-1.6-2.6c-0.2-0.4-0.3-0.9-0.4-1.4c-0.1-0.3-0.1-0.5-0.2-0.8l-0.1-0.4l0.4,0.1c0.4,0.1,0.8,0.2,1.2,0.3
					c0.8,0.2,1.4,0.4,2,0.6c1.4,0.5,2.4,0.2,3.5-0.8c3.7-3.7,7.2-5.9,11-6.9c5.2-1.4,9.8-0.3,13.5,3.1c0.8,0.7,1.6,1.5,2.5,2.1
					c0.5,0.4,1,0.7,1.6,0.8c0.3,0.1,0.6,0.1,0.8,0c0.2-0.1,0.2-0.4,0.2-0.8c-0.1-1.9-0.6-3.5-1.4-4.9c-1.9-3-0.3-8.4,2.3-10.2
					c2.4-1.7,6.2-1,8.2,1.5c0.5,0.6,1,1.3,1.3,2.1c0.6,1.7,1.8,2.9,4,4c0.7,0.3,1.5,0.8,2.3,1.3c0.2,0.2,0.3,0.5,0.3,0.7
					c0,0.1,0,0.2,0.1,0.3l0.1,0.2l-0.3,0.1c-0.1,0-0.2,0.1-0.2,0.1c-0.2,0.1-0.5,0.2-0.7,0.1c-1.2-0.3-2.3-0.6-3.2-0.9
					c-1.6-0.5-3.5-1.1-5.4-0.6c-1.5,0.4-2,1-1.9,2.7c0.1,1.9,0.7,3.5,1.6,4.9c0.8,1.2,1.1,2.7,0.8,4.3c-0.5,2.2-1.4,4.2-2.7,6
					c-0.6,0.9-1.5,1.2-2.4,1.1c-0.2,0-0.3,0-0.5,0c-0.3,0-0.5,0-0.8-0.1c-2.5-0.5-5-0.5-7.9,0.1C52.8,37.3,50,37.4,47.2,37.4z
					 M26,26.1c0,0.1,0.1,0.3,0.1,0.4c0.1,0.5,0.2,0.9,0.4,1.3c0.5,0.9,1,1.7,1.6,2.5c2,2.8,4.5,5.8,8.9,6.2c2,0.2,4,0.3,6.2,0.4
					c4.4,0.1,8.3,0.2,12.3-0.6c2.9-0.6,5.5-0.6,8.1-0.1c0.2,0,0.5,0.1,0.7,0.1c0.2,0,0.4,0,0.6,0c0.8,0.1,1.4-0.2,2-0.9
					c1.3-1.7,2.1-3.6,2.6-5.8c0.3-1.5,0.1-2.8-0.7-3.9c-1-1.5-1.6-3.2-1.7-5.2c-0.1-1.9,0.5-2.7,2.3-3.2c2.1-0.5,4,0.1,5.7,0.6
					c0.9,0.3,2,0.6,3.2,0.9c0.1,0,0.3,0,0.4-0.1c0,0,0,0,0.1,0c0,0,0-0.1,0-0.1c0-0.2-0.1-0.4-0.1-0.4c-0.8-0.5-1.5-1-2.2-1.3
					c-1.6-0.7-3.5-1.9-4.3-4.2c-0.2-0.7-0.7-1.4-1.2-1.9c-1.8-2.3-5.4-3-7.5-1.4c-2.4,1.7-3.9,6.8-2.2,9.6c0.9,1.4,1.4,3.1,1.5,5.1
					c0,0.6-0.1,1-0.4,1.3c-0.3,0.2-0.7,0.2-1.2,0.1c-0.6-0.2-1.2-0.5-1.7-0.9c-0.9-0.7-1.7-1.4-2.5-2.2c-3.6-3.3-8-4.3-13-3
					c-3.7,1-7.1,3.1-10.7,6.7c-1.2,1.2-2.5,1.5-4,0.9c-0.6-0.2-1.3-0.4-2-0.6C26.5,26.2,26.3,26.2,26,26.1z"/>
			</g>
		</g>
		<g>
			<g>
				<path d="M90.9,64c-0.3,0-0.5,0-0.8,0c-0.7-0.1-1.4-0.2-2.2-0.3c-0.6-0.1-1.2-0.2-1.7-0.4c-1.4-0.5-2.6-1.4-3.7-2.3
					c-0.5-0.4-1-0.6-1.6-0.6c-0.4,0-0.9-0.1-1.3-0.3c-0.9-0.5-1.7-1-2.6-1.5c-0.9-0.6-1.9-1.3-2.8-1.9c-0.1-0.1-0.3-0.2-0.4-0.2
					c-0.6,0-1.1,0-1.7,0c-0.2,0-0.4,0-0.5-0.2c-0.5-0.7-1.1-1.4-1.6-2c-0.7-0.9-1.4-1.8-2.3-2.5c-0.4-0.3-0.8-0.4-1.3-0.2
					c-0.1,0.1-0.3,0.1-0.5,0.2c-1.4,0.7-2.9,1.5-4.3,2.2c-1.3,0.7-2.6,1.5-3.9,2.2c-0.7,0.4-1.5,0.8-2.2,1.3
					c-0.6-0.9-1.2-1.7-1.7-2.5c-0.5,0.3-0.9,0.6-1.3,1c-0.6,0.5-1.3,0.7-2,0.9c-0.2,0-0.3,0-0.4-0.2c-0.3-0.5-0.7-0.9-1-1.4
					c-0.5-0.6-1-1.3-1.8-1.7c-0.4-0.2-0.7-0.3-1,0.1c-0.6,0.6-1.1,1.2-1.6,1.8c-0.3,0.4-0.6,0.7-1.1,0.9c-0.9,0.4-1.8,0.6-2.8,0.5
					c-0.3,0-0.6-0.1-0.9-0.4c-0.4-0.5-0.9-1-1.5-1.3c-0.4-0.2-0.8-0.2-1.2,0c-1,0.6-2,1.1-3.1,1.7c-0.7-0.6-1.4-1.2-2.1-1.9
					c-0.5-0.4-0.9-0.3-1.4,0c-0.2,0.1-0.5,0.3-0.7,0.5c-0.1,0.1-0.2,0.1-0.3-0.1c-0.6-0.9-1.2-1.8-1.8-2.6c-0.5-0.7-0.9-1.5-1.4-2.1
					c-0.5-0.7-1.2-0.8-1.8-0.2c-0.7,0.6-1.4,1.4-2.1,2c-0.3,0.3-0.6,0.8-1,1c-2,1.4-4,2.9-5.7,4.7c-0.8,0.9-1.7,1.8-2.8,2.5
					c-0.3,0.2-0.7,0.4-1.1,0.6c-0.2,0.1-0.4,0.1-0.6,0.2c-0.6,0.5-1.2,1-1.8,1.4c-0.2,0.2-0.4,0.4-0.7,0.5C8.3,63.8,7.6,64,6.9,64
					c-1.1-0.1-2.2,0-3.3,0c0,0.1,0,0.2,0,0.2c0.7,0.2,1.5,0.5,2.2,0.7c1.3,0.4,2.7,0.7,4.1,0.6c0.9-0.1,1.8-0.1,2.6-0.1
					c0.4,0,0.8,0.1,1.3,0.1c0.4,0.1,0.8,0.2,1.2,0.2c1.4,0.1,2.9,0.2,4.3,0.2c2.5,0.1,5,0.1,7.6,0.2c1.6,0.1,3.2,0.1,4.8,0.3
					c1.5,0.1,2.9,0.2,4.4,0.3c1.3,0,2.6,0.1,4,0.1c0.4,0,0.8,0,1.1,0.1c0.1-0.4,0.3-0.6,0.7-0.8c0.3-0.1,0.5-0.2,0.8-0.2
					c0.8-0.1,1.5-0.1,2.3-0.2c0.4,0,0.8-0.1,1-0.5c0.1-0.2,0.3-0.3,0.5-0.3c0.3,0,0.6-0.1,0.8-0.1c0.9,0,1.9,0,2.8,0
					c3.3,0,6.6,0,9.9,0.2c1.1,0.1,2.2,0.2,3.3,0.5c1.5,0.5,3,0.8,4.5,0.8c1.5,0,2.9-0.2,4.3-0.8c1.2-0.6,2.4-0.9,3.7-0.8
					c1.5,0.1,3,0.3,4.5,0.4c1.5,0.1,2.9,0.2,4.4,0.3c2.8,0.1,5.6-0.4,8.3-0.8c0.5-0.1,1.1-0.2,1.7-0.2V64C93.3,64,92.1,64,90.9,64z
					 M21.4,53.7c0.7-0.4,1.1-1.1,1.6-1.6c0.6-0.5,1.1-1.1,1.7-1.6c0.5-0.4,0.9-0.4,1.3-0.1c0.1,0.1,0.1,0.2,0.1,0.2
					c-0.1,0.7-0.2,1.4-0.3,2.1c-0.2,0.9-0.8,1.5-1.6,2c-0.4,0.3-0.9,0.5-1.3,0.8c-0.3,0.2-0.5,0.5-0.6,0.9c0,0.2-0.2,0.3-0.3,0.5
					c-0.4,0.5-1,1-1.6,1.3c-0.2,0.1-0.4,0.1-0.6,0c-0.5-0.2-1.1-0.3-1.7-0.1c-0.1,0-0.3,0.1-0.4,0.2c-0.4,0.4-0.9,0.5-1.4,0.6
					c-0.5,0.2-1,0.3-1.5,0.5C16.8,57.2,18.9,55.2,21.4,53.7z M26.9,58.2c-0.4,0-0.7,0.2-1,0.4c-0.1,0.1-0.3,0.1-0.4,0.1
					c-0.6-0.1-1.2-0.2-1.7-0.1c-0.2,0-0.4,0.1-0.5,0.3c-0.8,0.8-1.5,1.8-2.2,2.8c0,0,0,0,0,0.1c0.5-0.2,0.9-0.5,1.4-0.7
					c0.4-0.2,0.8-0.3,1.1-0.4c0.2-0.1,0.5-0.1,0.6,0.1c0.1,0.2-0.1,0.4-0.3,0.5c-0.2,0.1-0.3,0.2-0.5,0.3c-0.2,0.2-0.2,0.4-0.1,0.6
					c0.2,0.2,0.4,0.4,0.8,0.4c0.5,0,1,0,1.6,0c-0.6,0.8-1.3,1.4-2.3,1.4c-1.2,0-2.4,0.4-3.5,0.9c-0.5,0.2-0.9,0.2-1.4,0.1
					c-0.5-0.1-0.6-0.5-0.5-1.1c0.2-0.7,0.5-1.3,0.9-1.8c0.7-0.7,1.3-1.5,1.9-2.3c-0.1,0.1-0.3,0.1-0.4,0.2c-1.4,0.8-2.8,1.5-4.2,2.3
					c-0.2,0.1-0.5,0.1-0.7,0.2c-0.5,0-1,0-1.5,0.1c-0.1,0-0.2,0-0.3,0.1c-0.9,0.4-1.8,0.5-2.8,0.7c-0.1,0-0.2,0-0.3,0.1
					c-0.3,0.1-0.5,0-0.7-0.3c0.4-0.4,0.8-0.7,1.3-1.1c0.4-0.3,0.8-0.6,1.3-0.6c0.3,0,0.6-0.3,0.8-0.4c0.7-0.3,1.4-0.6,2.1-0.9
					c0.3-0.1,0.6-0.1,0.8-0.2c0.4-0.2,0.9-0.3,1.3-0.5c0.6-0.3,1.2-0.6,1.8-0.5c1,0.1,1.7-0.4,2.4-0.8c0.6-0.4,1-0.9,1.4-1.5
					c0.1-0.2,0.3-0.4,0.4-0.5c0.2-0.3,0.5-0.4,0.8-0.5c0.6,0,1-0.3,1.4-0.8c0.3-0.4,0.7-0.4,0.9,0c0.2,0.4,0.4,0.8,0.5,1.2
					c0.1,0.5,0.1,1,0.4,1.5c0.1,0.2,0.3,0.3,0.4,0.5C27.5,58.1,27.2,58.1,26.9,58.2z M52.3,56.7c0.1,0,0.2-0.1,0.3-0.2
					c0.3-0.3,0.7-0.5,1.3-0.6c0.1,0.2,0.3,0.4,0.4,0.6c0.2,0.3,0.3,0.6,0.1,0.9c-0.1,0.3-0.3,0.6-0.5,0.9c-0.1,0.2-0.3,0.3-0.5,0.1
					c-0.2-0.2-0.5-0.4-0.7-0.5c-0.2-0.1-0.4-0.1-0.7-0.1c-0.4,0-0.8-0.1-1.2-0.5C51.4,57.2,51.7,56.7,52.3,56.7z M48.2,57
					c0.3-0.4,0.4-0.8,0.4-1.3c0.1,0.1,0.2,0.3,0.3,0.4c0.3,0.5,0.6,0.9,0.9,1.4c0.1,0.1,0.1,0.3,0,0.4c-0.1,0.4-0.2,0.7-0.3,1
					c-0.1,0.5-0.5,0.8-1,1.1c-0.2,0.1-0.4,0.2-0.7,0.3c-0.1,0.1-0.3,0.1-0.5,0.1c-0.9,0.1-1.7,0.2-2.5,0.5c0.8-0.8,1.6-1.5,2.4-2.4
					c0.2-0.2,0.2-0.4,0.3-0.7c0-0.1,0.1-0.3,0.2-0.4C47.9,57.4,48.1,57.2,48.2,57z M44.4,65.2c-0.4,0-0.9,0-1.3,0
					c-0.8,0-1.5,0.3-2.2,0.6c-0.3,0.1-0.5,0.2-0.8,0.2c-1.3,0.1-2.6-0.1-3.9-0.3c-1.3-0.2-2.5-0.4-3.8-0.5c-0.8,0-1.7-0.2-2.5-0.3
					c-0.4-0.1-0.9-0.1-1.3-0.2c0.3-0.3,0.5-0.7,0.8-1c0.2-0.3,0.5-0.5,0.9-0.4c0.5,0.1,1-0.2,1.4-0.5c0.3-0.2,0.5-0.4,0.8-0.6
					c0.5-0.3,0.9-0.7,1.4-1c0.3-0.2,0.7-0.5,1-0.7c0.1-0.1,0.2-0.1,0.4,0c0.8,0.4,1.1,1.1,1.2,1.9c0.1,0.5,0.1,1,0.2,1.5
					c0.2-0.3,0.5-0.6,0.7-1c0.2-0.3,0.5-0.5,0.9-0.4c0.1,0,0.2,0,0.3,0c0.5,0,0.6,0.2,0.7,0.6c0.1,0.3,0.3,0.6,0.5,1
					c0,0,0.1,0,0.2,0c0.1,0,0.1,0,0.2,0c0.4-0.1,0.5,0,0.6,0.4c0.1,0.2,0.2,0.5,0.3,0.7c0.1-0.3,0.2-0.5,0.3-0.7
					c0.1-0.2,0.3-0.3,0.5-0.2c0.2,0.1,0.4,0.1,0.5,0.2c0.5,0.4,1,0.4,1.6,0.3c0.5-0.1,1,0.1,1.5,0.3C45.1,65.1,44.8,65.2,44.4,65.2z
					 M85.5,65.2c-0.6-0.1-1.1-0.2-1.7-0.3c-0.3-0.1-0.7-0.1-1-0.2c-0.4-0.1-0.7-0.2-1-0.4c-0.7-0.3-1.4-0.4-2.1-0.3
					c-0.5,0.1-1,0.2-1.5,0.2c-0.9,0-1.9-0.1-2.8-0.2c-0.2,0-0.3-0.2-0.5-0.2c-0.4,0-0.7,0-1.1,0c-0.1,0-0.3,0-0.4,0c0,0,0-0.1,0-0.1
					c0.1-0.1,0.2-0.2,0.3-0.3c0.2-0.1,0.5-0.2,0.7-0.3c0.3-0.2,0.5-0.4,0.7-0.6c0.3-0.2,0.6-0.4,0.9-0.6c-0.1,0-0.1,0-0.2,0
					c-0.1,0-0.2,0.1-0.3,0.1c-1.1,0.3-2.1,0.8-2.9,1.6c-0.9,0.8-2,1.2-3.2,1.4c-0.7,0.1-1.4,0.2-2.2,0.3c-0.6,0-1.1-0.1-1.7-0.2
					c-0.9-0.1-1.8-0.2-2.7-0.3c-0.5,0-0.9-0.2-1.1-0.7c-0.1-0.3-0.1-0.5,0.2-0.6c0.3-0.2,0.7-0.3,1-0.5c0.3-0.1,0.4-0.4,0.5-0.7
					c-0.4,0.1-0.9,0.2-1.3,0.3c-0.3,0-0.5,0.1-0.8,0.1c-1,0-2,0.2-2.9,0.7c-0.7,0.4-1.5,0.4-2.3,0.6c-1.9,0.4-3.9,0.2-5.8,0.2
					c-1.1,0-2.2,0.2-3.2,0.5c-0.2,0-0.4,0.1-0.6,0.1c-0.2,0-0.4,0.1-0.5,0.2c-0.1,0.1-0.2,0.1-0.4,0c-0.1-0.2-0.4-0.2-0.5-0.5
					c0,0-0.2-0.1-0.4-0.1c-0.4,0-0.8,0-1.3,0c-0.2,0-0.5,0-0.7-0.1c-1.2-0.6-2.5-1.3-3.7-2c-0.4-0.2-0.7-0.4-1.1-0.7
					c-0.2-0.2-0.5-0.4-0.7-0.5c-1.2-0.6-2.5-1.2-3.7-1.8C33,58.9,32.5,58.4,32,58c-0.1-0.1-0.1-0.2-0.2-0.3
					c-0.1-0.2-0.2-0.5-0.3-0.7c-0.3-0.4-0.7-0.8-1.1-1.1c0.2-0.2,0.4-0.4,0.7-0.6c0.1-0.1,0.2-0.1,0.3,0c0.4,0.2,0.8,0.5,1.1,0.7
					c0.1,0.1,0.2,0.2,0.2,0.3c0.2,0.5,0.5,0.6,1,0.7c0.5,0.1,0.6,0.3,0.3,0.8c-0.1,0.1-0.2,0.3-0.3,0.4c-0.1,0.1-0.2,0.2-0.2,0.4
					c0.2-0.2,0.5-0.3,0.7-0.5c0.4-0.3,0.8-0.6,1.2-1c0.1,0,0.1-0.1,0.1-0.2c0.1-0.3,0.3-0.4,0.6-0.4c0.6-0.1,1.1-0.2,1.7-0.1
					c0.2,0.1,0.4,0.2,0.4,0.4c0,0.1,0,0.2-0.1,0.2c-0.1,0.1-0.2,0.3-0.3,0.4c-0.1,0.2-0.2,0.4-0.3,0.6c-0.3,0.4-0.4,0.8-0.4,1.4
					c0.4-0.3,0.7-0.7,1.1-0.8c0.4-0.2,0.9-0.4,1.4-0.2c0.4,0.2,0.9,0.2,1.2,0.4c0.7-0.4,1.4-0.8,2.1-1.2c0.2-0.1,0.4-0.3,0.6-0.5
					c0.1-0.1,0.2-0.3,0.4-0.4c0.7-0.6,1.2-1.4,1.8-2.1c0.3-0.3,0.6-0.6,0.9-0.9c0,0,0.1,0,0.1,0c0.1,0.3,0.3,0.7,0.4,1
					c0,0,0,0.1,0,0.2c-0.2,0.2-0.1,0.4,0,0.5c0.3,0.5,0.5,1,0.3,1.6c-0.1,0.2-0.1,0.4-0.2,0.6c-0.3,0.8-0.8,1.5-1.5,2.1
					c-0.4,0.3-0.7,0.7-1,1.2c-0.2,0.3-0.4,0.5-0.7,0.6c-0.2,0-0.3,0.1-0.4,0.2c0.3-0.1,0.6-0.2,0.8-0.3c0.9-0.4,1.9-0.6,2.8-0.6
					c1.3,0,2.5-0.4,3.7-0.9c0.5-0.2,1.1-0.3,1.7-0.5c0.4-0.1,0.8-0.3,1.3-0.5c0.3-0.1,0.6-0.2,0.9-0.3c1-0.3,1.8-0.9,2.5-1.7
					c0.3-0.4,0.7-0.6,1.1-0.7c0.2,0,0.4-0.1,0.6-0.2c0.4-0.2,0.4-0.1,0.6,0.2c0,0.1,0.1,0.1,0.1,0.2c0.1-0.1,0.2-0.2,0.3-0.2
					c0.7-0.8,1.6-1.3,2.5-1.7c0.3-0.2,0.7-0.3,1.1-0.4c0.2-0.1,0.4-0.2,0.5-0.4c0.5-0.8,1.4-1.1,2.3-1.3c0.2,0.5,0.2,1,0,1.5
					c-0.4,0.9-0.7,1.8-1.5,2.5c-0.6,0.5-1.1,1-1.9,1.2c-0.1,0-0.2,0.1-0.2,0.2c-0.4,0.5-0.8,1-1.2,1.6c0.6-0.2,1-1,1.7-1.2
					c-0.1,0.2-0.1,0.3-0.1,0.4c0,0,0,0,0.1,0.1c0.3-0.3,0.6-0.5,1-0.8c0.4-0.3,0.7-0.6,1.1-1c0.2-0.2,0.3-0.4,0.4-0.6
					c0.4-0.8,1-1.5,1.6-2.2c0.1-0.1,0.2-0.1,0.3-0.2c0,0.4,0,0.8,0,1.2c0,0.5,0,0.9,0.1,1.4c0.1,0.4,0.3,0.6,0.8,0.5
					c0.3-0.1,0.6-0.2,0.9-0.3c0.1,0,0.2-0.1,0.3,0c1,0.3,1.8,0.9,2.3,1.8c0.3,0.5,0.1,0.8-0.4,0.9c-0.4,0.1-0.8,0.2-1.2,0.2
					c-0.8,0.1-1.5,0-2.3,0.2c-1.2,0.4-2.3,1-3.4,1.7c0.6,0.1,1.1,0.3,1.7,0.4c0.4,0.1,0.6,0.4,0.7,0.8c0.1,0.4,0.3,0.7,0.5,1
					c0,0.1,0.1,0.2,0.2,0.1c1-0.2,2.1-0.3,3.1-0.5c0.2,0,0.5-0.2,0.7-0.4c0.5-0.5,1-0.8,1.7-1.1c0.9-0.4,1.9-0.8,2.9-0.9
					c0.6-0.1,1.2,0.1,1.6,0.5c0.3,0.3,0.3,0.3,0.6,0c0.3-0.3,0.5-0.2,0.8-0.1c0.5,0.2,1,0.6,1.4,1c0.6,0.8,1.3,1.1,2.2,1.4
					c0.6,0.2,1.3,0.3,1.8,0.8C84.9,64.5,85.2,64.8,85.5,65.2C85.5,65.1,85.5,65.1,85.5,65.2z"/>
			</g>
			<g>
				<path class="st0" d="M82.8,63.5c-0.8-0.3-1.6-0.6-2.2-1.4c-0.3-0.5-0.8-0.8-1.4-1c-0.3-0.1-0.6-0.1-0.8,0.1
					c-0.3,0.3-0.3,0.3-0.6,0c-0.4-0.5-1-0.6-1.6-0.5c-1,0.1-2,0.5-2.9,0.9c-0.6,0.3-1.2,0.6-1.7,1.1c-0.2,0.2-0.4,0.3-0.7,0.4
					c-1,0.2-2.1,0.4-3.1,0.5c-0.1,0-0.2-0.1-0.2-0.1c-0.2-0.3-0.4-0.7-0.5-1c-0.1-0.4-0.4-0.7-0.7-0.8c-0.6-0.2-1.1-0.3-1.7-0.4
					c1.1-0.7,2.2-1.3,3.4-1.7c0.7-0.2,1.5-0.2,2.3-0.2c0.4,0,0.8-0.1,1.2-0.2c0.5-0.1,0.6-0.5,0.4-0.9c-0.5-0.9-1.3-1.5-2.3-1.8
					c-0.1,0-0.2,0-0.3,0c-0.3,0.1-0.6,0.2-0.9,0.3c-0.4,0.1-0.7,0-0.8-0.5c-0.1-0.5-0.1-0.9-0.1-1.4c0-0.4,0-0.7,0-1.2
					c-0.1,0.1-0.3,0.2-0.3,0.2c-0.7,0.6-1.3,1.3-1.6,2.2c-0.1,0.2-0.2,0.4-0.4,0.6c-0.3,0.3-0.7,0.7-1.1,1c-0.3,0.3-0.6,0.5-1,0.8
					c0,0,0,0-0.1-0.1c0-0.1,0.1-0.2,0.1-0.4c-0.7,0.3-1.1,1-1.7,1.2c0.4-0.5,0.8-1,1.2-1.6c0.1-0.1,0.1-0.2,0.2-0.2
					c0.7-0.2,1.3-0.7,1.9-1.2c0.8-0.7,1.1-1.6,1.5-2.5c0.2-0.5,0.2-1,0-1.5c-0.9,0.2-1.7,0.5-2.3,1.3c-0.1,0.2-0.3,0.3-0.5,0.4
					c-0.3,0.2-0.7,0.3-1.1,0.4c-0.9,0.5-1.8,0.9-2.5,1.7c-0.1,0.1-0.2,0.2-0.3,0.2c0-0.1-0.1-0.1-0.1-0.2c-0.2-0.4-0.2-0.4-0.6-0.2
					c-0.2,0.1-0.4,0.2-0.6,0.2c-0.5,0.1-0.8,0.4-1.1,0.7c-0.7,0.8-1.5,1.4-2.5,1.7c-0.3,0.1-0.6,0.2-0.9,0.3
					c-0.4,0.2-0.8,0.3-1.3,0.5c-0.6,0.2-1.1,0.3-1.7,0.5c-1.2,0.5-2.4,0.8-3.7,0.9c-1,0-1.9,0.2-2.8,0.6c-0.3,0.1-0.5,0.2-0.8,0.3
					c0.1-0.1,0.3-0.2,0.4-0.2c0.3-0.1,0.6-0.3,0.7-0.6c0.2-0.5,0.6-0.9,1-1.2c0.7-0.5,1.1-1.3,1.5-2.1c0.1-0.2,0.2-0.4,0.2-0.6
					c0.2-0.6,0-1.1-0.3-1.6c-0.1-0.2-0.2-0.3,0-0.5c0,0,0-0.1,0-0.2c-0.1-0.3-0.3-0.7-0.4-1c0,0-0.1,0-0.1,0
					c-0.3,0.3-0.6,0.6-0.9,0.9c-0.6,0.7-1,1.5-1.8,2.1c-0.1,0.1-0.2,0.3-0.4,0.4c-0.2,0.2-0.3,0.4-0.6,0.5c-0.7,0.4-1.4,0.8-2.1,1.2
					c-0.4-0.2-0.8-0.3-1.2-0.4c-0.5-0.2-1,0-1.4,0.2c-0.4,0.2-0.7,0.5-1.1,0.8c0-0.5,0.1-1,0.4-1.4c0.1-0.2,0.2-0.4,0.3-0.6
					c0.1-0.1,0.2-0.3,0.3-0.4c0-0.1,0.1-0.1,0.1-0.2c0-0.3-0.2-0.4-0.4-0.4c-0.6-0.1-1.1,0-1.7,0.1c-0.3,0-0.5,0.1-0.6,0.4
					c0,0.1-0.1,0.1-0.1,0.2c-0.4,0.3-0.8,0.6-1.2,1c-0.2,0.2-0.5,0.3-0.7,0.5c0-0.2,0.1-0.3,0.2-0.4c0.1-0.1,0.2-0.3,0.3-0.4
					c0.3-0.4,0.2-0.6-0.3-0.8c-0.4-0.1-0.8-0.2-1-0.7c0-0.1-0.1-0.2-0.2-0.3c-0.4-0.2-0.8-0.5-1.1-0.7c-0.1,0-0.2,0-0.3,0
					c-0.2,0.2-0.5,0.4-0.7,0.6c0.3,0.4,0.7,0.7,1.1,1.1c0.2,0.2,0.2,0.5,0.3,0.7c0.1,0.1,0.1,0.3,0.2,0.3c0.5,0.4,1,0.9,1.6,1.2
					c1.2,0.6,2.5,1.2,3.7,1.8c0.3,0.1,0.5,0.3,0.7,0.5c0.3,0.3,0.7,0.5,1.1,0.7c1.2,0.6,2.5,1.3,3.7,2c0.2,0.1,0.4,0.1,0.7,0.1
					c0.4,0,0.8,0,1.3,0c0.1,0,0.4,0,0.4,0.1c0,0.3,0.3,0.3,0.5,0.5c0.1,0.1,0.2,0.1,0.4,0c0.2-0.1,0.4-0.2,0.5-0.2
					c0.2-0.1,0.4-0.1,0.6-0.1c1.1-0.2,2.1-0.5,3.2-0.5c1.9,0,3.9,0.2,5.8-0.2c0.8-0.2,1.5-0.2,2.3-0.6c0.9-0.5,1.9-0.7,2.9-0.7
					c0.3,0,0.5,0,0.8-0.1c0.4-0.1,0.8-0.2,1.3-0.3c-0.1,0.3-0.2,0.5-0.5,0.7c-0.3,0.2-0.7,0.3-1,0.5c-0.3,0.2-0.4,0.3-0.2,0.6
					c0.2,0.5,0.6,0.7,1.1,0.7c0.9,0.1,1.8,0.2,2.7,0.3c0.6,0.1,1.1,0.2,1.7,0.2c0.7,0,1.4-0.2,2.2-0.3c1.2-0.2,2.3-0.6,3.2-1.4
					c0.8-0.8,1.8-1.2,2.9-1.6c0.1,0,0.2-0.1,0.3-0.1c0.1,0,0.2,0,0.2,0c-0.3,0.2-0.6,0.4-0.9,0.6c-0.2,0.2-0.5,0.4-0.7,0.6
					c-0.2,0.1-0.5,0.2-0.7,0.3c-0.1,0.1-0.2,0.2-0.3,0.3c0,0,0,0.1,0,0.1c0.1,0,0.3,0,0.4,0c0.4,0,0.7,0,1.1,0
					c0.2,0,0.3,0.1,0.5,0.2c0.9,0.1,1.9,0.2,2.8,0.2c0.5,0,1-0.2,1.5-0.2c0.7-0.1,1.4,0,2.1,0.3c0.3,0.2,0.7,0.3,1,0.4
					c0.3,0.1,0.7,0.2,1,0.2c0.6,0.1,1.1,0.2,1.7,0.3c0,0,0-0.1,0-0.1c-0.3-0.3-0.6-0.5-1-0.8C84.1,63.8,83.4,63.7,82.8,63.5z
					 M46.3,55.5c0.2,0.4,0.1,1-0.2,1.3c-0.1,0.1-0.1,0.2-0.2,0.3c-0.1,0.3-0.3,0.6-0.7,0.8C45.6,57.1,45.9,56.3,46.3,55.5z
					 M42.7,59.8c-0.1,0.1-0.3,0.1-0.4,0c-0.2-0.1-0.4-0.1-0.5,0.1c-0.4,0.7-1.1,0.8-1.7,1c-0.2,0.1-0.5-0.1-0.8-0.2c0,0,0-0.1,0-0.1
					c0.2,0,0.4-0.1,0.6-0.1c0.6-0.1,1.1-0.4,1.5-0.9c0.1-0.2,0.3-0.3,0.5-0.4c1-0.2,1.6-0.9,2.2-1.6c0.1-0.1,0.1-0.2,0.2-0.2
					C44,58.4,43.5,59.3,42.7,59.8z M46.8,62.1c0.4,0,0.8,0,1.2-0.1c0,0,0,0.1,0,0.1c-1.1,0.4-2.2,0.9-3.5,1c0,0,0-0.1-0.1-0.1
					c0.3-0.2,0.5-0.5,0.8-0.7c0.5-0.4,1.1-0.6,1.8-0.7c0.7-0.1,1.4-0.3,2.1-0.5C48.4,61.7,47.6,61.8,46.8,62.1
					C46.7,62.1,46.8,62.1,46.8,62.1z M62.2,60.7c-0.6,0.2-1.2,0.5-1.8,0.9c-0.5,0.3-1,0.3-1.5,0.4c-0.9,0.2-1.8,0.4-2.6,0.6
					c-0.2,0.1-0.5,0.1-0.7,0.1c-0.1,0-0.2-0.1-0.2-0.2c-0.1-0.3-0.2-0.7-0.4-1c-0.2-0.4-0.5-0.5-0.9-0.4c-0.5,0.1-1,0.2-1.5,0.2
					c-0.1,0-0.2-0.1-0.3-0.1c-0.1-0.1-0.3-0.1-0.4-0.1c-0.7-0.1-1.5-0.1-2.3-0.2c0.9-0.3,1.7-0.5,2.6-0.8c0.9-0.3,1.8-0.5,2.6-0.8
					c0.9-0.3,1.7-0.6,2.7-1c-0.8,0.5-1.5,0.9-2.2,1.3c0,0,0,0.1,0,0.1c0.1,0,0.3,0.1,0.4,0.1c0.1,0,0.2,0,0.3,0
					c0.5,0,0.9,0.1,1.3,0.5c0.4,0.4,1,0.6,1.7,0.4c0.6-0.1,1.2-0.1,1.8-0.3c1.3-0.3,2.5-0.7,3.6-1.6c0.1-0.1,0.3-0.2,0.5-0.3
					c0,0,0,0,0,0.1c-0.4,0.3-0.7,0.6-1.1,1C63.4,60.2,62.8,60.5,62.2,60.7z"/>
			</g>
			<g>
				<path class="st0" d="M27,56c-0.1-0.4-0.3-0.9-0.5-1.2c-0.3-0.4-0.6-0.4-0.9,0c-0.4,0.4-0.8,0.7-1.4,0.8c-0.3,0-0.6,0.2-0.8,0.5
					c-0.1,0.2-0.3,0.3-0.4,0.5c-0.4,0.6-0.8,1.1-1.4,1.5c-0.7,0.5-1.4,1-2.4,0.8c-0.6-0.1-1.2,0.2-1.8,0.5c-0.4,0.2-0.8,0.4-1.3,0.5
					c-0.3,0.1-0.6,0.1-0.8,0.2c-0.7,0.3-1.4,0.6-2.1,0.9c-0.3,0.1-0.6,0.4-0.8,0.4c-0.5,0-1,0.3-1.3,0.6c-0.4,0.3-0.9,0.7-1.3,1.1
					c0.2,0.3,0.4,0.4,0.7,0.3c0.1,0,0.2,0,0.3-0.1c0.9-0.2,1.9-0.2,2.8-0.7c0.1,0,0.2-0.1,0.3-0.1c0.5,0,1,0,1.5-0.1
					c0.2,0,0.5,0,0.7-0.2c1.4-0.8,2.8-1.5,4.2-2.3c0.1-0.1,0.3-0.1,0.4-0.2c-0.6,0.8-1.3,1.5-1.9,2.3c-0.5,0.5-0.8,1.2-0.9,1.8
					c-0.1,0.6,0,0.9,0.5,1.1c0.5,0.1,0.9,0.1,1.4-0.1c1.1-0.5,2.3-0.9,3.5-0.9c1,0,1.7-0.6,2.3-1.4c-0.6,0-1.1,0-1.6,0
					c-0.3,0-0.6-0.1-0.8-0.4c-0.2-0.2-0.1-0.4,0.1-0.6c0.1-0.1,0.3-0.2,0.5-0.3c0.2-0.1,0.4-0.3,0.3-0.5c-0.1-0.2-0.4-0.2-0.6-0.1
					c-0.4,0.1-0.8,0.3-1.1,0.4c-0.5,0.2-0.9,0.5-1.4,0.7c0-0.1,0-0.1,0-0.1c0.6-1,1.3-2,2.2-2.8c0.1-0.1,0.3-0.2,0.5-0.3
					c0.6-0.1,1.2,0,1.7,0.1c0.1,0,0.3,0,0.4-0.1c0.3-0.2,0.6-0.4,1-0.4c0.3,0,0.6-0.1,0.9-0.2c-0.1-0.2-0.3-0.4-0.4-0.5
					C27.1,57,27.2,56.5,27,56z"/>
			</g>
			<g>
				<path class="st0" d="M44,64.7c-0.5,0.1-1.1,0.1-1.6-0.3c-0.1-0.1-0.3-0.1-0.5-0.2c-0.2-0.1-0.4,0-0.5,0.2
					c-0.1,0.2-0.2,0.4-0.3,0.7c-0.1-0.3-0.2-0.5-0.3-0.7C40.7,64,40.6,64,40.2,64c-0.1,0-0.1,0-0.2,0c-0.1,0-0.1,0-0.2,0
					c-0.2-0.3-0.4-0.6-0.5-1c-0.1-0.5-0.2-0.6-0.7-0.6c-0.1,0-0.2,0-0.3,0c-0.4-0.1-0.7,0.1-0.9,0.4c-0.2,0.3-0.5,0.6-0.7,1
					c-0.1-0.5-0.1-1-0.2-1.5c-0.1-0.8-0.4-1.5-1.2-1.9c-0.2-0.1-0.3-0.1-0.4,0c-0.3,0.2-0.6,0.5-1,0.7c-0.5,0.3-0.9,0.6-1.4,1
					c-0.3,0.2-0.5,0.4-0.8,0.6c-0.4,0.3-0.8,0.6-1.4,0.5c-0.4-0.1-0.7,0.1-0.9,0.4c-0.3,0.3-0.5,0.7-0.8,1c0.4,0.1,0.9,0.1,1.3,0.2
					c0.8,0.1,1.7,0.3,2.5,0.3c1.3,0,2.6,0.2,3.8,0.5c1.3,0.2,2.6,0.4,3.9,0.3c0.3,0,0.6-0.1,0.8-0.2c0.7-0.3,1.4-0.6,2.2-0.6
					c0.4,0,0.9,0,1.3,0c0.4,0,0.7-0.1,1.1-0.2C45,64.8,44.5,64.6,44,64.7z"/>
			</g>
			<g>
				<path class="st0" d="M17.8,58.2c0.1-0.1,0.2-0.1,0.4-0.2c0.6-0.1,1.1-0.1,1.7,0.1c0.2,0.1,0.4,0.1,0.6,0
					c0.6-0.3,1.1-0.8,1.6-1.3c0.1-0.1,0.2-0.3,0.3-0.5c0.1-0.4,0.3-0.7,0.6-0.9c0.4-0.3,0.9-0.5,1.3-0.8c0.8-0.4,1.4-1.1,1.6-2
					c0.2-0.7,0.2-1.4,0.3-2.1c0-0.1-0.1-0.2-0.1-0.2c-0.4-0.4-0.8-0.4-1.3,0.1c-0.6,0.5-1.1,1.1-1.7,1.6c-0.6,0.5-1,1.2-1.6,1.6
					c-2.5,1.5-4.6,3.5-6.4,5.6c0.5-0.2,1-0.3,1.5-0.5C16.9,58.7,17.5,58.6,17.8,58.2z"/>
			</g>
			<g>
				<path class="st0" d="M47.3,58.7c-0.8,0.8-1.6,1.6-2.4,2.4c0.7-0.4,1.6-0.4,2.5-0.5c0.2,0,0.3,0,0.5-0.1c0.2-0.1,0.4-0.2,0.7-0.3
					c0.5-0.2,0.8-0.5,1-1.1c0.1-0.3,0.2-0.7,0.3-1c0-0.1,0-0.3,0-0.4c-0.3-0.5-0.6-1-0.9-1.4c-0.1-0.1-0.2-0.3-0.3-0.4
					c0,0.5,0,0.9-0.4,1.3c-0.2,0.2-0.3,0.4-0.5,0.6c-0.1,0.1-0.1,0.2-0.2,0.4C47.5,58.2,47.5,58.5,47.3,58.7z"/>
			</g>
			<g>
				<path class="st0" d="M52.7,57.8c0.3,0.1,0.5,0.3,0.7,0.5c0.2,0.2,0.4,0.1,0.5-0.1c0.2-0.3,0.3-0.6,0.5-0.9
					c0.2-0.3,0.1-0.6-0.1-0.9c-0.2-0.2-0.3-0.4-0.4-0.6c-0.5,0-0.9,0.3-1.3,0.6c-0.1,0.1-0.2,0.2-0.3,0.2c-0.5,0-0.9,0.5-1.4,0.5
					c0.4,0.4,0.8,0.4,1.2,0.5C52.3,57.7,52.5,57.7,52.7,57.8z"/>
			</g>
			<g>
				<path d="M65,58.7c-0.2,0.1-0.3,0.2-0.5,0.3c-1,0.9-2.3,1.3-3.6,1.6c-0.6,0.1-1.2,0.1-1.8,0.3c-0.7,0.2-1.2,0-1.7-0.4
					c-0.4-0.4-0.8-0.5-1.3-0.5c-0.1,0-0.2,0-0.3,0c-0.2,0-0.3-0.1-0.4-0.1c0,0,0-0.1,0-0.1c0.7-0.4,1.4-0.9,2.2-1.3
					c-0.9,0.3-1.8,0.7-2.7,1c-0.9,0.3-1.7,0.6-2.6,0.8c-0.9,0.3-1.7,0.5-2.6,0.8c0.8,0.1,1.5,0.1,2.3,0.2c0.1,0,0.3,0.1,0.4,0.1
					c0.1,0,0.2,0.1,0.3,0.1c0.5-0.1,1-0.1,1.5-0.2c0.4-0.1,0.7,0,0.9,0.4c0.2,0.3,0.2,0.6,0.4,1c0,0.1,0.1,0.2,0.2,0.2
					c0.2,0,0.5,0,0.7-0.1c0.9-0.2,1.8-0.5,2.6-0.6c0.5-0.1,1-0.2,1.5-0.4c0.6-0.3,1.2-0.6,1.8-0.9c0.6-0.2,1.3-0.5,1.8-1
					C64.3,59.4,64.7,59.1,65,58.7C65,58.8,65,58.7,65,58.7z"/>
			</g>
			<g>
				<path d="M46.9,61.6c-0.6,0.1-1.2,0.3-1.8,0.7c-0.3,0.2-0.5,0.5-0.8,0.7c0,0,0,0.1,0.1,0.1c1.2-0.1,2.3-0.6,3.5-1
					c0,0,0-0.1,0-0.1c-0.4,0-0.8,0-1.2,0.1c0,0,0-0.1,0-0.1c0.8-0.2,1.7-0.3,2.3-0.9C48.3,61.3,47.6,61.5,46.9,61.6z"/>
			</g>
			<g>
				<path d="M44.2,57.7c-0.6,0.7-1.3,1.4-2.2,1.6c-0.2,0-0.4,0.2-0.5,0.4c-0.4,0.5-0.9,0.8-1.5,0.9c-0.2,0-0.4,0.1-0.6,0.1
					c0,0,0,0.1,0,0.1c0.3,0.1,0.6,0.2,0.8,0.2c0.6-0.2,1.4-0.3,1.7-1c0.1-0.2,0.3-0.2,0.5-0.1c0.1,0,0.3,0,0.4,0
					c0.9-0.6,1.3-1.5,1.7-2.3C44.3,57.6,44.3,57.7,44.2,57.7z"/>
			</g>
			<g>
				<path d="M45.9,57.1c0-0.1,0.1-0.2,0.2-0.3c0.3-0.3,0.4-0.9,0.2-1.3c-0.3,0.8-0.7,1.6-1.1,2.4C45.6,57.7,45.8,57.4,45.9,57.1z"/>
			</g>
		</g>
	</g>
</g>
<text transform="matrix(1 0 0 1 69.0033 120.0752)"><tspan x="0" y="0" class="st1 st2">ESPACIO</tspan><tspan x="-29.8" y="28.6" class="st1 st2">PUBLICITARIO</tspan></text>
</svg>
